<svg xmlns="http://www.w3.org/2000/svg" xmlns:xlink="http://www.w3.org/1999/xlink" viewBox="0 0 1064.42 215.62"><defs><style>.cls-1{fill:url(#linear-gradient);}.cls-2{fill:url(#linear-gradient-2);}.cls-3{fill:url(#linear-gradient-3);}.cls-4{fill:url(#linear-gradient-4);}.cls-5{fill:url(#linear-gradient-5);}.cls-6{fill:url(#linear-gradient-6);}.cls-7{fill:url(#linear-gradient-7);}.cls-8{fill:url(#linear-gradient-8);}.cls-9{fill:url(#linear-gradient-9);}.cls-10{font-size:18px;fill:#b76c49;font-family:Poppins-Bold, Poppins;font-weight:700;}.cls-11{fill:none;}.cls-12{fill:url(#linear-gradient-10);}.cls-13{fill:url(#linear-gradient-11);}.cls-14{fill:url(#linear-gradient-12);}.cls-15{fill:url(#linear-gradient-13);}.cls-16{fill:url(#linear-gradient-14);}.cls-17{fill:url(#linear-gradient-15);}.cls-18{fill:url(#linear-gradient-16);}.cls-19{fill:url(#linear-gradient-17);}.cls-20{fill:url(#linear-gradient-18);}.cls-21{fill:url(#linear-gradient-19);}.cls-22{fill:url(#linear-gradient-20);}.cls-23{fill:url(#linear-gradient-21);}.cls-24{fill:url(#linear-gradient-22);}.cls-25{fill:url(#linear-gradient-23);}</style><linearGradient id="linear-gradient" x1="70.99" y1="79.53" x2="96.11" y2="79.53" gradientUnits="userSpaceOnUse"><stop offset="0" stop-color="#ffc9b3"/><stop offset="1" stop-color="#b76c49"/></linearGradient><linearGradient id="linear-gradient-2" x1="69.5" y1="115.27" x2="91.04" y2="115.27" xlink:href="#linear-gradient"/><linearGradient id="linear-gradient-3" x1="89.27" y1="111.81" x2="143.57" y2="111.81" xlink:href="#linear-gradient"/><linearGradient id="linear-gradient-4" x1="103.41" y1="72.74" x2="142.9" y2="72.74" xlink:href="#linear-gradient"/><linearGradient id="linear-gradient-5" x1="56.44" y1="144.56" x2="111.31" y2="144.56" xlink:href="#linear-gradient"/><linearGradient id="linear-gradient-6" x1="11.74" y1="132.02" x2="31.77" y2="132.02" xlink:href="#linear-gradient"/><linearGradient id="linear-gradient-7" x1="39.02" y1="111.93" x2="64.5" y2="111.93" xlink:href="#linear-gradient"/><linearGradient id="linear-gradient-8" x1="0" y1="82.34" x2="164.68" y2="82.34" xlink:href="#linear-gradient"/><linearGradient id="linear-gradient-9" x1="38.1" y1="147.15" x2="59.32" y2="147.15" xlink:href="#linear-gradient"/><linearGradient id="linear-gradient-10" x1="288.56" y1="59.34" x2="352.79" y2="59.34" xlink:href="#linear-gradient"/><linearGradient id="linear-gradient-11" x1="224.93" y1="82.34" x2="389.62" y2="82.34" xlink:href="#linear-gradient"/><linearGradient id="linear-gradient-12" x1="296.54" y1="43.08" x2="354.92" y2="43.08" xlink:href="#linear-gradient"/><linearGradient id="linear-gradient-13" x1="350.63" y1="104.28" x2="364.87" y2="104.28" xlink:href="#linear-gradient"/><linearGradient id="linear-gradient-14" x1="286.61" y1="90.91" x2="344.98" y2="90.91" xlink:href="#linear-gradient"/><linearGradient id="linear-gradient-15" x1="286.63" y1="132.67" x2="344.99" y2="132.67" xlink:href="#linear-gradient"/><linearGradient id="linear-gradient-16" x1="466.81" y1="122.14" x2="545" y2="122.14" xlink:href="#linear-gradient"/><linearGradient id="linear-gradient-17" x1="449.87" y1="80.73" x2="609.21" y2="80.73" xlink:href="#linear-gradient"/><linearGradient id="linear-gradient-18" x1="541.46" y1="72.05" x2="614.55" y2="72.05" xlink:href="#linear-gradient"/><linearGradient id="linear-gradient-19" x1="478.19" y1="119.76" x2="553.37" y2="119.76" xlink:href="#linear-gradient"/><linearGradient id="linear-gradient-20" x1="899.74" y1="82.34" x2="1064.42" y2="82.34" xlink:href="#linear-gradient"/><linearGradient id="linear-gradient-21" x1="994.45" y1="110.1" x2="1005.11" y2="110.1" xlink:href="#linear-gradient"/><linearGradient id="linear-gradient-22" x1="993.27" y1="128.79" x2="1006.17" y2="128.79" xlink:href="#linear-gradient"/><linearGradient id="linear-gradient-23" x1="674.8" y1="82.34" x2="839.48" y2="82.34" xlink:href="#linear-gradient"/></defs><g id="Layer_2" data-name="Layer 2"><g id="Layer_1-2" data-name="Layer 1"><path class="cls-1" d="M84.35,53.05l-.43-.37-.45.36a32.42,32.42,0,0,0-9.19,11.78A36.78,36.78,0,0,0,71,78.94C70.69,89.48,74.72,99.59,81.79,106l.4.36.45-.29a28.86,28.86,0,0,0,9.75-10.75,32.57,32.57,0,0,0,3.66-13.47C96.69,70.7,92.21,59.66,84.35,53.05Z"/><path class="cls-2" d="M70.5,126.28c5.28-1.79,11.35-2.31,18.57-1.61l2,.2-1.42-1.39c-.75-.73-1.52-1.45-2.32-2.21-1.81-1.71-3.67-3.47-5.4-5.34-2.32-2.51-4.55-5.12-6.7-7.64l-2.68-3.13-1.08-1.24-1.94,22.7Z"/><path class="cls-3" d="M89.54,112.29l-.27.42.32.38c5.87,7.22,15.56,11.59,25.92,11.69h.34a36,36,0,0,0,14.41-3,35.14,35.14,0,0,0,12.92-9.66l.39-.47-.42-.45c-.52-.57-1-1.18-1.54-1.78a20,20,0,0,0-3.73-3.73,36.56,36.56,0,0,0-25.5-6.65C101.81,100.23,94.34,104.55,89.54,112.29Z"/><path class="cls-4" d="M134.66,79.12A34.76,34.76,0,0,0,142.9,55.9a3.33,3.33,0,0,0-.9-2.63,3.19,3.19,0,0,0-2.6-.56l-.7,0a6.68,6.68,0,0,0-.88,0A40.29,40.29,0,0,0,118,60.61,39.06,39.06,0,0,0,105.67,78a38.19,38.19,0,0,0-2.26,14v.82l.81-.14c.92-.15,1.8-.32,2.66-.47,1.78-.33,3.46-.63,5.14-.83A34.26,34.26,0,0,0,134.66,79.12Z"/><path class="cls-5" d="M56.65,145.19l-.21.35.2.35c2.79,4.88,13.17,10.36,21.37,11.27a39.14,39.14,0,0,0,4.3.24c10,0,19.11-4,28.43-12.5l.57-.52-.57-.51c-.72-.65-1.42-1.32-2.09-2a31.19,31.19,0,0,0-4.51-3.85,36.71,36.71,0,0,0-26.44-5.87C67.92,133.72,61,138,56.65,145.19Z"/><path class="cls-6" d="M19.35,117.2l-.44-.39-.45.37a32.46,32.46,0,0,0-6.72,7.55,82.77,82.77,0,0,0,20,22.51,37.68,37.68,0,0,0-2.54-16.06A36,36,0,0,0,19.35,117.2Z"/><path class="cls-7" d="M52.34,85l-.43-.36-.44.35a36.13,36.13,0,0,0-.84,53.82l.39.33.44-.27a25.88,25.88,0,0,0,9.24-10.19A34.81,34.81,0,0,0,64.42,115,38.88,38.88,0,0,0,62,98.62,32.58,32.58,0,0,0,52.34,85Z"/><path class="cls-8" d="M82.34,0A82.34,82.34,0,0,0,8.5,118.77a52.33,52.33,0,0,1,9.9-10.08,1.15,1.15,0,0,1,.69-.34,1.56,1.56,0,0,1,.75.3c5,3.15,8.38,6.21,10.89,9.93l1.51,2.25-.24-2.7c-1.6-17.33,4.66-31.36,19.11-42.88l13,11.86V85.53c0-.8,0-1.64,0-2.53,0-2-.07-4.27,0-6.47.42-7,2.77-13.86,7.21-20.89a45.81,45.81,0,0,1,11-11.73c.77-.6,1-.62,1.73-.14A45.61,45.61,0,0,1,96.78,57.09a42.18,42.18,0,0,1,4.9,11.72c.41-.71.84-1.41,1.29-2.09A44.87,44.87,0,0,1,119.6,51.26a47.07,47.07,0,0,1,22.17-5c1.49,0,3,.09,4.68.19l2.12.13c.07.72.16,1.47.25,2.24a48.5,48.5,0,0,1,.48,6.74,45.09,45.09,0,0,1-11,28.36,44.6,44.6,0,0,1-11.9,9.71c.81.19,1.61.4,2.39.64a37.21,37.21,0,0,1,15.35,9.32,44.58,44.58,0,0,1,5.38,7.06c.53.79,1.08,1.62,1.63,2.42a2.5,2.5,0,0,1-.4,1.11c-6.74,9.63-15.82,15.51-27,17.48a68.85,68.85,0,0,1-9.63.8c-1.38,0-2.67.1-3.92.18l-1.66.11,1.24,1.1c.41.36.87.76,1.36,1.17,1.27,1.09,2.71,2.33,4.06,3.69s2.45,2.69,3.7,4.17l1.34,1.59A45.89,45.89,0,0,1,102,160.42c-7,3.26-15.3,4.6-24.53,4l-3.2-.22.24.13c2.59.24,5.21.38,7.86.38A82.34,82.34,0,0,0,82.34,0Z"/><path class="cls-9" d="M46.83,156.64a47.4,47.4,0,0,1,10.31,0l2.18.24-1.64-1.45c-.54-.48-1.09-1-1.67-1.45-1.37-1.17-2.79-2.39-4.1-3.69a14.6,14.6,0,0,1-1.52-1.89,14.23,14.23,0,0,0-1.67-2.08c-2-2-4.13-4-6.15-5.81l-2.2-2-1-1L38.1,151.77A80.76,80.76,0,0,0,46.83,156.64Z"/><text class="cls-10" transform="translate(22.14 202.03)">GLUTEN-FREE</text><path class="cls-11" d="M300.26,137.86h14l.06-.89c0-.12,0-.24,0-.35s0-.49,0-.74c0-.76,0-1.53,0-2.27v-7.7A83.12,83.12,0,0,1,300.2,137Z"/><path class="cls-12" d="M288.56,65.25h14.11c13.7,0,27.85,0,41.78,0h0a2.77,2.77,0,0,0,2.68-1.57c1-1.78,2-3.57,3-5.3L351.47,56c.14-.26.27-.51.4-.79l.22-.43.7-1.39H295.28Z"/><path class="cls-13" d="M337.82,158.44H284.44a5.51,5.51,0,0,1-1.54-.17,2.55,2.55,0,0,1-1.87-2.39,7.37,7.37,0,0,1,0-1V138.25c0-22.65,0-46.06,0-69.09a6.67,6.67,0,0,1,.94-3.53c1.7-2.94,3.41-5.94,5.06-8.85,1.06-1.89,2.17-3.83,3.26-5.74a4.73,4.73,0,0,0,.65-2.49c0-3.89,0-7.86,0-11.69v-.38a8.55,8.55,0,0,1,.08-1.33,2.75,2.75,0,0,1,2.52-2.32,5.66,5.66,0,0,1,.59,0h63.15a5.17,5.17,0,0,1,1,.06,2.77,2.77,0,0,1,2.27,2.73c0,.64,0,1.29,0,2,0,.28,0,.56,0,.83,0,.79,0,1.58,0,2.37,0,2.53,0,5.14,0,7.71a5,5,0,0,0,.69,2.61c1.34,2.34,2.7,4.74,4,7,1.45,2.54,2.94,5.17,4.43,7.76a5.59,5.59,0,0,1,.76,2.94c0,11.36,0,22.91,0,34.07v32.27a82.2,82.2,0,1,0-31.66,23.25Z"/><rect class="cls-14" x="296.54" y="38.45" width="58.38" height="9.26"/><path class="cls-15" d="M364.85,140.87v-4.6c0-21.58,0-43.9,0-65.86a6,6,0,0,0-.86-3.17c-1.12-1.92-2.23-3.89-3.31-5.8-.47-.84-.95-1.68-1.43-2.52l-.45-.76c-.08-.14-.17-.29-.28-.46l-.84-1.41-.81,1.43-1.4,2.47c-1.55,2.71-3,5.27-4.46,7.89a3.8,3.8,0,0,0-.39,1.89c0,28.17,0,56.48,0,80.8a7.08,7.08,0,0,0,.05.82c0,.11,0,.23,0,.34v0l0,.32a82.46,82.46,0,0,0,14.12-11.09Z"/><path class="cls-16" d="M286.61,71.28v35.93l.79.14a23.08,23.08,0,0,1,6.36,2.37,13.86,13.86,0,0,0,8.57,1.15,14.47,14.47,0,0,0,4.54-1.64l.61-.3a19.54,19.54,0,0,1,12.16-1.5,22.24,22.24,0,0,1,5.72,2.07l.2.1a14.58,14.58,0,0,0,3.25,1.16,15.45,15.45,0,0,0,3.07.31,14.09,14.09,0,0,0,6.38-1.51,34.11,34.11,0,0,1,3.64-1.47c.52-.18,1.05-.38,1.58-.58a3.43,3.43,0,0,1,.51-.14l.28-.07.71-.2V71l-.84-.1c-1.37-.16-18.78-.17-28.85-.15-7.16,0-13.85,0-18.84.09-8.71.08-8.95.15-9.16.22Z"/><path class="cls-17" d="M345,112.54l-1.37.63-1.28.59L339.77,115a19.36,19.36,0,0,1-10.43,1.53,20.63,20.63,0,0,1-7.4-2.45,14,14,0,0,0-8.17-1.28,15.73,15.73,0,0,0-5.21,1.82l-.56.27a19.7,19.7,0,0,1-17.61-.58c-.52-.26-1.05-.48-1.61-.72l-.8-.34-1.35-.59v40.18H345Z"/><text class="cls-10" transform="translate(240.95 202.03)">LACTOSE-FREE</text><path class="cls-18" d="M545,163.69c-.35-2.9-.43-5.78-.49-8.6l0-1a43.44,43.44,0,0,0-.86-9c-1.87-7.88-6.73-13.8-14.45-17.61A37.77,37.77,0,0,1,520.7,122a34.44,34.44,0,0,1-10.32-17.38c-2.64-9.85-8.73-16.3-18.08-19.18-3-.91-6-1.7-9-2.46-1.83-.48-3.72-1-5.58-1.48-1.35-.38-2.65-.82-4-1.28l-1.79-.6-.07.15a4.77,4.77,0,0,0-.22.52,78.23,78.23,0,0,0-4.77,22A25.3,25.3,0,0,0,470.93,118a28.79,28.79,0,0,0,12.18,10.3,32.69,32.69,0,0,1,13.67,12.53,43.05,43.05,0,0,1,4.34,11,25.62,25.62,0,0,0,4,8.25,82,82,0,0,0,27.08,4.58A83,83,0,0,0,545,163.69Zm-12.41-15.47a2.15,2.15,0,0,1,3-.83,8,8,0,0,1,4.43,4.92,6.74,6.74,0,0,1,.2,1c0,.1,0,.19,0,.26v0a2.21,2.21,0,0,1-1.85,2.23,2.17,2.17,0,0,1-.51,0,1.92,1.92,0,0,1-1.75-1.45,4.74,4.74,0,0,0-2.61-3.28A2.06,2.06,0,0,1,532.59,148.22Zm-53.37-46.38a2.48,2.48,0,0,1-1,1.86,1.94,1.94,0,0,1-1.35.34,1.61,1.61,0,0,1-.37-.07,8,8,0,0,1-5.24-6.17A2.17,2.17,0,0,1,473,95.33a2,2,0,0,1,2.44,1.57,4.45,4.45,0,0,0,2.47,3,2.08,2.08,0,0,1,1.32,1.9Zm18.57,19.62a2.1,2.1,0,0,1-2,1.12,1.69,1.69,0,0,1-.49-.13c-3.82-1.54-8.14-5.17-8.85-10.71,0-.13,0-.25,0-.33v-.06h0a2.22,2.22,0,0,1,1.85-2.08,2.08,2.08,0,0,1,2.27,1.45,8.75,8.75,0,0,1,.23.88,7.22,7.22,0,0,0,.22.89,9.75,9.75,0,0,0,4.89,5.51l.31.16a7,7,0,0,1,1.11.68A2,2,0,0,1,497.79,121.46ZM502,106.53a2.17,2.17,0,0,1-.62,0,2.22,2.22,0,0,1-1.87-2c-.53-2.89-2.2-5-5.27-6.74l-.34-.18A8.6,8.6,0,0,1,493,97a2,2,0,0,1-.64-2.44,2.2,2.2,0,0,1,2.48-1.27h0l.36.16a10.93,10.93,0,0,1,1.28.6c4.14,2.34,6.5,5.46,7.22,9.55C504,105.2,503.37,106.28,502,106.53Zm7.36,24.05a2.09,2.09,0,0,1,.57-1.72,2.35,2.35,0,0,1,2-.64h0a1.86,1.86,0,0,1,1.64,1.58c.57,3.34,2.57,5.81,6.11,7.54a2.31,2.31,0,0,1,1.28,1.37,2.08,2.08,0,0,1-.19,1.64,2,2,0,0,1-2.06,1.08,2.92,2.92,0,0,1-1-.28,14,14,0,0,1-7.91-8.58A10.65,10.65,0,0,1,509.39,130.58Zm13.84,29.77a2.8,2.8,0,0,1-1.4,1.88,2,2,0,0,1-1,.2,1.8,1.8,0,0,1-.55-.15c-5.1-2.23-8-5.68-8.78-10.52a2.15,2.15,0,0,1,1.25-2.49,2,2,0,0,1,2.51.69,3,3,0,0,1,.48,1.17c.52,2.93,2.22,5.09,5.35,6.8l.34.17a2.06,2.06,0,0,1,.76.48,7.81,7.81,0,0,1,.77,1.19l.3.51,0,0Z"/><path class="cls-19" d="M601.68,117.84a36.22,36.22,0,0,1-15.53,5.65,53.55,53.55,0,0,1-8.21.49,33.77,33.77,0,0,1-6.39-1,54,54,0,0,1-6.45-1.86,42.16,42.16,0,0,1-5.46-2.39,41.52,41.52,0,0,1-10.47-7.84c-1.16-1.2-2.24-2.55-3.28-3.86h0c-.44-.56-.9-1.14-1.37-1.7a39,39,0,0,1-5.11-9.21l-.33-.74a24.48,24.48,0,0,1-2.14-7.81c-.11-1.24-.3-2.47-.48-3.67-.21-1.36-.42-2.77-.51-4.15a30,30,0,0,1,.26-5.94c.23-1.72.64-3.48,1-5.18l.33-1.43a28,28,0,0,1,2.88-7.15,50,50,0,0,1,7.6-10c1.86-2,3.69-4.11,5.47-6.13v0l3.57-4c.65-.72,1.31-1.46,1.94-2.18l0,0c2-2.29,4.11-4.65,6.3-6.81A32.92,32.92,0,0,1,575.59,24a40.15,40.15,0,0,1,11.17-3l.36-.05a82.33,82.33,0,1,0-88.46,136.53c-.06-.12-.13-.24-.19-.37a41.73,41.73,0,0,1-2.17-6.4,30.34,30.34,0,0,0-7.44-13.08,32.35,32.35,0,0,0-9.05-6.27,31.44,31.44,0,0,1-14.54-14.76,28.17,28.17,0,0,1-2.75-14.1,79.18,79.18,0,0,1,5.22-24.08c.12-.3.25-.58.39-.86s.21-.42.3-.64a5,5,0,0,1,4-3.25l1.93-.3a79.65,79.65,0,0,1,8.19-1c2.87-.16,5.8-.11,8.62-.08,1.23,0,2.49,0,3.74,0h0c4,.54,8.52,1.3,12.66,3.47a30.82,30.82,0,0,1,15.64,18.85l.42,1.4a38.9,38.9,0,0,0,2.68,7.18A29.22,29.22,0,0,0,540,116.2a31.4,31.4,0,0,1,11.39,9.11,28.87,28.87,0,0,1,6.29,20.05,83,83,0,0,1-2.65,16.1,82.54,82.54,0,0,0,54.2-49.94A43.67,43.67,0,0,1,601.68,117.84Z"/><path class="cls-20" d="M614,72.7a2.65,2.65,0,0,1-1.34.37,2.54,2.54,0,0,1-1.17-.27,2.69,2.69,0,0,1-1.26-3.6l2.35-4.87A82.33,82.33,0,0,0,608.4,51.1l-.28.33L607,52.74l0,0-1.34,1.5-3.54,4,0,0-4.5,5.15c-.47.54-1,1.08-1.44,1.6s-.95,1-1.41,1.56c-1,1.12-2,2.25-2.92,3.35l0,0c-1,1.1-2.05,2.35-3.11,3.54l-2.22,2.5c-.87,1-1.77,2-2.64,3-1.08,1.23-2.2,2.53-3.19,3.67-1.47,1.69-3,3.44-4.49,5.15a4.65,4.65,0,0,1-1.29,1,3.08,3.08,0,0,1-2.36.14A2.08,2.08,0,0,1,571.15,88a3,3,0,0,1,.65-3.63l1.82-2.06,4.66-5.3.79-.89c1.95-2.22,4-4.52,6-6.78,1.78-2,3.59-4,5.34-6l2.38-2.66.82-.9c.6-.67,1.23-1.36,1.83-2.06l2.9-3.36.06-.06c1.47-1.71,3-3.48,4.5-5.2,1-1.1,2-2.2,2.94-3.27l.12-.13a82.2,82.2,0,0,0-11.28-17h0c-1.47,1.88-3.14,3.7-4.75,5.45-1,1.11-2.08,2.25-3.08,3.42-.08.09-.16.17-.23.26a3.76,3.76,0,0,0-1.18,3.8,39.78,39.78,0,0,1,.86,5.11c.13,1.07.27,2.16.46,3.25a3.69,3.69,0,0,1-1.63,3.69c-1.6.86-3.16,1.75-4.64,2.63-1.05.63-2.1,1.28-3.12,1.91h0c-1.79,1.11-3.64,2.25-5.49,3.28a2.66,2.66,0,0,1-3.57-1,2.8,2.8,0,0,1-.29-2.16,2.49,2.49,0,0,1,1.19-1.52c.95-.53,1.88-1.11,2.77-1.67l1.5-.94,4.94-3L580.49,50l.59-.36L581,49c-.13-.88-.27-1.78-.41-2.65-.36-2.29-.7-4.46-1-6.68a4.8,4.8,0,0,1,.37-2.38,5.56,5.56,0,0,1,1.14-1.45l.51-.55,2.48-2.76,0,0,3-3.33a2.81,2.81,0,0,0,.51-.92c0-.13.11-.26.18-.41l1-2.1-2.22.68-.54.17a3.25,3.25,0,0,1-.54.16,30.37,30.37,0,0,0-11.15,4.14,41.83,41.83,0,0,0-9.81,8.75c-2,2.35-4.07,4.7-6.09,7l-2.79,3.14c-1.62,1.85-3.25,3.69-4.88,5.54l-1.69,1.93a29.38,29.38,0,0,0-5.43,9.16,33.43,33.43,0,0,0-2.15,10.52A41.31,41.31,0,0,0,544.08,93a38.1,38.1,0,0,0,8.38,13.46v0a30.9,30.9,0,0,0,3.5,3.35,40.81,40.81,0,0,0,10,5.89,41.72,41.72,0,0,0,9.09,2.45l.82.12.29-.77.26-.65,0-.07.58-1.5,1.11-3,0,0c.57-1.56,1.17-3.16,1.77-4.75l.51-1.35c.64-1.7,1.29-3.45,2-5.13a5.9,5.9,0,0,1,1.3-2.06c2-1.84,4.17-3.57,6-5,1.48-1.18,2.82-1,4.33.63a2.1,2.1,0,0,1,.3,1.49,2.79,2.79,0,0,1-.94,2,41.52,41.52,0,0,0-4,3.22,12.31,12.31,0,0,0-2.38,2.93,11.11,11.11,0,0,0-.87,2.25c-.12.41-.23.79-.37,1.15-.85,2.23-1.72,4.5-2.57,6.69v0c-.34.89-.69,1.78-1,2.68l-.54,1.39h2.4a4,4,0,0,0,.63,0A34,34,0,0,0,600.67,112c.12-.1.26-.19.4-.29a7,7,0,0,0,.87-.65,89.61,89.61,0,0,0,8.08-8.62c.91-1.1,1.85-2.19,2.8-3.27A81.81,81.81,0,0,0,614,72.7ZM555.48,84.57a2.69,2.69,0,0,1-3.5-1.52,2.7,2.7,0,0,1,1.52-3.51l6-2.35a2.7,2.7,0,1,1,2,5Zm10.27,14.59-.68.78A2.7,2.7,0,0,1,561,96.39l.69-.79a2.7,2.7,0,1,1,4.06,3.56Zm43.94-10.28h-.12l-2.26-.1a2.7,2.7,0,1,1,.23-5.39l2.26.09a2.7,2.7,0,0,1-.11,5.4Z"/><path class="cls-21" d="M546.09,125.84a29.94,29.94,0,0,0-8.48-6,32.63,32.63,0,0,1-18-22A29.3,29.3,0,0,0,515.22,88a27.6,27.6,0,0,0-6.37-6.43,24.43,24.43,0,0,0-8.23-3.74A49.73,49.73,0,0,0,488,76.6c-2.3,0-4.64.13-6.91.24-.95,0-1.92.09-2.89.12a1,1,0,0,0,.55.33l2.71.73,10.44,2.78A31.61,31.61,0,0,1,505.52,88a32.52,32.52,0,0,1,8.33,13c.34.95.62,1.94.88,2.9s.56,2,.92,3a30,30,0,0,0,5.6,9.52,29.73,29.73,0,0,0,8.79,6.72,43,43,0,0,1,5.66,3.31c6.9,4.94,11.07,11.32,12.38,19a61.86,61.86,0,0,1,.67,8.58c0,1.29.08,2.63.16,3.93.09,1.58.19,3.17.29,4.75v.23l.93-.21a74.27,74.27,0,0,0,3.2-17.69,24.31,24.31,0,0,0-1.63-10.46A26.49,26.49,0,0,0,546.09,125.84Z"/><text class="cls-10" transform="translate(482.49 202.03)">NUTS-FREE</text><text class="cls-10" transform="translate(924.61 202.03)">NICKEL-FREE</text><path class="cls-22" d="M982.08,0a82.34,82.34,0,1,0,82.34,82.34A82.34,82.34,0,0,0,982.08,0Zm18,24.63h10.6V68.15h-10.6Zm-22.26,117.3H946.71v-7.87c1.4-1.12,2-1.63,1.92-1.55q6.07-5,9.58-8.25a39.63,39.63,0,0,0,5.92-6.75,12.24,12.24,0,0,0,2.42-6.89,6.07,6.07,0,0,0-1.18-4,4.89,4.89,0,0,0-7.22.34,8.12,8.12,0,0,0-1.34,5H946.58a17.64,17.64,0,0,1,2.27-8.81,13.06,13.06,0,0,1,5.64-5.2,17.75,17.75,0,0,1,7.78-1.68q7.38,0,11.13,3.78a13.42,13.42,0,0,1,3.75,9.86,19.31,19.31,0,0,1-4.53,12.31,66.63,66.63,0,0,1-11.53,11.07h16.74Zm4-73.78L964.07,41.31V68.15h-10.6V24.63h10.6l17.73,27v-27h10.6V68.15Zm32.49,68.73a14.18,14.18,0,0,1-6,4.87,22.26,22.26,0,0,1-16.92,0,14.12,14.12,0,0,1-6.05-4.87,12.9,12.9,0,0,1-2.23-7.59,12.12,12.12,0,0,1,1.8-6.67,11.84,11.84,0,0,1,5.08-4.37,10.31,10.31,0,0,1-5.83-9.73,11.21,11.21,0,0,1,1.74-6.11A11.91,11.91,0,0,1,991.1,98a20.46,20.46,0,0,1,8.68-1.65,20.25,20.25,0,0,1,8.65,1.65,12,12,0,0,1,5.24,4.4,11.29,11.29,0,0,1,1.73,6.11,10.53,10.53,0,0,1-1.58,5.82,11.12,11.12,0,0,1-4.25,3.91,12.2,12.2,0,0,1,5.15,4.43,12,12,0,0,1,1.8,6.61A12.9,12.9,0,0,1,1014.29,136.88Z"/><path class="cls-23" d="M999.78,115.4a5.32,5.32,0,0,0,3.84-1.43,5,5,0,0,0,1.49-3.84,5.16,5.16,0,0,0-1.46-3.94,5.35,5.35,0,0,0-9.2,4,4.94,4.94,0,0,0,1.49,3.81A5.39,5.39,0,0,0,999.78,115.4Z"/><path class="cls-24" d="M999.78,122.84a6.9,6.9,0,0,0-4.71,1.58,5.51,5.51,0,0,0-1.8,4.37,5.63,5.63,0,0,0,1.77,4.28,6.62,6.62,0,0,0,4.74,1.67,6.42,6.42,0,0,0,4.68-1.67,5.73,5.73,0,0,0,1.71-4.28,5.59,5.59,0,0,0-1.77-4.34A6.62,6.62,0,0,0,999.78,122.84Z"/><text class="cls-10" transform="translate(700.16 204.71)">SUGAR-FREE</text><path class="cls-25" d="M757.14,0a82.34,82.34,0,1,0,17.18,162.87l-12.77-3.47a2.31,2.31,0,0,1-1.61-2.82l8.45-31a2.29,2.29,0,0,1,2.82-1.61l31,8.45a2.29,2.29,0,0,1,1.61,2.82l-4.92,18.08A82.34,82.34,0,0,0,757.14,0Zm38.31,103.56-30.56,10a2.31,2.31,0,0,1-2.9-1.47l-10-30.56a2.31,2.31,0,0,1,1.47-2.9L784,68.63a2.31,2.31,0,0,1,2.9,1.47l10,30.56A2.31,2.31,0,0,1,795.45,103.56ZM808,28,795.93,57.79a2.3,2.3,0,0,1-3,1.26L763.13,47a2.29,2.29,0,0,1-1.27-3L774,14.16a2.3,2.3,0,0,1,3-1.27L806.76,25A2.3,2.3,0,0,1,808,28Z"/></g></g></svg>