<svg xmlns="http://www.w3.org/2000/svg" xmlns:xlink="http://www.w3.org/1999/xlink" viewBox="0 0 164.68 212.94"><defs><style>.cls-1{fill:url(#linear-gradient);}.cls-2{fill:url(#linear-gradient-2);}.cls-3{fill:url(#linear-gradient-3);}.cls-4{fill:url(#linear-gradient-4);}.cls-5{fill:url(#linear-gradient-5);}.cls-6{fill:url(#linear-gradient-6);}.cls-7{fill:url(#linear-gradient-7);}.cls-8{fill:url(#linear-gradient-8);}.cls-9{fill:url(#linear-gradient-9);}.cls-10{font-size:18px;fill:#b76c49;font-family:Poppins-Bold, Poppins;font-weight:700;}</style><linearGradient id="linear-gradient" x1="70.99" y1="79.53" x2="96.11" y2="79.53" gradientUnits="userSpaceOnUse"><stop offset="0" stop-color="#ffc9b3"/><stop offset="1" stop-color="#b76c49"/></linearGradient><linearGradient id="linear-gradient-2" x1="69.5" y1="115.27" x2="91.04" y2="115.27" xlink:href="#linear-gradient"/><linearGradient id="linear-gradient-3" x1="89.27" y1="111.81" x2="143.57" y2="111.81" xlink:href="#linear-gradient"/><linearGradient id="linear-gradient-4" x1="103.41" y1="72.74" x2="142.9" y2="72.74" xlink:href="#linear-gradient"/><linearGradient id="linear-gradient-5" x1="56.44" y1="144.56" x2="111.31" y2="144.56" xlink:href="#linear-gradient"/><linearGradient id="linear-gradient-6" x1="11.74" y1="132.02" x2="31.77" y2="132.02" xlink:href="#linear-gradient"/><linearGradient id="linear-gradient-7" x1="39.02" y1="111.93" x2="64.5" y2="111.93" xlink:href="#linear-gradient"/><linearGradient id="linear-gradient-8" x1="0" y1="82.34" x2="164.68" y2="82.34" xlink:href="#linear-gradient"/><linearGradient id="linear-gradient-9" x1="38.1" y1="147.15" x2="59.32" y2="147.15" xlink:href="#linear-gradient"/></defs><g id="Layer_2" data-name="Layer 2"><g id="Layer_1-2" data-name="Layer 1"><path class="cls-1" d="M84.35,53.05l-.43-.37-.45.36a32.42,32.42,0,0,0-9.19,11.78A36.78,36.78,0,0,0,71,78.94C70.69,89.48,74.72,99.59,81.79,106l.4.36.45-.29a28.86,28.86,0,0,0,9.75-10.75,32.57,32.57,0,0,0,3.66-13.47C96.69,70.7,92.21,59.66,84.35,53.05Z"/><path class="cls-2" d="M70.5,126.28c5.28-1.79,11.35-2.31,18.57-1.61l2,.2-1.42-1.39c-.75-.73-1.52-1.45-2.32-2.21-1.81-1.71-3.67-3.47-5.4-5.34-2.32-2.51-4.55-5.12-6.7-7.64l-2.68-3.13-1.08-1.24-1.94,22.7Z"/><path class="cls-3" d="M89.54,112.29l-.27.42.32.38c5.87,7.22,15.56,11.59,25.92,11.69h.34a36,36,0,0,0,14.41-3,35.14,35.14,0,0,0,12.92-9.66l.39-.47-.42-.45c-.52-.57-1-1.18-1.54-1.78a20,20,0,0,0-3.73-3.73,36.56,36.56,0,0,0-25.5-6.65C101.81,100.23,94.34,104.55,89.54,112.29Z"/><path class="cls-4" d="M134.66,79.12A34.76,34.76,0,0,0,142.9,55.9a3.33,3.33,0,0,0-.9-2.63,3.19,3.19,0,0,0-2.6-.56l-.7,0a6.68,6.68,0,0,0-.88,0A40.29,40.29,0,0,0,118,60.61,39.06,39.06,0,0,0,105.67,78a38.19,38.19,0,0,0-2.26,14v.82l.81-.14c.92-.15,1.8-.32,2.66-.47,1.78-.33,3.46-.63,5.14-.83A34.26,34.26,0,0,0,134.66,79.12Z"/><path class="cls-5" d="M56.65,145.19l-.21.35.2.35c2.79,4.88,13.17,10.36,21.37,11.27a39.14,39.14,0,0,0,4.3.24c10,0,19.11-4,28.43-12.5l.57-.52-.57-.51c-.72-.65-1.42-1.32-2.09-2a31.19,31.19,0,0,0-4.51-3.85,36.71,36.71,0,0,0-26.44-5.87C67.92,133.72,61,138,56.65,145.19Z"/><path class="cls-6" d="M19.35,117.2l-.44-.39-.45.37a32.46,32.46,0,0,0-6.72,7.55,82.77,82.77,0,0,0,20,22.51,37.68,37.68,0,0,0-2.54-16.06A36,36,0,0,0,19.35,117.2Z"/><path class="cls-7" d="M52.34,85l-.43-.36-.44.35a36.13,36.13,0,0,0-.84,53.82l.39.33.44-.27a25.88,25.88,0,0,0,9.24-10.19A34.81,34.81,0,0,0,64.42,115,38.88,38.88,0,0,0,62,98.62,32.58,32.58,0,0,0,52.34,85Z"/><path class="cls-8" d="M82.34,0A82.34,82.34,0,0,0,8.5,118.77a52.33,52.33,0,0,1,9.9-10.08,1.15,1.15,0,0,1,.69-.34,1.56,1.56,0,0,1,.75.3c5,3.15,8.38,6.21,10.89,9.93l1.51,2.25-.24-2.7c-1.6-17.33,4.66-31.36,19.11-42.88l13,11.86V85.53c0-.8,0-1.64,0-2.53,0-2-.07-4.27,0-6.47.42-7,2.77-13.86,7.21-20.89a45.81,45.81,0,0,1,11-11.73c.77-.6,1-.62,1.73-.14A45.61,45.61,0,0,1,96.78,57.09a42.18,42.18,0,0,1,4.9,11.72c.41-.71.84-1.41,1.29-2.09A44.87,44.87,0,0,1,119.6,51.26a47.07,47.07,0,0,1,22.17-5c1.49,0,3,.09,4.68.19l2.12.13c.07.72.16,1.47.25,2.24a48.5,48.5,0,0,1,.48,6.74,45.09,45.09,0,0,1-11,28.36,44.6,44.6,0,0,1-11.9,9.71c.81.19,1.61.4,2.39.64a37.21,37.21,0,0,1,15.35,9.32,44.58,44.58,0,0,1,5.38,7.06c.53.79,1.08,1.62,1.63,2.42a2.5,2.5,0,0,1-.4,1.11c-6.74,9.63-15.82,15.51-27,17.48a68.85,68.85,0,0,1-9.63.8c-1.38,0-2.67.1-3.92.18l-1.66.11,1.24,1.1c.41.36.87.76,1.36,1.17,1.27,1.09,2.71,2.33,4.06,3.69s2.45,2.69,3.7,4.17l1.34,1.59A45.89,45.89,0,0,1,102,160.42c-7,3.26-15.3,4.6-24.53,4l-3.2-.22.24.13c2.59.24,5.21.38,7.86.38A82.34,82.34,0,0,0,82.34,0Z"/><path class="cls-9" d="M46.83,156.64a47.4,47.4,0,0,1,10.31,0l2.18.24-1.64-1.45c-.54-.48-1.09-1-1.67-1.45-1.37-1.17-2.79-2.39-4.1-3.69a14.6,14.6,0,0,1-1.52-1.89,14.23,14.23,0,0,0-1.67-2.08c-2-2-4.13-4-6.15-5.81l-2.2-2-1-1L38.1,151.77A80.76,80.76,0,0,0,46.83,156.64Z"/><text class="cls-10" transform="translate(22.14 202.03)">GLUTEN-FREE</text></g></g></svg>