<svg xmlns="http://www.w3.org/2000/svg" xmlns:xlink="http://www.w3.org/1999/xlink" viewBox="0 0 243.89 251.8"><defs><style>.cls-1{fill:url(#linear-gradient);}.cls-2{fill:#315375;}.cls-3{fill:#231914;}.cls-4{fill:#a66148;}.cls-5{fill:#2a252e;}.cls-6{fill:#cc7758;}.cls-7{fill:#824c38;}.cls-8{fill:#122029;}.cls-9{fill:#ffc9b3;}.cls-10{fill:#5e3937;}.cls-11{fill:#b8827d;}.cls-12{fill:#b76c49;}.cls-13{fill:#57362e;}.cls-14{fill:#fff;}.cls-15{fill:#914d3d;}.cls-16{fill:#3c4e6e;}.cls-17{fill:#b8a38f;}.cls-18{fill:#f2a480;}.cls-19{fill:#e38666;}.cls-20{fill:#f9f9f9;}.cls-21{fill:#9991a1;}.cls-22{fill:#64596e;}.cls-23{fill:#8a5648;}.cls-24{fill:#f8ae29;}.cls-25{fill:#678b27;}.cls-26{fill:#947662;}</style><linearGradient id="linear-gradient" x1="121.94" x2="121.94" y2="243.89" gradientUnits="userSpaceOnUse"><stop offset="0" stop-color="#f8ae29"/><stop offset="1" stop-color="#678b27"/></linearGradient></defs><g id="Layer_2" data-name="Layer 2"><g id="Layer_1-2" data-name="Layer 1"><circle class="cls-1" cx="121.94" cy="121.94" r="121.94"/><path class="cls-2" d="M116.63,157.26a174.92,174.92,0,0,1,65-2.06L170,132.94s-20.28-4.16-20.75-4.13-21.37,5.33-21.37,5.33Q122.23,145.69,116.63,157.26Z"/><path class="cls-3" d="M148.4,68.14a7,7,0,0,0-5.12-.1c-1.29.57-1.42,1.19-3.42,3.08-2.79,2.64-3.92,2.2-4.57,3.76-1,2.41,1.2,4.6.25,5.54-1.31,1.28-6.29-2.18-7-1.08-.22.33-.14.89.3,1.7,1.55,2.9,1.33,4.44-1.4,4.11s-8.17,1.14-8.47,3.1,3.32,4,3,6.37-4.34,6.88,1,6.68,7.49-.52,7.28,2.77,6.78,5.7,10.58,5.53,9.17-4.67,14.84-3,10.83,2.62,12.59,1.13-1.32-3.78,2.14-5.47,4.86-.52,4.05-4.35-.81-2,1.55-7.07,2.35-7.49.81-7.8-4.2,3-5.75-1.38-2.64-7.68-5.23-7.24c-2.1.35-3.7,2.19-5.37,1.87a2.59,2.59,0,0,1-1.18-.61c-1.59-1.18-1.32-2.72-2.43-4.69a7.12,7.12,0,0,0-3.32-3.16A6.66,6.66,0,0,0,148.4,68.14Z"/><path class="cls-4" d="M169.86,156.71c-.31-1.45-.53-3.2.17-3.59,1-.58,3.62,2.11,4.89,3.68.84,1,4.9,6.08,3.7,11.71-.18.84-.71,3.31-2.32,3.78a3.16,3.16,0,0,1-2.42-.58c-2-1.12-2.94-3-4.47-6.21l-.11-.24v-5.53a5.24,5.24,0,0,0,.56-3Z"/><path class="cls-3" d="M177.13,159.73a0,0,0,0,0-.09,0,26.64,26.64,0,0,1,1.13,5.63,5,5,0,0,1-.78,3.73l-.11.12a3.83,3.83,0,0,1-4,.73c-1.62-.66-2.18-2.42-2.84-4.53a18.07,18.07,0,0,1-.79-6.37.06.06,0,0,0-.12,0,10.56,10.56,0,0,0-.65,2.33,13.47,13.47,0,0,0,.61,5.63c1.14,5.06-.86,5.75.45,8.76s4.73,5.58,7.25,4.91a4.43,4.43,0,0,0,2.51-2.28C182.94,172.83,178.57,162.77,177.13,159.73Z"/><path class="cls-3" d="M165.54,176.36l8.62-13.29c2-3.13,1.66-6.74-.31-8.57a5.69,5.69,0,0,0-4-1.33l-4.9.92-5.31,10.21Z"/><path class="cls-3" d="M167.3,136.1l-22.51-2a199.22,199.22,0,0,0-2.35,22.24c-.62,12.44.33,17,3.09,20.91,1,1.42,3.49,4.92,7.52,5.58,6.21,1,13.11-5.21,15.28-11.73,1.83-5.48-1.12-6.87-1.05-18.28,0-2.06.14-3.52.19-4.28A80,80,0,0,0,167.3,136.1Z"/><path class="cls-4" d="M127.19,170.65c.31-1.48.54-3.26-.17-3.66-1.06-.59-3.7,2.15-5,3.75-.85,1.06-5,6.19-3.76,11.93.18.85.72,3.36,2.36,3.85a3.25,3.25,0,0,0,2.47-.6c2.07-1.14,3-3,4.54-6.32l.12-.25v-5.62a4.89,4.89,0,0,1-.41-1A5.34,5.34,0,0,1,127.19,170.65Z"/><path class="cls-3" d="M119.79,173.72c0-.05.1,0,.08,0a28.28,28.28,0,0,0-1.15,5.73,5.07,5.07,0,0,0,.8,3.8l.11.12a3.87,3.87,0,0,0,4.05.75c1.65-.67,2.21-2.46,2.88-4.61a18.38,18.38,0,0,0,.81-6.48c0-.07.1-.1.12,0a10.46,10.46,0,0,1,.67,2.36,13.8,13.8,0,0,1-.63,5.74c-1.16,5.15.88,5.85-.45,8.92s-4.82,5.68-7.39,5a4.54,4.54,0,0,1-2.56-2.33C113.87,187.06,118.32,176.82,119.79,173.72Z"/><path class="cls-3" d="M129.18,166.17a7.64,7.64,0,0,0-3.17.3c-2.28.72-5.16,2.88-5.33,6.12a7,7,0,0,0,2.24,5.15c3,1.41,6.07,2.95,9.22,4.65q2.91,1.58,5.61,3.15-3.21-9.89-6.41-19.78Z"/><path class="cls-3" d="M151.75,135.79l-22,0a23,23,0,0,0-1.48,4.43c-1.38,6.26.67,9.81,2.05,19.67.23,1.64.66.29,1,10.24.17,4.42.08,9.64,3.68,13.4a9,9,0,0,0,4.86,2.8c4.2.72,7.85-2.56,9.43-4C155.53,176.77,156.23,158.54,151.75,135.79Z"/><path class="cls-5" d="M154.48,158.71a.16.16,0,0,1-.16-.14l-.71-10.15a.06.06,0,0,1,0,0l.71-3a.15.15,0,0,1,.18-.12.16.16,0,0,1,.12.19l-.71,3,.71,10.12a.15.15,0,0,1-.14.16Z"/><path class="cls-5" d="M132.43,170.67a.15.15,0,0,1-.15-.12l-1.09-4.76a.15.15,0,0,1,.3-.07l1.09,4.76a.15.15,0,0,1-.11.19Z"/><path class="cls-5" d="M167.58,159.09a.16.16,0,0,1-.16-.15l-.29-5.1a.16.16,0,0,1,.15-.16.14.14,0,0,1,.16.15l.29,5.09a.16.16,0,0,1-.14.17Z"/><path class="cls-5" d="M130.29,147.25a.15.15,0,0,1-.08-.29,13.87,13.87,0,0,0,3.44-2.62,14.18,14.18,0,0,0,1.61-2,.16.16,0,0,1,.21-.05.16.16,0,0,1,0,.22,14.67,14.67,0,0,1-1.63,2.05,14.21,14.21,0,0,1-3.52,2.68A.1.1,0,0,1,130.29,147.25Z"/><path class="cls-5" d="M164.43,144.91h0a7.21,7.21,0,0,1-2.38-1.28,6.73,6.73,0,0,1-1.09-1.11.15.15,0,0,1,0-.22.16.16,0,0,1,.22,0,7.44,7.44,0,0,0,1,1.06,7.09,7.09,0,0,0,2.28,1.23.15.15,0,0,1,.1.19A.15.15,0,0,1,164.43,144.91Z"/><path class="cls-5" d="M152.65,150.28h-1.33a.15.15,0,0,1-.15-.13l-.74-5.37a.16.16,0,0,1,.14-.18.16.16,0,0,1,.17.13l.72,5.24h1.19a.16.16,0,0,1,.15.16A.15.15,0,0,1,152.65,150.28Z"/><path class="cls-6" d="M162,97.11c-.46-2-9.16-3.92-9.71-4.45a3.33,3.33,0,0,1-.25-.28,2.42,2.42,0,0,1-.44-1.43V86.77l-7.5-.73a19.27,19.27,0,0,1,.34,5.88,2.47,2.47,0,0,1-.61,1.45,3.44,3.44,0,0,1-2.3.72,11.15,11.15,0,0,0-4.2,1.29,5.28,5.28,0,0,0-1.76,4.67c.6,4.73,8.54,6.71,8.95,6.81,5.84,1.39,12.35-.59,15.66-4.71C161,101.2,162.51,99.27,162,97.11Z"/><path class="cls-4" d="M148.85,91.5a4.11,4.11,0,0,1-2.5-1.56A5.74,5.74,0,0,1,145,87.28a.61.61,0,0,1-.12-.89.6.6,0,0,1,.86,0l5.85.43v3.91A3.81,3.81,0,0,1,148.85,91.5Z"/><path class="cls-6" d="M141.23,82.26a8.81,8.81,0,0,0,3,4.78,8.09,8.09,0,0,0,3.79,1.55,4.56,4.56,0,0,0,2.61-.44A4.5,4.5,0,0,0,152.14,87s2.74-2.76,3-8.26v-.13a9.94,9.94,0,0,0-.22-3.89,8.8,8.8,0,0,0-2.18-3.44,7.29,7.29,0,0,0-3.61-2,6.12,6.12,0,0,0-1.14-.13,7,7,0,0,0-1.38.09,7.17,7.17,0,0,0-5.05,3.45c-.62,1.14-.68,2.22-.75,4.26,0,.11,0,.22,0,.34A16.47,16.47,0,0,0,141.23,82.26Z"/><path class="cls-7" d="M148,79.61a3.57,3.57,0,0,0,.82-.62c.07-.21-.1-.48-.26-.74l-.1-.17a3.42,3.42,0,0,1-.43-1.42.18.18,0,0,1,.17-.16.2.2,0,0,1,.19.16,3.07,3.07,0,0,0,.38,1.24l.1.16a1.22,1.22,0,0,1,.27,1.08,3,3,0,0,1-.95.77.16.16,0,0,1-.09,0,.18.18,0,0,1-.1-.33Z"/><path class="cls-8" d="M145.33,77.25c0,.35.16.64.39.65s.43-.26.44-.61-.16-.64-.38-.65S145.35,76.9,145.33,77.25Z"/><path class="cls-8" d="M150.73,77.24c0,.35.15.64.38.65s.43-.27.44-.61-.15-.64-.38-.65S150.74,76.89,150.73,77.24Z"/><path class="cls-8" d="M152.54,75c-.1.09-.49-.47-1.45-.8s-1.41-.16-1.44-.32.74-.72,1.48-.58C152.16,73.52,152.69,74.9,152.54,75Z"/><path class="cls-8" d="M144,75a3.67,3.67,0,0,1,1.5-.93c.71-.15,1.22.11,1.27,0s-.5-.7-1.13-.7C144.55,73.36,143.88,74.94,144,75Z"/><path class="cls-3" d="M144.16,72.37c-2,1.69-2.49,5-2,6a5.32,5.32,0,0,1,.5,2h0a6.12,6.12,0,0,0,0,.72,13.42,13.42,0,0,1-.19,2,4,4,0,0,0,0,1.25,4.35,4.35,0,0,0,1.1,2.19,8.18,8.18,0,0,1-2.23-1.43,9.37,9.37,0,0,1-2.8-5.71,10.26,10.26,0,0,1,1.26-7.06,8.13,8.13,0,0,1,.87-1.13,9.17,9.17,0,0,0,2.59-1.56c.47-.4.59-.69,1.09-.9a8.36,8.36,0,0,1,2.44-.63c.92,0,3.16-.32,4,.13s2.37.81,2.73,1.14a11.76,11.76,0,0,1,1.82,1.59l.1.16a5.56,5.56,0,0,1,.55,1.5,17.67,17.67,0,0,1-.19,6.57,19.41,19.41,0,0,1-1.62,4.35,39.64,39.64,0,0,0-.29-5.4c-.44-3.52-.56-5.19-1.62-5.8a4.81,4.81,0,0,1-1.21-.85,4.38,4.38,0,0,1-.93-1.45c-.55.16-1.35.41-2.29.75A14.14,14.14,0,0,0,144.16,72.37Z"/><path class="cls-6" d="M153.89,78.52a1.83,1.83,0,0,1,1.43-.16,1.9,1.9,0,0,1,1.08,1.17,3.13,3.13,0,0,1-.25,2.54A2.35,2.35,0,0,1,155,83.3a2.17,2.17,0,0,1-1.23.12,6.35,6.35,0,0,0-.27-1.55c-.2-1.17-.37-1.29-.26-1.64s.51-.69.59-1.38A2.19,2.19,0,0,0,153.89,78.52Z"/><path class="cls-9" d="M167.3,136.1a22.13,22.13,0,0,0,.36-7.16c-.63-5.45-3.14-8.66-5.19-12.71a43.29,43.29,0,0,1-4.39-15.71,36.63,36.63,0,0,1-20.79,0c-.16,1.49-.31,2.86-.46,4.08-.34,2.83-.63,4.89-.69,5.35-.59,4.23.68,9-.74,13-.92,2.66-1.91,2-3.64,5.53a21,21,0,0,0-2,7.93,29.5,29.5,0,0,0,21,6.84A28.9,28.9,0,0,0,167.3,136.1Z"/><path class="cls-10" d="M148.09,136.81a.2.2,0,0,1-.11-.36,16,16,0,0,0,4.93-4.83,15.79,15.79,0,0,0,2.27-5.57.2.2,0,0,1,.23-.15.2.2,0,0,1,.15.23,16.29,16.29,0,0,1-7.37,10.65A.19.19,0,0,1,148.09,136.81Z"/><path class="cls-10" d="M150.67,133.9a.15.15,0,0,1-.09,0,.2.2,0,0,1-.09-.26,20.72,20.72,0,0,0,.92-2,24.14,24.14,0,0,0,1.48-5.24.18.18,0,0,1,.22-.16.19.19,0,0,1,.16.22,24.24,24.24,0,0,1-1.5,5.33c-.28.68-.59,1.35-.93,2A.19.19,0,0,1,150.67,133.9Z"/><path class="cls-11" d="M155.75,107.84h-.12c-1.74,0-2-.46-2.32-.87s-.48-.7-2-.81a2.58,2.58,0,0,0-2.61,1.07c-.35.45-.69.87-1.54.41a4.94,4.94,0,0,0-5.06-.19c-1.95,1.07-5-2.19-5.12-2.33a.17.17,0,0,1,0-.22.16.16,0,0,1,.22,0s3,3.22,4.74,2.27a5.19,5.19,0,0,1,5.35.19c.63.34.81.12,1.16-.33a2.85,2.85,0,0,1,2.87-1.19c1.64.12,1.94.56,2.21,1s.48.7,2.07.73c3.15.08,5.25-3.11,5.27-3.15a.15.15,0,0,1,.21,0,.16.16,0,0,1,0,.21C161.08,104.68,159,107.84,155.75,107.84Z"/><path class="cls-12" d="M151.5,91.06c1.43,7,2.09,9.84,2.41,10.82,0,.05.08.25.16.53.2.65.51,1.74.8,3.1,0,.22.17.8.37,2,.27,1.65.36,2.7.61,4.13.69,3.87,1.88,6.64,4.24,12,3.78,8.65,4.79,10.11,5.35,11.81a11.28,11.28,0,0,1,.31,1.17c.63,2.63,1.6,7.89,2.21,11.26a3.33,3.33,0,0,0,2.41,2.63,47.47,47.47,0,0,1,11.22,4.65q-1.84-6.39-4.08-13.07c-.69-2-1.38-4-2.09-6a2.83,2.83,0,0,0,0-.45,4.26,4.26,0,0,0-.51-2,5.19,5.19,0,0,0-.7-1,55,55,0,0,1-3-6.05A58.41,58.41,0,0,1,167.13,98l-9.77-8.3a11.36,11.36,0,0,1-2.89,1.91,10.64,10.64,0,0,1-1.49.55l-.46-.54Z"/><path class="cls-12" d="M162.59,68.14a112,112,0,0,1-4.69,20c-.85,2.53-1.75,4.92-2.69,7.19l10.38,15.1a162.49,162.49,0,0,0,6.13-25.81c.74-4.8,1.22-9.38,1.51-13.69a10.86,10.86,0,0,0-10.64-2.81Z"/><path class="cls-7" d="M154.47,82.93h.05a1.81,1.81,0,0,0,.82-.54,2,2,0,0,0,.33-.57.15.15,0,0,0-.09-.19.16.16,0,0,0-.2.09,1.47,1.47,0,0,1-.27.47,1.58,1.58,0,0,1-.41.34,1.71,1.71,0,0,0-.09-1.11,1.45,1.45,0,0,0-.28-.41.65.65,0,0,1-.2-.28,1.49,1.49,0,0,1,.18-1.18.73.73,0,0,1,.5-.37c.36,0,.78.35,1,.89a.15.15,0,0,0,.2.08.14.14,0,0,0,.08-.19,1.45,1.45,0,0,0-1.3-1.08,1,1,0,0,0-.72.51,1.77,1.77,0,0,0-.21,1.45,1,1,0,0,0,.26.38,1.2,1.2,0,0,1,.23.32,1.65,1.65,0,0,1,0,1.2.16.16,0,0,0,0,.16A.14.14,0,0,0,154.47,82.93Z"/><path class="cls-6" d="M142.55,78.52a1.82,1.82,0,0,0-1.43-.16,1.88,1.88,0,0,0-1.07,1.17,3,3,0,0,0,.25,2.54,2.31,2.31,0,0,0,1.11,1.23,2.14,2.14,0,0,0,1.22.12,6.88,6.88,0,0,1,.27-1.55c.2-1.17.38-1.29.26-1.64s-.5-.69-.59-1.38A2.19,2.19,0,0,1,142.55,78.52Z"/><path class="cls-7" d="M142,82.93h-.05a1.86,1.86,0,0,1-.82-.54,1.78,1.78,0,0,1-.32-.57.15.15,0,0,1,.09-.19.14.14,0,0,1,.19.09,1.69,1.69,0,0,0,.27.47,1.76,1.76,0,0,0,.41.34,1.86,1.86,0,0,1,.09-1.11,1.45,1.45,0,0,1,.29-.41.63.63,0,0,0,.19-.28,1.45,1.45,0,0,0-.18-1.18.73.73,0,0,0-.5-.37c-.35,0-.78.35-1,.89a.14.14,0,0,1-.19.08.14.14,0,0,1-.09-.19,1.45,1.45,0,0,1,1.3-1.08,1,1,0,0,1,.73.51,1.81,1.81,0,0,1,.21,1.45,1.15,1.15,0,0,1-.26.38,1.2,1.2,0,0,0-.23.32,1.65,1.65,0,0,0,0,1.2.15.15,0,0,1,0,.16A.15.15,0,0,1,142,82.93Z"/><path class="cls-12" d="M134,77.21l-4.56-10.76a7.72,7.72,0,0,0-4.12-.59,7.88,7.88,0,0,0-4.83,2.69A70.18,70.18,0,0,0,131.17,106l10.89-11.9Q138,85.64,134,77.21Z"/><path class="cls-13" d="M151.35,82.11v0a3,3,0,0,1-.5,1.57,2.91,2.91,0,0,1-.91.87,3,3,0,0,1-3.21-.12,2.86,2.86,0,0,1-.71-.72,2.89,2.89,0,0,1-.54-1.47.24.24,0,0,1,0-.12.76.76,0,0,1,.11-.33.65.65,0,0,1,.4-.28,11.25,11.25,0,0,1,2.31-.29,12.19,12.19,0,0,1,2.51.21.69.69,0,0,1,.45.33A.62.62,0,0,1,151.35,82.11Z"/><path class="cls-14" d="M151.35,82.11v0c-1-.08-2.08-.12-3.22-.11-.93,0-1.82,0-2.65.12a.76.76,0,0,1,.11-.33.65.65,0,0,1,.4-.28,11.25,11.25,0,0,1,2.31-.29,12.19,12.19,0,0,1,2.51.21.69.69,0,0,1,.45.33A.62.62,0,0,1,151.35,82.11Z"/><path class="cls-15" d="M150.85,83.71a2.91,2.91,0,0,1-.91.87,3,3,0,0,1-3.21-.12,2.86,2.86,0,0,1-.71-.72,1.87,1.87,0,0,1,1.1-.37c.45,0,.57.22,1,.24s.69-.23,1.19-.3A2.14,2.14,0,0,1,150.85,83.71Z"/><path class="cls-12" d="M144.62,91.22a1.29,1.29,0,0,1,.21,1.1c-2.05,13.6-3.89,18.32-3.89,18.32s-5.89,15-6.34,20.55c0,.53-.07.91-.11,1.29q-.3,2.66-.72,5.44c-.64,4.15-1.42,8.06-2.31,11.72a3.14,3.14,0,0,1-1.89,2.18c-1.89.76-3.79,1.54-5.72,2.35-2.45,1-4.86,2.06-7.22,3.09A142.17,142.17,0,0,1,120,139.88c.41-1.59.84-3.15,1.28-4.67a4,4,0,0,1,0-1.74,4,4,0,0,1,1-1.89,44.62,44.62,0,0,0,2.89-5.84,49.22,49.22,0,0,0,2.43-7.88,107,107,0,0,0,2.36-14.62l10.29-13.1a4.67,4.67,0,0,0,3,1C143.69,91,144.28,90.89,144.62,91.22Z"/><path class="cls-16" d="M135.12,127.62a.15.15,0,0,1-.15-.15l-.81-18.74a.12.12,0,0,1,.05-.12l8.61-7.73a.15.15,0,0,1,.22,0,.16.16,0,0,1,0,.22l-8.56,7.68.81,18.67a.17.17,0,0,1-.15.16Z"/><path class="cls-16" d="M161.19,126.4h0a.15.15,0,0,1-.15-.16l.58-16.57-7.73-7.82a.16.16,0,0,1,.22-.22l7.78,7.87a.16.16,0,0,1,.05.11l-.59,16.64A.16.16,0,0,1,161.19,126.4Z"/><path class="cls-16" d="M140.59,103.24a.16.16,0,0,1-.15-.12l-2-8a.14.14,0,0,1,.06-.16l5.92-4a.16.16,0,0,1,.22,0,.17.17,0,0,1,0,.22l-5.82,3.91,1.94,7.92a.15.15,0,0,1-.11.19Z"/><path class="cls-16" d="M156.58,104.46h0a.15.15,0,0,1-.12-.18l1.63-6.89-6.56-6.32a.16.16,0,0,1,.22-.22l6.62,6.38a.15.15,0,0,1,0,.14l-1.65,7A.15.15,0,0,1,156.58,104.46Z"/><path class="cls-16" d="M134.31,100.68a.15.15,0,0,1-.14-.09l-4.6-9.74a.17.17,0,0,1,.08-.21.15.15,0,0,1,.2.07l4.6,9.75a.15.15,0,0,1-.07.2Z"/><path class="cls-16" d="M132,98.64a.15.15,0,0,1-.12,0l-2.84-3.46a.16.16,0,0,1,0-.22.16.16,0,0,1,.21,0l2.84,3.46a.15.15,0,0,1,0,.22A.17.17,0,0,1,132,98.64Z"/><path class="cls-16" d="M163.36,102.68a.15.15,0,0,1-.15-.15c-.11-2-.15-4-.11-5.92a76.93,76.93,0,0,1,1.11-11.52.15.15,0,0,1,.3.06,77.45,77.45,0,0,0-1.1,11.46c0,2,0,3.94.11,5.9a.15.15,0,0,1-.15.16Z"/><path class="cls-16" d="M163.36,98.9h-.05a.16.16,0,0,1-.09-.2l2.54-6.52a.16.16,0,0,1,.29.11l-2.54,6.52A.15.15,0,0,1,163.36,98.9Z"/><path class="cls-16" d="M174.14,135.82h0l-4-.43a1.74,1.74,0,0,1-1.52-1.42l-.41-2.29a.19.19,0,0,1,0-.14.15.15,0,0,1,.13,0l5.75,1a.15.15,0,0,1-.06.3l-5.52-1,.36,2.07a1.42,1.42,0,0,0,1.25,1.17l4,.43a.15.15,0,0,1,.14.17A.15.15,0,0,1,174.14,135.82Z"/><path class="cls-16" d="M127,135.4h-5.44a.16.16,0,0,1-.16-.16.15.15,0,0,1,.16-.15H127a1,1,0,0,0,1-1v-2.43l-4.87.23a.16.16,0,0,1-.16-.15.15.15,0,0,1,.15-.16l5-.24a.15.15,0,0,1,.11,0,.16.16,0,0,1,.05.11v2.6A1.29,1.29,0,0,1,127,135.4Z"/><path class="cls-2" d="M129.17,66.84c-.22.12-.46.26-.74.39a13.3,13.3,0,0,1-3.29,1.15,13.88,13.88,0,0,1-3.19.31l-.68,0a5.91,5.91,0,0,1,.6-.52,7.79,7.79,0,0,1,6.38-1.54A7.71,7.71,0,0,1,129.17,66.84Z"/><path class="cls-6" d="M128.43,67.23a13.3,13.3,0,0,1-3.29,1.15,13.88,13.88,0,0,1-3.19.31c0-.18,0-.36-.08-.55-.76-5.51-2.14-15-2.69-15.18a2.76,2.76,0,0,0-.41-.1,6.36,6.36,0,0,0-1,0,6.67,6.67,0,0,1-1.08-.07c-2-.25-2.15-.86-4.51-1.55s-4.22-.63-4.27-1.15a.4.4,0,0,1,.17-.32,1.37,1.37,0,0,1,.3-.22l-.29,0h0a6.06,6.06,0,0,1-.68-.11c-.44-.1-.52-.16-.55-.24s0-.36.22-.57l.14-.13-.19,0c-.59.06-1-.06-1.1-.29s.15-.48.27-.62a1.66,1.66,0,0,1,.85-.55,2.06,2.06,0,0,1,.41-.09H107c-.39,0-.76-.09-.82-.28-.11-.36.86-1,1.46-1.31,2.42-1.26,5.39-.69,6.94-.39,1.12.21,2.29.17,3.41.39a2.47,2.47,0,0,0,1.14.08,1,1,0,0,0,.32-.16c.34-.3.33-.83.37-1.43.12-1.6-.1-1.88.2-2.36a1.81,1.81,0,0,1,1.42-.69.27.27,0,0,1,.18,0h0a.25.25,0,0,1,.09.29,4.69,4.69,0,0,0-.2,1.56c0,.21.15.72.4,1.72,0,0,.44,1.71.59,2.5,0,.2.07.4.07.4s0,.25,0,.34,0,.23,0,.24c0,1.17,3.75,12.34,5.58,18.72Q128.35,66.93,128.43,67.23Z"/><path class="cls-7" d="M118.4,48.44a.2.2,0,0,1-.18-.14,2.38,2.38,0,0,1,.06-1.72,2.68,2.68,0,0,1,.45-.61,3.29,3.29,0,0,0,.59-.79,3.54,3.54,0,0,0,.32-.79,3.23,3.23,0,0,0,0-1.4,2,2,0,0,1,0-1,2.46,2.46,0,0,1,1.7-1.34.18.18,0,0,1,.23.12.17.17,0,0,1-.11.23,2.18,2.18,0,0,0-1.47,1.11,1.7,1.7,0,0,0,0,.87,3.63,3.63,0,0,1-.06,1.55,4.17,4.17,0,0,1-.35.86,3.9,3.9,0,0,1-.64.87,1.78,1.78,0,0,0-.39.52,2.05,2.05,0,0,0,0,1.46.19.19,0,0,1-.13.23Z"/><path class="cls-7" d="M107.23,47.17a.18.18,0,0,1-.17-.1.19.19,0,0,1,.08-.25,8,8,0,0,1,5-.79.19.19,0,0,1,.15.22.18.18,0,0,1-.21.15,7.65,7.65,0,0,0-4.76.75A.13.13,0,0,1,107.23,47.17Z"/><path class="cls-7" d="M107.21,48.66a.17.17,0,0,1-.17-.13.19.19,0,0,1,.12-.24,14.23,14.23,0,0,1,2.73-.56,14.06,14.06,0,0,1,2.9,0,.18.18,0,0,1,.16.2.19.19,0,0,1-.21.17,13.2,13.2,0,0,0-2.81,0,13.37,13.37,0,0,0-2.66.55Z"/><path class="cls-7" d="M108.23,49.83a.18.18,0,0,1-.18-.16.18.18,0,0,1,.15-.21,20.37,20.37,0,0,1,2-.22,20,20,0,0,1,3,0,.18.18,0,0,1,.16.2.17.17,0,0,1-.2.17,20.47,20.47,0,0,0-2.93,0,19.49,19.49,0,0,0-2,.22Z"/><path class="cls-7" d="M114.58,49.83a.19.19,0,0,1-.18-.13l-.66-2a.19.19,0,0,1,.35-.12l.66,2a.19.19,0,0,1-.11.24Z"/><path class="cls-2" d="M172.54,70.9a7,7,0,0,1-1.56.28,8,8,0,0,1-2.6-.32,13.29,13.29,0,0,1-4.29-1.81c-.28-.18-.52-.35-.73-.5l.88-.07a14.57,14.57,0,0,1,4.26.4,8.27,8.27,0,0,1,2.69,1A6.79,6.79,0,0,1,172.54,70.9Z"/><path class="cls-6" d="M184.62,44.87l.14.1c.21.16.34.34.3.48s-.08.15-.46.31A4.55,4.55,0,0,1,184,46l-.26.07a2.12,2.12,0,0,1,.31.14.38.38,0,0,1,.2.26c0,.49-1.59.73-3.69,1.78s-2.1,1.61-3.85,2.17a7.14,7.14,0,0,1-1.37.31,1.94,1.94,0,0,0-.49.11,2.4,2.4,0,0,0-.36.16c-.33.19-2.26,12.26-3.29,18.85q-.12.72-.21,1.35a8,8,0,0,1-2.6-.32,13.29,13.29,0,0,1-4.29-1.81l.15-.57q2.4-9.53,5.48-19.28c.23-.76.48-1.51.72-2.26,0,0,0-.09,0-.22s0-.19,0-.31,0-.19,0-.38c0-.74.12-2.37.12-2.37a13.73,13.73,0,0,0,.07-1.64,4,4,0,0,0-.45-1.39.24.24,0,0,1,0-.28.39.39,0,0,1,.16-.07,1.69,1.69,0,0,1,1.41.4c.35.38.2.67.58,2.11.14.54.22,1,.58,1.24a.8.8,0,0,0,.31.09h0a2.38,2.38,0,0,0,1-.26c1-.4,2-.55,3-.94,1.36-.53,4-1.55,6.39-.81.59.19,1.59.6,1.55,1,0,.18-.36.31-.71.4l-.37.07a1.68,1.68,0,0,1,.38,0h0c.33,0,.74.09.86.36s-.23.89-.6,1A.48.48,0,0,1,184.62,44.87Z"/><path class="cls-7" d="M174.42,46.73a.17.17,0,0,0,.14-.15,2.2,2.2,0,0,0-.34-1.56,1.94,1.94,0,0,0-.52-.48,3.58,3.58,0,0,1-.67-.62,4.3,4.3,0,0,1-.42-.66,3,3,0,0,1-.28-1.27,1.91,1.91,0,0,0-.21-1,2.27,2.27,0,0,0-1.77-.93.18.18,0,0,0-.19.15.17.17,0,0,0,.15.19,2,2,0,0,1,1.52.77A1.75,1.75,0,0,1,172,42a3.16,3.16,0,0,0,.31,1.41,4.56,4.56,0,0,0,.46.72,3.32,3.32,0,0,0,.74.68,2.14,2.14,0,0,1,.44.41,1.88,1.88,0,0,1,.28,1.32.17.17,0,0,0,.15.19Z"/><path class="cls-7" d="M184.39,43.7a.2.2,0,0,0,.13-.12.17.17,0,0,0-.11-.22,7.46,7.46,0,0,0-2.29-.32,7.22,7.22,0,0,0-2.39.44.17.17,0,1,0,.11.33,7.14,7.14,0,0,1,2.28-.43,7,7,0,0,1,2.18.31Z"/><path class="cls-7" d="M184.65,45a.17.17,0,0,0,.14-.14.18.18,0,0,0-.15-.2,12.52,12.52,0,0,0-5.22.46.18.18,0,0,0-.11.22.16.16,0,0,0,.21.11,12.32,12.32,0,0,1,2.56-.49,11.8,11.8,0,0,1,2.52,0Z"/><path class="cls-7" d="M183.92,46.28a.17.17,0,0,0,0-.34c-.63,0-1.27.06-1.9.14a19.27,19.27,0,0,0-2.72.55.17.17,0,0,0-.12.21.17.17,0,0,0,.21.12,18.82,18.82,0,0,1,2.67-.53,16.81,16.81,0,0,1,1.87-.14Z"/><path class="cls-7" d="M178.14,47.35a.17.17,0,0,0,.14-.14l.27-1.93a.18.18,0,0,0-.15-.19.16.16,0,0,0-.19.15l-.27,1.92a.16.16,0,0,0,.14.19Z"/><path class="cls-17" d="M58.45,154.9a107.47,107.47,0,0,0,24.38,0,108,108,0,0,0,30.71-8.17l-12.63-14.26L64.16,144.76Z"/><path class="cls-3" d="M103.71,182.3a.53.53,0,0,0-.67-.43,10.19,10.19,0,0,1-3.08.45,10.67,10.67,0,0,1-3.29-.55.56.56,0,0,0-.73.43c-.07.39-.15.84-.26,1.33a29.56,29.56,0,0,1-2,6.43c-1.29,2.75-2,2.34-3.11,5.06a11.32,11.32,0,0,0-.93,5.32c.11,1.46.21,2.84,1.08,3.78,1.5,1.62,7,1.9,9.86-1.05s1.9-7.92,3.31-13a9.08,9.08,0,0,0,.35-1.89,15.61,15.61,0,0,0-.27-3.73C103.94,183.85,103.84,183.13,103.71,182.3Z"/><path class="cls-12" d="M101.77,130.54c1.1,1.82,15.8,26.59,12.5,37.8-.72,2.43-1.83,5.27-1.83,5.27a70.89,70.89,0,0,1-6.63,12.82,6.92,6.92,0,0,1-7,1.13,7,7,0,0,1-3.75-4,15,15,0,0,0,1.81-6.35c.09-1.94-.24-3.87.63-6.57a12.64,12.64,0,0,1,.77-1.88c-1-1.51-2.49-3.81-4.26-6.63-6.93-11-8.09-14.1-8.5-15.24a39.74,39.74,0,0,1-2.27-11.51Z"/><path class="cls-18" d="M74.88,227.78l1.27,7.93-7.75-.24q.22-4.71.47-9.42Z"/><path class="cls-3" d="M68,231.44a.56.56,0,0,1,.69-.39,11.14,11.14,0,0,0,3.06.34,11.72,11.72,0,0,0,3.29-.55.55.55,0,0,1,.72.38c.06.34.14.74.23,1.18a23.5,23.5,0,0,0,1.84,5.69c1.23,2.43,1.92,2,3,4.46a8.89,8.89,0,0,1,.84,4.72c-.13,1.3-.25,2.54-1.14,3.39-1.53,1.47-7,1.82-9.81-.76s-1.76-7-3.08-11.56a7.68,7.68,0,0,1-.32-1.67,12.88,12.88,0,0,1,.34-3.33C67.76,232.82,67.87,232.18,68,231.44Z"/><path class="cls-12" d="M94.21,128.45Q86,154.91,77.72,181.35l-.81,45.45a10.14,10.14,0,0,1-6,2.79,9.93,9.93,0,0,1-5.32-1,152.54,152.54,0,0,1-6-49.18c0-1.2,0-2.12.13-2.69q4.71-26,9.41-52.08Z"/><path class="cls-16" d="M86.68,146.2a.16.16,0,0,1-.15-.09,20.93,20.93,0,0,0-1.07-2.41,32.61,32.61,0,0,1-1.14-4.58.14.14,0,0,1,.12-.18.15.15,0,0,1,.18.12,40.47,40.47,0,0,0,1.07,4.44A19.7,19.7,0,0,1,86.82,146a.16.16,0,0,1-.09.2Z"/><path class="cls-16" d="M86.68,148.41a.16.16,0,0,1-.16-.15v-5.69a.16.16,0,0,1,.16-.16.16.16,0,0,1,.15.16v5.69A.15.15,0,0,1,86.68,148.41Z"/><path class="cls-16" d="M101.25,186.66a5.47,5.47,0,0,1-1.55-.21,6.31,6.31,0,0,1-3.86-3.23.15.15,0,0,1,.07-.21.14.14,0,0,1,.2.07,6.09,6.09,0,0,0,3.67,3.08,6,6,0,0,0,6-1.84.17.17,0,0,1,.22,0,.16.16,0,0,1,0,.22A6.42,6.42,0,0,1,101.25,186.66Z"/><path class="cls-16" d="M70,224.65a4.35,4.35,0,0,1-.51,0,6.81,6.81,0,0,1-3.61-1.4.15.15,0,1,1,.18-.24,6.63,6.63,0,0,0,3.46,1.34,7,7,0,0,0,5.4-2.17.16.16,0,1,1,.22.22A7.42,7.42,0,0,1,70,224.65Z"/><path class="cls-16" d="M71.86,183.34h0a12.29,12.29,0,0,1-7.61-4.18.17.17,0,0,1,0-.22.17.17,0,0,1,.22,0,11.61,11.61,0,0,0,3.2,2.64A11.93,11.93,0,0,0,71.88,183a.16.16,0,0,1,.13.18A.15.15,0,0,1,71.86,183.34Z"/><path class="cls-16" d="M108,169.64a4.78,4.78,0,0,1-.82-.07,5.24,5.24,0,0,1-3.42-2.36.16.16,0,0,1,0-.21.15.15,0,0,1,.21.05,5,5,0,0,0,3.21,2.21,4.57,4.57,0,0,0,2.71-.36.16.16,0,1,1,.13.29A5.09,5.09,0,0,1,108,169.64Z"/><path class="cls-16" d="M69.2,143.5a.15.15,0,0,1-.14-.11.14.14,0,0,1,.09-.19,7,7,0,0,0,4.47-5.34.15.15,0,0,1,.3.06,7.25,7.25,0,0,1-4.66,5.57Z"/><path class="cls-16" d="M103.47,141.55a7.79,7.79,0,0,1-5.65-2.4.16.16,0,0,1,0-.22.15.15,0,0,1,.22,0,7.37,7.37,0,0,0,2.6,1.75,7.67,7.67,0,0,0,4.55.36.16.16,0,0,1,.18.12.15.15,0,0,1-.12.19A8.22,8.22,0,0,1,103.47,141.55Z"/><path class="cls-18" d="M79.75,89.05l13.94,1a15.79,15.79,0,0,1-2.52-4,14.21,14.21,0,0,1-1.12-4,14.51,14.51,0,0,1,.08-4.18,10,10,0,0,1-1.17.33,11.63,11.63,0,0,1-6.23-.36l-.64-.22a13.25,13.25,0,0,1-2.34,11.37Z"/><path class="cls-19" d="M82.73,77.9a8.62,8.62,0,0,0,1.39,4.41,9.25,9.25,0,0,0,7,3.81,14.21,14.21,0,0,1-1.12-4,14.51,14.51,0,0,1,.08-4.18,10,10,0,0,1-1.17.33A11.63,11.63,0,0,1,82.73,77.9Z"/><path class="cls-20" d="M102.8,132.15a5,5,0,0,0,.79-2.5c0-.43,0-.83,0-1.19s0-.38,0-.4c0-.19,0-.85.06-1.88,0-.25,0-.53,0-.82.09-1.8.21-4.34.28-7.27,0-.25,0-.51,0-.77.13-6.24,0-14-1.09-19.74,0-.23-.09-.46-.14-.68,0,0,0-.05,0-.07a35.35,35.35,0,0,0-2.63-7.73c-.11-.23-.22-.46-.35-.7a36.8,36.8,0,0,0-2.06-3.67,9.15,9.15,0,0,1-1.83.51,8.57,8.57,0,0,1-2.22.14,8.25,8.25,0,0,1-3.06-.85,5,5,0,0,1-4,2.51,4.78,4.78,0,0,1-4.49-2.9c-2.25.71-4.62,1.37-7.09,2-.9.22-1.79.43-2.67.62h0l-.55.13c0,.51,0,1-.05,1.49l0,.78c-.09,2.34-.17,4.56-.26,6.64l0,.78c0,.36,0,.72,0,1.08-.05,1.38-.11,2.72-.16,4l0,.72,0,.49v.3c0,.59,0,1.16-.08,1.72q-.12,2.67-.24,5c0,.27,0,.54,0,.8,0,.44,0,.87-.07,1.28l-.3,5.13c0,.08,0,.16,0,.24,0,.26,0,.51,0,.76v0c-.18,2.75-.36,4.91-.52,6.57,0,.28,0,.54-.08.79s0,.34,0,.5,0,.28,0,.33a19.25,19.25,0,0,1-1,4.16A57.73,57.73,0,0,0,90.56,134,56.42,56.42,0,0,0,102.8,132.15Z"/><path class="cls-8" d="M98.39,135.78A113.06,113.06,0,0,1,86,136.1,114.75,114.75,0,0,1,73.52,135c0-.93,0-1.86.08-2.79,3.93.47,8.26.81,12.94.94,4.29.11,8.28,0,11.93-.21Z"/><rect class="cls-21" x="83.06" y="132.95" width="5.57" height="3.37" rx="0.37" transform="translate(4.02 -2.48) rotate(1.69)"/><path class="cls-22" d="M71.74,88.37l0,.78a61.21,61.21,0,0,0,11,1.55c1.28.06,2.56.09,3.85.08a61.77,61.77,0,0,0,13.52-1.68c-.11-.23-.22-.46-.35-.7A61.63,61.63,0,0,1,86.56,90,61.12,61.12,0,0,1,71.74,88.37Z"/><path class="cls-22" d="M71.45,95.79l0,.78A91.47,91.47,0,0,0,85.5,98.38l1.22.05a90.92,90.92,0,0,0,16.15-.85c0-.23-.09-.46-.14-.68,0,0,0-.05,0-.07a90.79,90.79,0,0,1-16,.84A90.62,90.62,0,0,1,71.45,95.79Z"/><path class="cls-22" d="M71.17,102.36c0,.17,0,.33,0,.49v.3a49.33,49.33,0,0,0,12.4,2.23c1.07.05,2.14.07,3.21.05a49.76,49.76,0,0,0,16.18-3,.38.38,0,0,0-.25-.72,48.93,48.93,0,0,1-31.51.6Z"/><path class="cls-22" d="M70.77,110.65a49.72,49.72,0,0,0,13.31,2.52c1.07,0,2.14.07,3.22,0a49.76,49.76,0,0,0,16.18-3,.38.38,0,1,0-.26-.72,48.88,48.88,0,0,1-32.4.3C70.8,110.12,70.79,110.39,70.77,110.65Z"/><path class="cls-22" d="M70.34,118.06v0A50.13,50.13,0,0,0,84.63,121c1.07.05,2.14.07,3.21.05a49.52,49.52,0,0,0,16.1-2.92l.09,0a.38.38,0,0,0,.23-.49.4.4,0,0,0-.3-.25.41.41,0,0,0-.19,0,48.92,48.92,0,0,1-33.38,0C70.37,117.56,70.36,117.81,70.34,118.06Z"/><path class="cls-22" d="M69.74,125.46a49.87,49.87,0,0,0,15.44,3.29c1.07.05,2.14.07,3.21.05a49.42,49.42,0,0,0,15.23-2.62c0-.25,0-.53,0-.82a48.92,48.92,0,0,1-33.84-.69C69.8,125,69.77,125.21,69.74,125.46Z"/><path class="cls-18" d="M93.75,71a1.42,1.42,0,0,1,1.43-.6c.32.12.44.46.55.76a2.74,2.74,0,0,1-.14,2.08,3.07,3.07,0,0,1-1.18,1.2c-2,1.24-2.32.83-2.32.83Z"/><path class="cls-23" d="M93.5,74.4a.23.23,0,0,0,.11,0c.35-.22.51-.45.5-.69a.54.54,0,0,0-.16-.33.18.18,0,0,1,0-.07c-.13-.2,0-.76.36-1.21s.42-.41.46-.4.14.06.19.77a.17.17,0,0,0,.18.15.16.16,0,0,0,.16-.18c0-.67-.19-1-.45-1.07s-.65.3-.81.53c-.36.49-.63,1.2-.38,1.6l.08.1a.32.32,0,0,1,.08.13c0,.1-.12.24-.35.39a.16.16,0,0,0,0,.23A.16.16,0,0,0,93.5,74.4Z"/><path class="cls-18" d="M79.91,70.24a1.4,1.4,0,0,0-1.36-.73c-.34.09-.49.41-.64.7a2.78,2.78,0,0,0-.06,2.08A3.16,3.16,0,0,0,78.9,73.6c1.83,1.42,2.23,1.06,2.23,1.06Z"/><path class="cls-23" d="M79.67,73.57a.14.14,0,0,0,.14-.06.17.17,0,0,0,0-.24c-.21-.17-.32-.32-.3-.42s0-.06.08-.12a.28.28,0,0,0,.09-.1c.29-.37.1-1.1-.21-1.63-.14-.24-.43-.65-.76-.6s-.44.36-.55,1a.17.17,0,0,0,.13.2.17.17,0,0,0,.2-.14c.12-.7.27-.74.27-.74s.21.09.41.44.4,1,.25,1.25l-.06.06a.48.48,0,0,0-.19.31c0,.24.1.48.43.74A.17.17,0,0,0,79.67,73.57Z"/><path class="cls-18" d="M80.31,62.47a7.76,7.76,0,0,1,6.87-3.79c4,.26,6.46,4.09,7,6.66a10.27,10.27,0,0,1,.07,3.36,17.64,17.64,0,0,1-2.1,6.81,12.57,12.57,0,0,1-1.22,2.39,6.46,6.46,0,0,1-2.55,2.65,4.74,4.74,0,0,1-2.55.5,4.57,4.57,0,0,1-1.9-.61A6.63,6.63,0,0,1,81.77,78l-.06-.1A41.17,41.17,0,0,1,80,72.54c-.36-3.66-.75-3.6-.75-5.33A9,9,0,0,1,80.31,62.47Z"/><path class="cls-24" d="M93.93,70.74l-.48-.24a13.9,13.9,0,0,1-1,2c-.83,1.33-1.26,1.48-1.51,1.53a1.5,1.5,0,0,1-.92-.21,12.83,12.83,0,0,0-3.44-1c-2-.32-2.68,1.08-4,.68-.72-.22-1.66-1-2.31-3.54l-.81.43c.07,1.53.16,2.82.23,3.8a11.48,11.48,0,0,0,.39,3,20.55,20.55,0,0,1,1,2.61A.09.09,0,0,0,81,80c.49.89,2,3.3,3.91,3.56.32,0,.89,0,2,0a5.71,5.71,0,0,0,2-.16,3.26,3.26,0,0,0,1.46-.94c.71-.83.65-1.52,1.21-2.93.46-1.14.56-.83,1-2a35.17,35.17,0,0,0,1-5.18C93.74,72,93.82,71.46,93.93,70.74ZM90.1,75.52a3.83,3.83,0,0,1-7.31-.27.3.3,0,0,1,.17-.37,7.85,7.85,0,0,1,3.49-.57,16.33,16.33,0,0,1,3.46.82A.31.31,0,0,1,90.1,75.52Z"/><path class="cls-24" d="M91.71,66.63c.19.42.14,1-.08,1.08S91,66.88,90,66.59c-.81-.24-1.48.14-1.72-.22a.52.52,0,0,1,0-.5C88.71,65.22,91.18,65.44,91.71,66.63Z"/><path class="cls-24" d="M82,65.93c-.23.41-.24,1,0,1.09s.7-.76,1.7-1c.83-.16,1.46.29,1.73,0a.5.5,0,0,0,0-.5C85.16,64.83,82.68,64.8,82,65.93Z"/><path class="cls-23" d="M86.45,71.58a3.36,3.36,0,0,0,.8-.55c.09-.21-.06-.47-.2-.73L87,70.14a3.5,3.5,0,0,1-.36-1.58.18.18,0,0,1,.17-.17.18.18,0,0,1,.18.18A3.21,3.21,0,0,0,87.26,70l.09.15a1.18,1.18,0,0,1,.21,1.05,3,3,0,0,1-.94.69.19.19,0,0,1-.1,0,.22.22,0,0,1-.14-.09A.16.16,0,0,1,86.45,71.58Z"/><path class="cls-24" d="M77.52,59.61s.62-.1,1.54-.29c.74-.15,1.64-.35,2.53-.56a8.91,8.91,0,0,1,.86-.52A9.92,9.92,0,0,1,86.9,57a8.75,8.75,0,0,0-1.71-.05A9.12,9.12,0,0,0,81.43,58a.16.16,0,0,1-.22-.07.17.17,0,0,1,.06-.23,9.23,9.23,0,0,1,7.79-.6,7.44,7.44,0,0,1,4.07,2.17,7,7,0,0,1,1.36,2.15,4,4,0,0,0-.07-.92,4.44,4.44,0,0,0-1.12-2.17.17.17,0,1,1,.24-.23,4.74,4.74,0,0,1,1.2,2.33,4.69,4.69,0,0,1,.06,1.4l1,0,.07,0,.51.21a.18.18,0,0,1,.09.22.19.19,0,0,1-.17.1h0l-.47-.2-1,0,0,.07a1.83,1.83,0,0,0,.06.19,2.77,2.77,0,0,0,.76,1.07c.69.66-.24,3.13-.28,3.22-.58,1.53-1.22,3.4-2,5.93,0-.32,0-.83.07-1.44s.14-1.34.21-1.8c0-.24.08-.44.1-.58s0-.17,0-.18c.11-.59-.78-2.79-.67-4.5,0-.62.2-1.08-.09-1.33s-.5-.11-.91-.08a8.42,8.42,0,0,1-2-.25A31.74,31.74,0,0,0,85,62.06c-1.89,0-2.83,0-3.45.52-1.49,1.2-1.38,4-1.34,4.7a11,11,0,0,1-.13,3.48,7.52,7.52,0,0,1-.19.76,7.94,7.94,0,0,1-.8-2.09c-.36-1.48.21-2-.19-3.19s-1.14-1.45-1-2.2.94-1.28,1.62-1.6a.93.93,0,0,1-.43-.07,1,1,0,0,1-.37-.22.75.75,0,0,1-.09-.09,9.46,9.46,0,0,1,2.34-2.8C78.13,59.58,77.52,59.63,77.52,59.61Z"/><path class="cls-14" d="M84.36,74.89a.2.2,0,0,0-.27.21,2.39,2.39,0,0,0,4.71.07.21.21,0,0,0-.27-.22,5.37,5.37,0,0,1-4.17-.06Z"/><path class="cls-8" d="M90.79,69.61h0a.18.18,0,0,0,.14-.23,1.65,1.65,0,0,0-1.21-1.23,1.55,1.55,0,0,0-1.08.19.19.19,0,0,0-.08.26.2.2,0,0,0,.26.07,1.15,1.15,0,0,1,.82-.14,1.26,1.26,0,0,1,.92.94A.18.18,0,0,0,90.79,69.61Z"/><path class="cls-8" d="M82.06,69a.21.21,0,0,0,.16-.08,1.55,1.55,0,0,1,1.46-.68,1.47,1.47,0,0,1,.89.52.19.19,0,1,0,.29-.25,1.84,1.84,0,0,0-1.12-.64,1.91,1.91,0,0,0-1.83.82.19.19,0,0,0,0,.27Z"/><path class="cls-25" d="M90.19,83c.08,1.55.2,3.92.38,6.82.93,15.81,1.36,15.1,2.5,29.43,0,0,3.8,15.59,6.13,22a1.69,1.69,0,0,0,1.59,1.1,19.44,19.44,0,0,1,3.36.26,20.6,20.6,0,0,1,9.39,4.2c-1.43-5.26-2.45-9.84-3.2-13.48-2.31-11.13-2.16-14.44-3.11-19.71-.41-2.28-.85-4-1.11-5-2-7.88-3.9-11.49-7.36-22.54-.21-.69-.38-1.24-.46-1.52l-5.94-.13c-.3-.22-.63-.46-1-.69S90.57,83.22,90.19,83Z"/><path class="cls-25" d="M112.94,107.76a34.62,34.62,0,0,0-2.2-8.32c-2.22-5.14-3.86-8.91-5.26-12.11A6.92,6.92,0,0,0,98,90.15a68.17,68.17,0,0,0,2.82,16.12c2.57,8.43,4.68,9.32,5.62,9.46a6.65,6.65,0,0,0,5.66-2.61A7.3,7.3,0,0,0,112.94,107.76Z"/><path class="cls-17" d="M105.35,87.68a5.89,5.89,0,0,1-1.53,1.68,6.09,6.09,0,0,1-1.19.68,5.94,5.94,0,0,1-3.17.38,7.76,7.76,0,0,1-1-.24,6.84,6.84,0,0,1,.85-.91,7,7,0,0,1,2.55-1.44,6.69,6.69,0,0,1,1.81-.3A6.51,6.51,0,0,1,105.35,87.68Z"/><path class="cls-18" d="M103.94,89.24l-.12.12a6.09,6.09,0,0,1-1.19.68,5.94,5.94,0,0,1-3.17.38c0-.42-.09-.8-.15-1.15a2.58,2.58,0,0,0-.82-1.76,2.08,2.08,0,0,1-.29-.19l-.67-.48a1.68,1.68,0,0,1-.32-.29,1.49,1.49,0,0,1-.29-.6h0a1,1,0,0,1,0-.14l-.13,0h0l-.51.18a9.83,9.83,0,0,1-.87-.7,10,10,0,0,1-1.32-1.42c-.79-1.06-.71-1.43-.68-1.53a1.76,1.76,0,0,1,.09-.2h0a.53.53,0,0,0,.07-.15h0l0-.07c.15-.41.14-.75.19-.81l2.79-3.29a.52.52,0,0,1,.11-.1h0a1,1,0,0,1,1-.17,9.06,9.06,0,0,0,2.22.48l.43,0h.66c.48,0,1.66,1.43,2.22,4.86.13.81.15,1.19.22,2,0,.12,0,.25,0,.39,0,.59.13,1.32.25,2.15C103.75,88.06,103.83,88.63,103.94,89.24Z"/><path class="cls-23" d="M96.28,85.08l0,0a.16.16,0,0,1-.2-.07l-1.64-3.35a.16.16,0,0,1,0-.19l2.67-1.94a.15.15,0,1,1,.18.24l-2.58,1.87,1.59,3.24A.15.15,0,0,1,96.28,85.08Z"/><path class="cls-23" d="M97.26,84.86a1.75,1.75,0,0,1-.54.28.15.15,0,0,1-.19-.09.16.16,0,0,1,.1-.19,1.55,1.55,0,0,0,.89-.74,1.38,1.38,0,0,0,.16-.56,2.07,2.07,0,0,0-.42-1.37.16.16,0,0,1,0-.21h0a.16.16,0,0,1,.21,0A2.31,2.31,0,0,1,98,83.59a1.81,1.81,0,0,1-.19.67A1.75,1.75,0,0,1,97.26,84.86Z"/><path class="cls-23" d="M98.68,81.84a1.9,1.9,0,0,1-.7.33,2.15,2.15,0,0,1-1.59-.29.15.15,0,1,1,.17-.25A1.7,1.7,0,0,0,99,81.11a.15.15,0,0,1,.21,0,.15.15,0,0,1,0,.2A2.07,2.07,0,0,1,98.68,81.84Z"/><path class="cls-23" d="M99.36,88a.15.15,0,0,1-.19,0A3,3,0,0,1,98.26,86a2.81,2.81,0,0,1,.28-1.18,3.07,3.07,0,0,0,.3-1.14,3,3,0,0,0-.47-1.63.15.15,0,0,1,0-.2.16.16,0,0,1,.21.05,3.37,3.37,0,0,1,.51,1.79,3.26,3.26,0,0,1-.32,1.24A2.48,2.48,0,0,0,98.56,86a2.66,2.66,0,0,0,.83,1.72.15.15,0,0,1,0,.21Z"/><path class="cls-23" d="M98.27,85l-.62.45a.16.16,0,0,1-.21,0,.14.14,0,0,1,0-.2l.62-.45a.15.15,0,0,1,.21,0A.16.16,0,0,1,98.27,85Z"/><path class="cls-23" d="M97,85.92a.14.14,0,0,1-.11,0,.14.14,0,0,1-.12-.17l.18-1a.14.14,0,0,1,.17-.12.15.15,0,0,1,.12.17l-.18,1A.17.17,0,0,1,97,85.92Z"/><path class="cls-23" d="M95.34,84.42a.15.15,0,0,1-.21,0l-1.64-2.16a.14.14,0,0,1,0-.2h0a.15.15,0,0,1,.2,0l1.65,2.16a.15.15,0,0,1,0,.21Z"/><path class="cls-23" d="M93.69,82.26a.09.09,0,0,1-.06,0,.14.14,0,0,1-.17-.13,2,2,0,0,1,.05-.93c.12-.18,2.63-3.14,2.92-3.48a.14.14,0,0,1,.21,0,.13.13,0,0,1,0,.2c-1.11,1.32-2.8,3.33-2.89,3.46a1.77,1.77,0,0,0,0,.73A.12.12,0,0,1,93.69,82.26Z"/><path class="cls-23" d="M97.24,79.69a.16.16,0,0,1-.09,0,.14.14,0,0,1-.15-.14L97,79a.15.15,0,0,1,.29,0l0,.62A.16.16,0,0,1,97.24,79.69Z"/><path class="cls-25" d="M81.1,83.26a21.27,21.27,0,0,1-2.47-3.33,21.92,21.92,0,0,1-2.65-7,27.19,27.19,0,0,1-.06-9.26l2.49-21.91a10.52,10.52,0,0,0-2.54-1.44A10.91,10.91,0,0,0,70,39.78,72.14,72.14,0,0,0,64.6,65c-.18,6.91.71,13.87,2.1,24.64.56,4.34,1.1,7.91,1.49,10.32Z"/><path class="cls-25" d="M82.11,84.14a139.33,139.33,0,0,0-4.25,29.48,116.06,116.06,0,0,1-1.29,17.72,93.35,93.35,0,0,1-3.84,15.13,2.15,2.15,0,0,1-1.64,1.4,22.36,22.36,0,0,0-12.64,7,112.86,112.86,0,0,1,2.71-20c2-8.57,4-12.12,5.54-20.25a82.88,82.88,0,0,0,1.46-18.11,42.16,42.16,0,0,1,10.62-15l2.32,1.71L82.34,83Z"/><path class="cls-17" d="M78.19,41.92a5.34,5.34,0,0,1-1.35.66,5.47,5.47,0,0,1-3.06.13,5.53,5.53,0,0,1-2.67-1.55A5.29,5.29,0,0,1,70.25,40a6.82,6.82,0,0,1,.87-.08,11.12,11.12,0,0,1,3.24.28,11.69,11.69,0,0,1,2.9,1.13C77.63,41.55,77.94,41.75,78.19,41.92Z"/><path class="cls-18" d="M81.94,32.68c-.12,4-1.14,5.46-2.07,6a5.39,5.39,0,0,0-2,1.54,3.21,3.21,0,0,0-.27.41.6.6,0,0,0-.06.11,4.47,4.47,0,0,0-.27.59c-.07.2-.14.4-.21.62l-.21.62a5.47,5.47,0,0,1-3.06.13,5.53,5.53,0,0,1-2.67-1.55,2.45,2.45,0,0,0,0-.27,3.94,3.94,0,0,0,0-.92v0a2,2,0,0,0-.16-.49,9.73,9.73,0,0,1-.56-1.28c-.46-1.32.53-3.8.92-4.71,0,0,.07-.17.15-.32A2.41,2.41,0,0,1,72.4,32a1.1,1.1,0,0,1,.69-.23,1.68,1.68,0,0,0,.34,0l.21,0c.35-.12.34-.34.71-.49a1.71,1.71,0,0,1,.72-.08c.5,0,.54.19.88.16s.42-.27.83-.34.47.15.89.14c.67,0,.89-.58,1.4-.5a1,1,0,0,1,.7.52c.08.18.16.35.25.52h0l.06.13a.9.9,0,0,1,.06-.14,1,1,0,0,1,1.16-.65,1.11,1.11,0,0,1,.4.15Z"/><path class="cls-23" d="M80.12,33.43c0-.7.09-1.25.12-1.55a.16.16,0,0,0-.15-.16.15.15,0,0,0-.16.14c0,.3-.06.84-.11,1.54s-.09,1-.26,1.23a1.17,1.17,0,0,1-.74.44.33.33,0,0,1-.15,0,.87.87,0,0,1-.43-.68,5.88,5.88,0,0,0,0-1.11,6.19,6.19,0,0,0-.38-1.65.16.16,0,0,0-.29.11,5.62,5.62,0,0,1,.37,1.57,4.87,4.87,0,0,1,0,1.08v0h0a1.12,1.12,0,0,1-.4,1,.93.93,0,0,1-.91.17c-.37-.17-.54-.77-.61-1l0-.09a5.56,5.56,0,0,1,0-.91,7,7,0,0,1,.23-1.76.16.16,0,0,0-.11-.19.15.15,0,0,0-.18.11,7.61,7.61,0,0,0-.25,1.83,8.22,8.22,0,0,0,.06,1h0a1.43,1.43,0,0,1-.57,1.38l0,0a1,1,0,0,1-.76.12,1,1,0,0,1-.62-.78s0-.09,0-.14a10.88,10.88,0,0,0,0-1.51,10,10,0,0,0-.19-1.22.16.16,0,0,0-.18-.12.15.15,0,0,0-.11.18c.08.39.14.79.18,1.18a9.29,9.29,0,0,1,0,1.49h0s0,.11,0,.16a1,1,0,0,1-.37.88.86.86,0,0,1-.8.16.83.83,0,0,1-.45-.89.15.15,0,0,0-.12-.18.17.17,0,0,0-.18.13,1.13,1.13,0,0,0,.63,1.22.9.9,0,0,0,.27.07,1.29,1.29,0,0,0,.84-.27,1.26,1.26,0,0,0,.4-.56,1.08,1.08,0,0,0,.62.48,1.35,1.35,0,0,0,1-.16l0,0a1.56,1.56,0,0,0,.65-.94,1.35,1.35,0,0,0,.55.61,1.24,1.24,0,0,0,1.24-.21,1.33,1.33,0,0,0,.44-.63.91.91,0,0,0,.39.33,6.36,6.36,0,0,1-.93,1,2.11,2.11,0,0,1-1.24.43,2.24,2.24,0,0,0-1.19.38,2.84,2.84,0,0,0-1,1.81.14.14,0,0,0,.12.18h0a.17.17,0,0,0,.17-.12,2.54,2.54,0,0,1,.9-1.63,2,2,0,0,1,1-.33,2.42,2.42,0,0,0,1.39-.49,7.2,7.2,0,0,0,1.1-1.17,1.44,1.44,0,0,0,.9-.54A2.62,2.62,0,0,0,80.12,33.43Z"/><path class="cls-26" d="M78.68,91.84a.15.15,0,0,1-.15-.12L77.15,86a.12.12,0,0,1,0-.13A9,9,0,0,1,81.31,83a6.93,6.93,0,0,1,1-.26.16.16,0,0,1,.18.12.15.15,0,0,1-.13.18,8.32,8.32,0,0,0-1,.26A8.69,8.69,0,0,0,77.47,86l1.36,5.61a.15.15,0,0,1-.12.18Z"/><path class="cls-26" d="M77.82,115.11a.16.16,0,0,1-.15-.12L73.73,97.42a.15.15,0,0,1,0-.14L80.39,90a.16.16,0,0,1,.22,0,.15.15,0,0,1,0,.22l-6.57,7.24L78,114.92a.15.15,0,0,1-.12.19Z"/><path class="cls-26" d="M92.45,112.27h0a.15.15,0,0,1-.11-.19l3.29-13.34-5-8.78a.16.16,0,0,1,.06-.21.14.14,0,0,1,.21.06l5,8.83a.17.17,0,0,1,0,.12l-3.3,13.4A.16.16,0,0,1,92.45,112.27Z"/><path class="cls-26" d="M91.82,91.94h-.07a.17.17,0,0,1-.08-.21l2.14-4.85c-.37-.51-.75-1-1.13-1.51a8.54,8.54,0,0,0-1.3-1.44,5.16,5.16,0,0,0-1.25-.76.17.17,0,0,1-.08-.21.16.16,0,0,1,.2-.08,5.57,5.57,0,0,1,1.32.81,8.78,8.78,0,0,1,1.35,1.48c.41.52.81,1.06,1.19,1.61a.16.16,0,0,1,0,.15L92,91.85A.18.18,0,0,1,91.82,91.94Z"/><path class="cls-26" d="M68.09,103.29h0a.15.15,0,0,1-.12-.18c.49-2.42,1.1-4.85,1.82-7.21a77.62,77.62,0,0,1,2.66-7.4.17.17,0,0,1,.21-.08.15.15,0,0,1,.08.2A77.07,77.07,0,0,0,70.05,96c-.71,2.35-1.32,4.77-1.81,7.18A.15.15,0,0,1,68.09,103.29Z"/><path class="cls-26" d="M70,92.91h0a.16.16,0,0,1-.13-.18l1.55-10.87a.14.14,0,0,1,.17-.13.16.16,0,0,1,.14.17L70.12,92.78A.15.15,0,0,1,70,92.91Z"/><path class="cls-26" d="M69.87,89.22a.16.16,0,0,1-.16-.14c-.12-1-.29-2.11-.51-3.15a33.39,33.39,0,0,0-1.32-4.62.16.16,0,1,1,.29-.11,34.79,34.79,0,0,1,1.33,4.66c.22,1,.4,2.12.52,3.18a.16.16,0,0,1-.14.18Z"/><path class="cls-26" d="M102.87,111.87a.15.15,0,0,1-.14-.1,63.66,63.66,0,0,1-4.84-21.21A.14.14,0,0,1,98,90.4a.15.15,0,0,1,.16.14A63.4,63.4,0,0,0,103,111.65a.14.14,0,0,1-.08.2Z"/><path class="cls-26" d="M107.13,115.9a3.65,3.65,0,0,1-1.64-.38,4.24,4.24,0,0,1-2-2.39.14.14,0,0,1,.09-.19.16.16,0,0,1,.2.09,3.9,3.9,0,0,0,1.89,2.21,4.23,4.23,0,0,0,3.32,0,6.17,6.17,0,0,0,3-2.2.16.16,0,0,1,.22,0,.15.15,0,0,1,0,.21,6.46,6.46,0,0,1-3.2,2.32A6.27,6.27,0,0,1,107.13,115.9Z"/><path class="cls-26" d="M65.09,132.94a1.44,1.44,0,0,1-1-.37,1.41,1.41,0,0,1-.47-1.22l.12-1.34a.16.16,0,0,1,.13-.13l10-2a.15.15,0,0,1,.13,0,.14.14,0,0,1,.06.12v1.93a1.44,1.44,0,0,1-1.15,1.41l-7.54,1.58A1.53,1.53,0,0,1,65.09,132.94Zm-1-2.78L64,131.38a1.16,1.16,0,0,0,.38,1,1.11,1.11,0,0,0,1,.26L72.87,131a1.14,1.14,0,0,0,.9-1.11v-1.74Z"/><path class="cls-26" d="M107.08,131.65H107l-7.69-.44A1.46,1.46,0,0,1,98,130l-.28-1.92a.13.13,0,0,1,0-.12.14.14,0,0,1,.13,0l10.18.54a.19.19,0,0,1,.14.12l.32,1.31a1.43,1.43,0,0,1-.29,1.27A1.45,1.45,0,0,1,107.08,131.65ZM98,128.21l.26,1.72a1.14,1.14,0,0,0,1.06,1l7.68.44a1.12,1.12,0,0,0,.94-.41,1.1,1.1,0,0,0,.23-1l-.29-1.19Z"/><path class="cls-26" d="M71.14,65.1h0A.15.15,0,0,1,71,64.9l1.43-5.56a.15.15,0,0,1,.19-.11.16.16,0,0,1,.11.19L71.29,65A.16.16,0,0,1,71.14,65.1Z"/><path class="cls-26" d="M73.83,45a.83.83,0,1,1-.83-.83A.83.83,0,0,1,73.83,45Z"/><path class="cls-26" d="M73,48.25a.83.83,0,1,1-.83-.83A.83.83,0,0,1,73,48.25Z"/><path class="cls-26" d="M103.7,92.61a.83.83,0,1,1-.83-.83A.83.83,0,0,1,103.7,92.61Z"/><path class="cls-26" d="M105.21,96.31a.83.83,0,1,1-.83-.83A.83.83,0,0,1,105.21,96.31Z"/></g></g></svg>