<svg xmlns="http://www.w3.org/2000/svg" xmlns:xlink="http://www.w3.org/1999/xlink" viewBox="0 0 164.68 164.68"><defs><style>.cls-1{fill:url(#linear-gradient);}.cls-2{fill:url(#linear-gradient-2);}.cls-3{fill:url(#linear-gradient-3);}.cls-4{fill:url(#linear-gradient-4);}.cls-5{fill:url(#linear-gradient-5);}.cls-6{fill:url(#linear-gradient-6);}</style><linearGradient id="linear-gradient" x1="63.63" y1="59.34" x2="127.85" y2="59.34" gradientUnits="userSpaceOnUse"><stop offset="0" stop-color="#ffc9b3"/><stop offset="1" stop-color="#b76c49"/></linearGradient><linearGradient id="linear-gradient-2" x1="0" y1="82.34" x2="164.68" y2="82.34" xlink:href="#linear-gradient"/><linearGradient id="linear-gradient-3" x1="71.61" y1="43.08" x2="129.99" y2="43.08" xlink:href="#linear-gradient"/><linearGradient id="linear-gradient-4" x1="125.69" y1="104.28" x2="139.93" y2="104.28" xlink:href="#linear-gradient"/><linearGradient id="linear-gradient-5" x1="61.68" y1="90.91" x2="120.05" y2="90.91" xlink:href="#linear-gradient"/><linearGradient id="linear-gradient-6" x1="61.7" y1="132.67" x2="120.05" y2="132.67" xlink:href="#linear-gradient"/></defs><g id="Layer_2" data-name="Layer 2"><g id="Layer_1-2" data-name="Layer 1"><path class="cls-1" d="M63.63,65.25H77.74c13.69,0,27.85,0,41.77,0h0a2.77,2.77,0,0,0,2.68-1.57c1-1.78,2-3.57,3-5.3.46-.79.91-1.59,1.36-2.38.15-.26.27-.51.41-.79.06-.13.13-.28.21-.43l.7-1.39H70.35Z"/><path class="cls-2" d="M112.89,158.44H59.51a5.51,5.51,0,0,1-1.54-.17,2.54,2.54,0,0,1-1.87-2.39c0-.3,0-.61,0-1V138.25c0-22.65,0-46.06,0-69.09A6.67,6.67,0,0,1,57,65.63c1.71-2.94,3.41-5.94,5.06-8.85L65.31,51A4.74,4.74,0,0,0,66,48.55c0-3.89,0-7.86,0-11.69v-.38A8.55,8.55,0,0,1,66,35.15a2.76,2.76,0,0,1,2.53-2.32,5.66,5.66,0,0,1,.59,0h63.15a5.22,5.22,0,0,1,1,.06,2.77,2.77,0,0,1,2.27,2.73c0,.64,0,1.29,0,2,0,.28,0,.56,0,.83v2.37c0,2.53,0,5.14,0,7.71a5,5,0,0,0,.68,2.61c1.35,2.34,2.71,4.74,4,7,1.44,2.54,2.94,5.17,4.42,7.76a5.59,5.59,0,0,1,.77,2.94c0,11.36,0,22.91,0,34.07v32.27a82.24,82.24,0,1,0-31.67,23.25Z"/><rect class="cls-3" x="71.61" y="38.45" width="58.38" height="9.26"/><path class="cls-4" d="M139.92,140.87v-4.6c0-21.58,0-43.9,0-65.86a6.08,6.08,0,0,0-.85-3.17c-1.12-1.92-2.24-3.89-3.31-5.8l-1.43-2.52-.45-.76-.28-.46-.84-1.41L132,57.72l-1.4,2.47c-1.54,2.71-3,5.27-4.45,7.89a3.79,3.79,0,0,0-.4,1.89c0,28.17,0,56.48,0,80.8,0,.29,0,.56,0,.82l0,.34v0l0,.32a82.53,82.53,0,0,0,14.13-11.09Z"/><path class="cls-5" d="M61.68,71.28v35.93l.78.14a23.08,23.08,0,0,1,6.36,2.37,13.88,13.88,0,0,0,8.58,1.15,14.41,14.41,0,0,0,4.53-1.64l.61-.3a19.58,19.58,0,0,1,12.17-1.5,22.51,22.51,0,0,1,5.72,2.07l.2.1a14.33,14.33,0,0,0,3.24,1.16,15.52,15.52,0,0,0,3.07.31,14.06,14.06,0,0,0,6.38-1.51,34.11,34.11,0,0,1,3.64-1.47c.52-.18,1.06-.38,1.58-.58a3.8,3.8,0,0,1,.51-.14l.29-.07.71-.2V71l-.85-.1c-1.37-.16-18.78-.17-28.85-.15-7.15,0-13.85,0-18.84.09-8.71.08-9,.15-9.16.22Z"/><path class="cls-6" d="M120.05,112.54l-1.36.63-1.28.59L114.84,115a19.38,19.38,0,0,1-10.44,1.53A20.64,20.64,0,0,1,97,114a14,14,0,0,0-8.17-1.28,15.65,15.65,0,0,0-5.21,1.82l-.56.27a19.63,19.63,0,0,1-10.89,1.62,19.39,19.39,0,0,1-6.72-2.2c-.53-.26-1-.48-1.61-.72L63,113.2l-1.34-.59v40.18h58.35Z"/></g></g></svg>