<svg xmlns="http://www.w3.org/2000/svg" xmlns:xlink="http://www.w3.org/1999/xlink" viewBox="0 0 164.68 164.68"><defs><style>.cls-1{fill:url(#linear-gradient);}.cls-2{fill:url(#linear-gradient-2);}.cls-3{fill:url(#linear-gradient-3);}</style><linearGradient id="linear-gradient" y1="82.34" x2="164.68" y2="82.34" gradientUnits="userSpaceOnUse"><stop offset="0" stop-color="#ffc9b3"/><stop offset="1" stop-color="#b76c49"/></linearGradient><linearGradient id="linear-gradient-2" x1="94.71" y1="110.1" x2="105.37" y2="110.1" xlink:href="#linear-gradient"/><linearGradient id="linear-gradient-3" x1="93.53" y1="128.79" x2="106.43" y2="128.79" xlink:href="#linear-gradient"/></defs><g id="Layer_2" data-name="Layer 2"><g id="Layer_1-2" data-name="Layer 1"><path class="cls-1" d="M82.34,0a82.34,82.34,0,1,0,82.34,82.34A82.35,82.35,0,0,0,82.34,0Zm18,24.63H111V68.15h-10.6ZM78.09,141.93H47v-7.87c1.4-1.12,2.05-1.63,1.92-1.55q6.07-5,9.58-8.25a39.2,39.2,0,0,0,5.92-6.75,12.24,12.24,0,0,0,2.42-6.89,6,6,0,0,0-1.18-4,4.31,4.31,0,0,0-3.53-1.43A4.36,4.36,0,0,0,58.41,107a8.12,8.12,0,0,0-1.33,5H46.85a17.54,17.54,0,0,1,2.26-8.81A13.12,13.12,0,0,1,54.75,98a17.78,17.78,0,0,1,7.78-1.68q7.38,0,11.13,3.78a13.42,13.42,0,0,1,3.75,9.86,19.36,19.36,0,0,1-4.52,12.31,67.08,67.08,0,0,1-11.54,11.07H78.09Zm4-73.78L64.33,41.31V68.15H53.73V24.63h10.6l17.73,27v-27h10.6V68.15Zm32.49,68.73a14.15,14.15,0,0,1-6,4.87,22.29,22.29,0,0,1-16.93,0,14.18,14.18,0,0,1-6-4.87,13,13,0,0,1-2.23-7.59,12.12,12.12,0,0,1,1.8-6.67,11.84,11.84,0,0,1,5.08-4.37,10.3,10.3,0,0,1-5.82-9.73,11.2,11.2,0,0,1,1.73-6.11A12,12,0,0,1,91.36,98,20.46,20.46,0,0,1,100,96.36,20.25,20.25,0,0,1,108.69,98a11.93,11.93,0,0,1,5.24,4.4,11.21,11.21,0,0,1,1.74,6.11,10.61,10.61,0,0,1-1.58,5.82,11.27,11.27,0,0,1-4.25,3.91,12.24,12.24,0,0,1,5.14,4.43,12,12,0,0,1,1.8,6.61A12.9,12.9,0,0,1,114.55,136.88Z"/><path class="cls-2" d="M100,115.4a5.36,5.36,0,0,0,3.85-1.43,5.07,5.07,0,0,0,1.48-3.84,5.19,5.19,0,0,0-1.45-3.94A5.4,5.4,0,0,0,100,104.8a5,5,0,0,0-5.33,5.39A5,5,0,0,0,96.2,114,5.39,5.39,0,0,0,100,115.4Z"/><path class="cls-3" d="M100,122.84a6.9,6.9,0,0,0-4.71,1.58,5.51,5.51,0,0,0-1.8,4.37,5.63,5.63,0,0,0,1.77,4.28,6.64,6.64,0,0,0,4.74,1.67,6.39,6.39,0,0,0,4.68-1.67,5.73,5.73,0,0,0,1.71-4.28,5.59,5.59,0,0,0-1.77-4.34A6.62,6.62,0,0,0,100,122.84Z"/></g></g></svg>