<svg xmlns="http://www.w3.org/2000/svg" xmlns:xlink="http://www.w3.org/1999/xlink" viewBox="0 0 164.68 164.68"><defs><style>.cls-1{fill:url(#linear-gradient);}.cls-2{fill:url(#linear-gradient-2);}.cls-3{fill:url(#linear-gradient-3);}.cls-4{fill:url(#linear-gradient-4);}</style><linearGradient id="linear-gradient" x1="16.94" y1="122.14" x2="95.13" y2="122.14" gradientUnits="userSpaceOnUse"><stop offset="0" stop-color="#ffc9b3"/><stop offset="1" stop-color="#b76c49"/></linearGradient><linearGradient id="linear-gradient-2" x1="0" y1="80.73" x2="159.34" y2="80.73" xlink:href="#linear-gradient"/><linearGradient id="linear-gradient-3" x1="91.59" y1="72.05" x2="164.68" y2="72.05" xlink:href="#linear-gradient"/><linearGradient id="linear-gradient-4" x1="28.32" y1="119.76" x2="103.51" y2="119.76" xlink:href="#linear-gradient"/></defs><g id="Layer_2" data-name="Layer 2"><g id="Layer_1-2" data-name="Layer 1"><path class="cls-1" d="M95.13,163.69c-.35-2.9-.42-5.78-.49-8.6,0-.32,0-.64,0-1a44.18,44.18,0,0,0-.87-9c-1.87-7.88-6.73-13.8-14.45-17.61A37.47,37.47,0,0,1,70.84,122,34.38,34.38,0,0,1,60.51,104.6c-2.64-9.85-8.73-16.3-18.08-19.18-3-.91-6-1.7-9-2.46-1.83-.48-3.72-1-5.57-1.48-1.36-.38-2.66-.82-4-1.28l-1.79-.6a1,1,0,0,1-.07.15c-.07.17-.15.34-.22.52a78.23,78.23,0,0,0-4.77,22,25.36,25.36,0,0,0,4,15.74,28.79,28.79,0,0,0,12.18,10.3,32.69,32.69,0,0,1,13.67,12.53,42.69,42.69,0,0,1,4.34,11,25.83,25.83,0,0,0,4,8.25,82,82,0,0,0,27.08,4.58A83,83,0,0,0,95.13,163.69ZM82.72,148.22a2.15,2.15,0,0,1,3-.83,8,8,0,0,1,4.43,4.92,6.74,6.74,0,0,1,.2,1c0,.1,0,.19,0,.26v0a2.2,2.2,0,0,1-1.84,2.23,2.26,2.26,0,0,1-.52,0,1.92,1.92,0,0,1-1.75-1.45,4.72,4.72,0,0,0-2.61-3.28A2.06,2.06,0,0,1,82.72,148.22ZM29.35,101.84a2.48,2.48,0,0,1-1,1.86A1.94,1.94,0,0,1,27,104a1.61,1.61,0,0,1-.37-.07,8,8,0,0,1-5.24-6.17,2.17,2.17,0,0,1,1.71-2.47,2,2,0,0,1,2.44,1.57,4.45,4.45,0,0,0,2.47,3,2.08,2.08,0,0,1,1.32,1.9Zm18.58,19.62a2.13,2.13,0,0,1-2,1.12,1.69,1.69,0,0,1-.49-.13c-3.82-1.54-8.14-5.17-8.85-10.71,0-.13,0-.25,0-.33v-.06h0a2.23,2.23,0,0,1,1.85-2.08,2.08,2.08,0,0,1,2.27,1.45,8.75,8.75,0,0,1,.23.88c.06.29.13.6.22.89A9.75,9.75,0,0,0,46,118l.31.16a7,7,0,0,1,1.11.68A2,2,0,0,1,47.93,121.46Zm4.23-14.93a2.16,2.16,0,0,1-.62,0,2.22,2.22,0,0,1-1.87-2c-.52-2.89-2.2-5-5.27-6.74l-.34-.18a8.6,8.6,0,0,1-.92-.55,2,2,0,0,1-.64-2.44A2.21,2.21,0,0,1,45,93.32h0l.36.16a10.93,10.93,0,0,1,1.28.6c4.14,2.34,6.51,5.46,7.22,9.55C54.15,105.2,53.51,106.28,52.16,106.53Zm7.37,24.05a2.05,2.05,0,0,1,.56-1.72,2.35,2.35,0,0,1,2-.64h0a1.86,1.86,0,0,1,1.64,1.58c.57,3.34,2.57,5.81,6.12,7.54a2.3,2.3,0,0,1,1.27,1.37,2.08,2.08,0,0,1-.19,1.64,2,2,0,0,1-2.06,1.08,3,3,0,0,1-1-.28,14,14,0,0,1-7.91-8.58A10.64,10.64,0,0,1,59.53,130.58Zm13.83,29.77a2.8,2.8,0,0,1-1.4,1.88,2,2,0,0,1-1,.2,1.8,1.8,0,0,1-.55-.15c-5.1-2.23-8-5.68-8.78-10.52a2.15,2.15,0,0,1,1.25-2.49,2,2,0,0,1,2.51.69,3,3,0,0,1,.48,1.17c.52,2.93,2.22,5.09,5.35,6.8l.34.17a2.06,2.06,0,0,1,.76.48,7.81,7.81,0,0,1,.77,1.19l.3.51,0,0Z"/><path class="cls-2" d="M151.81,117.84a36.22,36.22,0,0,1-15.53,5.65,53.42,53.42,0,0,1-8.2.49,34,34,0,0,1-6.4-1,54,54,0,0,1-6.45-1.86,42.77,42.77,0,0,1-5.46-2.39,41.7,41.7,0,0,1-10.47-7.84c-1.16-1.2-2.24-2.55-3.28-3.86h0c-.44-.56-.9-1.14-1.37-1.7a39,39,0,0,1-5.11-9.21l-.33-.74a24.48,24.48,0,0,1-2.14-7.81c-.11-1.24-.29-2.47-.48-3.67-.2-1.36-.42-2.77-.51-4.15a30,30,0,0,1,.26-5.94c.23-1.72.64-3.48,1-5.18l.33-1.43a28,28,0,0,1,2.88-7.15,50.39,50.39,0,0,1,7.6-10c1.86-2,3.69-4.11,5.47-6.13l0,0c1.16-1.33,2.37-2.7,3.57-4l1.93-2.18,0,0c2-2.29,4.11-4.65,6.3-6.81A32.76,32.76,0,0,1,125.72,24a40.15,40.15,0,0,1,11.17-3l.36-.05A82.33,82.33,0,1,0,48.79,157.53l-.18-.37a40.68,40.68,0,0,1-2.18-6.4A30.34,30.34,0,0,0,39,137.68a32.35,32.35,0,0,0-9-6.27A31.44,31.44,0,0,1,15.4,116.65a28.17,28.17,0,0,1-2.75-14.1,79.18,79.18,0,0,1,5.22-24.08c.12-.3.26-.58.39-.86s.21-.42.3-.64a5,5,0,0,1,4-3.25l1.93-.3a79.65,79.65,0,0,1,8.19-1c2.87-.16,5.8-.11,8.63-.08,1.22,0,2.48,0,3.73,0h0c4,.54,8.53,1.3,12.66,3.47A30.82,30.82,0,0,1,73.36,94.68l.42,1.4a39.63,39.63,0,0,0,2.68,7.18A29.27,29.27,0,0,0,90.11,116.2a31.32,31.32,0,0,1,11.39,9.11,28.87,28.87,0,0,1,6.29,20.05,83,83,0,0,1-2.65,16.1,82.54,82.54,0,0,0,54.2-49.94A43.67,43.67,0,0,1,151.81,117.84Z"/><path class="cls-3" d="M164.1,72.7a2.65,2.65,0,0,1-1.34.37,2.6,2.6,0,0,1-1.17-.27,2.69,2.69,0,0,1-1.26-3.6l2.35-4.87a82.33,82.33,0,0,0-4.15-13.23l-.28.33-1.17,1.31,0,0-1.34,1.5-3.53,4,0,0-4.51,5.15c-.47.54-1,1.08-1.44,1.6s-.94,1-1.41,1.56c-1,1.12-2,2.25-2.92,3.35l0,0-3.1,3.54-2.22,2.5c-.87,1-1.77,2-2.65,3-1.08,1.23-2.2,2.53-3.19,3.67-1.46,1.69-3,3.44-4.49,5.15a4.65,4.65,0,0,1-1.29,1,3.07,3.07,0,0,1-2.36.14A2.11,2.11,0,0,1,121.28,88a3,3,0,0,1,.65-3.63l1.82-2.06,4.66-5.3.79-.89c2-2.22,4-4.52,6-6.78,1.78-2,3.59-4,5.34-6l2.38-2.66.82-.9c.61-.67,1.23-1.36,1.83-2.06l2.9-3.36.06-.06c1.47-1.71,3-3.48,4.5-5.2,1-1.1,2-2.2,2.95-3.27a.69.69,0,0,1,.11-.13,82.2,82.2,0,0,0-11.28-17h0c-1.47,1.88-3.14,3.7-4.75,5.45-1,1.11-2.08,2.25-3.08,3.42l-.23.26a3.74,3.74,0,0,0-1.17,3.8,41.58,41.58,0,0,1,.85,5.11c.14,1.07.27,2.16.46,3.25a3.67,3.67,0,0,1-1.63,3.69c-1.6.86-3.16,1.75-4.64,2.63-1.05.63-2.1,1.28-3.12,1.91h0c-1.79,1.11-3.63,2.25-5.49,3.28a2.66,2.66,0,0,1-3.57-1,2.84,2.84,0,0,1-.29-2.16,2.53,2.53,0,0,1,1.19-1.52c1-.53,1.88-1.11,2.77-1.67l1.5-.94,4.94-3L130.62,50l.59-.36L131.1,49c-.13-.88-.27-1.78-.41-2.65-.36-2.29-.7-4.46-1-6.68a4.91,4.91,0,0,1,.37-2.38,5.78,5.78,0,0,1,1.14-1.45l.51-.55,2.48-2.76,0,0,3-3.33a2.81,2.81,0,0,0,.51-.92l.18-.41,1-2.1-2.22.68-.54.17a3.5,3.5,0,0,1-.53.16,30.23,30.23,0,0,0-11.15,4.14,41.66,41.66,0,0,0-9.82,8.75c-2,2.35-4.07,4.7-6.09,7l-2.78,3.14-4.89,5.54-1.69,1.93a29.38,29.38,0,0,0-5.43,9.16,33.15,33.15,0,0,0-2.14,10.52A41.12,41.12,0,0,0,94.21,93a38.1,38.1,0,0,0,8.38,13.46v0a31.77,31.77,0,0,0,3.5,3.35,40.81,40.81,0,0,0,10,5.89,41.72,41.72,0,0,0,9.09,2.45l.82.12.29-.77.26-.65,0-.07c.2-.51.38-1,.57-1.5l1.11-3,0,0c.58-1.56,1.17-3.16,1.77-4.75l.51-1.35c.64-1.7,1.29-3.45,2-5.13a6,6,0,0,1,1.3-2.06c2-1.84,4.17-3.57,6-5,1.48-1.18,2.82-1,4.33.63a2.1,2.1,0,0,1,.3,1.49,2.79,2.79,0,0,1-.94,2,41.52,41.52,0,0,0-4,3.22,12.31,12.31,0,0,0-2.38,2.93,11.11,11.11,0,0,0-.87,2.25c-.12.41-.23.79-.37,1.15-.85,2.23-1.72,4.5-2.57,6.69v0c-.34.89-.69,1.78-1,2.68l-.54,1.39h2.4a4,4,0,0,0,.63,0,34,34,0,0,0,16-6.36c.12-.1.26-.19.4-.29a7,7,0,0,0,.87-.65,89.61,89.61,0,0,0,8.08-8.62q1.36-1.65,2.81-3.27A82.1,82.1,0,0,0,164.1,72.7ZM105.61,84.57a2.64,2.64,0,0,1-1,.19,2.7,2.7,0,0,1-1-5.22l6-2.35a2.7,2.7,0,1,1,2,5Zm10.28,14.59-.69.78a2.7,2.7,0,1,1-4.07-3.55l.69-.79a2.7,2.7,0,0,1,4.07,3.56Zm43.93-10.28h-.12l-2.26-.1a2.7,2.7,0,1,1,.23-5.39l2.26.09a2.7,2.7,0,0,1-.11,5.4Z"/><path class="cls-4" d="M96.22,125.84a29.94,29.94,0,0,0-8.48-6,32.63,32.63,0,0,1-18-22A29.1,29.1,0,0,0,65.35,88,27.41,27.41,0,0,0,59,81.6a24.43,24.43,0,0,0-8.23-3.74A49.68,49.68,0,0,0,38.12,76.6c-2.3,0-4.64.13-6.91.24-.94,0-1.92.09-2.89.12a1,1,0,0,0,.55.33l2.71.73L42,80.8A31.61,31.61,0,0,1,55.65,88,32.52,32.52,0,0,1,64,101c.34.95.62,1.94.88,2.9s.56,2,.92,3a30,30,0,0,0,5.6,9.52,29.73,29.73,0,0,0,8.79,6.72,43,43,0,0,1,5.66,3.31c6.9,4.94,11.07,11.32,12.39,19a63.43,63.43,0,0,1,.66,8.58c0,1.29.08,2.63.16,3.93.09,1.58.19,3.17.29,4.75v.23l.93-.21a74.27,74.27,0,0,0,3.2-17.69,24.31,24.31,0,0,0-1.63-10.46A26.49,26.49,0,0,0,96.22,125.84Z"/></g></g></svg>