<svg xmlns="http://www.w3.org/2000/svg" xmlns:xlink="http://www.w3.org/1999/xlink" viewBox="0 0 343.76 343.76"><defs><style>.cls-1{isolation:isolate;}.cls-2{fill:url(#linear-gradient);}.cls-3{fill:#ffccbc;}.cls-4{fill:#231914;}.cls-5{fill:#678b27;}.cls-6{fill:#111e26;}.cls-7{fill:#f8ae29;}.cls-8{fill:#ffab91;}.cls-9{fill:#fff;}.cls-10{fill:#40232b;}.cls-11{fill:#8a5648;}.cls-12{fill:#6e4540;}.cls-13,.cls-14,.cls-15,.cls-23,.cls-26,.cls-31,.cls-37,.cls-44{mix-blend-mode:multiply;}.cls-13{fill:url(#linear-gradient-2);}.cls-14{fill:url(#linear-gradient-3);}.cls-15{fill:url(#linear-gradient-4);}.cls-16{fill:#634b37;}.cls-17{fill:#b76c49;}.cls-18{fill:#f9f9f9;}.cls-19{fill:#e0b3a7;}.cls-20{fill:#242e3b;}.cls-21{fill:#824c38;}.cls-22{fill:#8a6356;}.cls-23{fill:url(#linear-gradient-5);}.cls-24{fill:#bf7c60;}.cls-25{fill:#d49277;}.cls-26{fill:#f5e2da;}.cls-27{fill:#b3b3b3;}.cls-28{fill:#999;}.cls-29{fill:#2a4a5e;}.cls-30{fill:#1f3645;}.cls-31{fill:url(#linear-gradient-6);}.cls-32{fill:#40342e;}.cls-33{fill:#915c4e;}.cls-34{fill:#ad6851;}.cls-35{fill:#1a2e3b;}.cls-36{fill:#274457;}.cls-37{fill:url(#linear-gradient-7);}.cls-38{fill:#945a49;}.cls-39{fill:#f09675;}.cls-40{fill:#d47959;}.cls-41{fill:#122029;}.cls-42{fill:#4d2c1e;}.cls-43{fill:#ebd9d1;}.cls-44{fill:url(#linear-gradient-8);}.cls-45{fill:#ffc9b3;}.cls-46{fill:#c4b5af;}</style><linearGradient id="linear-gradient" x1="171.88" x2="171.88" y2="343.76" gradientUnits="userSpaceOnUse"><stop offset="0" stop-color="#ffc9b3"/><stop offset="1" stop-color="#678b27"/></linearGradient><linearGradient id="linear-gradient-2" x1="23.91" y1="161" x2="23.91" y2="207.89" gradientUnits="userSpaceOnUse"><stop offset="0" stop-color="#fff"/><stop offset="1" stop-color="#ebd9d1"/></linearGradient><linearGradient id="linear-gradient-3" x1="63.63" y1="130.46" x2="63.63" y2="209.79" xlink:href="#linear-gradient-2"/><linearGradient id="linear-gradient-4" x1="49.71" y1="95.33" x2="49.71" y2="370.35" xlink:href="#linear-gradient-2"/><linearGradient id="linear-gradient-5" x1="114.06" y1="158.84" x2="114.06" y2="255.24" xlink:href="#linear-gradient-2"/><linearGradient id="linear-gradient-6" x1="83.66" y1="133.85" x2="83.66" y2="334.28" xlink:href="#linear-gradient-2"/><linearGradient id="linear-gradient-7" x1="223.43" y1="279.72" x2="335.93" y2="67.88" xlink:href="#linear-gradient-2"/><linearGradient id="linear-gradient-8" x1="206.04" y1="100.56" x2="206.04" y2="375.87" xlink:href="#linear-gradient-2"/></defs><g class="cls-1"><g id="Layer_2" data-name="Layer 2"><g id="Layer_1-2" data-name="Layer 1"><circle class="cls-2" cx="171.88" cy="171.88" r="171.88"/><path class="cls-3" d="M23.78,294.36,23,301a4.18,4.18,0,0,0,1.72,3.92l6.54,4.7-.09,2.88h0s-2.91.35-4.28-.25-5.91-2.4-5.91-2.4a16.43,16.43,0,0,0-2.82-1.67,15.56,15.56,0,0,1-4.2-2.7,22.81,22.81,0,0,1-.77-2.57L13,299.53a10,10,0,0,0,1.27-1.83,10.28,10.28,0,0,0,1.2-5.22Z"/><path class="cls-4" d="M12.57,314.6a25.94,25.94,0,0,1,.85-2.46,27.88,27.88,0,0,1,1.25-2.66,25.51,25.51,0,0,0,2.44,3.26c.31.36.62.7.93,1a2.83,2.83,0,0,0,2,.85H35a1,1,0,0,0,.92-1.25,4.2,4.2,0,0,0-.72-1.33,5.13,5.13,0,0,0-1.32-1.12,43.25,43.25,0,0,0-4.32-2.49,19.56,19.56,0,0,1,1.61,1.65c.31.37.41.51.36.61s-.85.17-2.74-.28a34.79,34.79,0,0,1-11.39-5.17h0A22.69,22.69,0,0,1,13,299.53a47.62,47.62,0,0,0-1.92,6.8,56.57,56.57,0,0,0-.92,8.27Z"/><path class="cls-3" d="M56.45,294.36,55.64,301a4.22,4.22,0,0,0,1.72,3.92l6.54,4.7-.08,2.88h0s-2.91.35-4.28-.25-5.91-2.4-5.91-2.4a16.62,16.62,0,0,0-2.83-1.67,15.35,15.35,0,0,1-4.19-2.7,22.81,22.81,0,0,1-.77-2.57l-.16-3.39A10,10,0,0,0,47,297.7a10.38,10.38,0,0,0,1.2-5.22Z"/><path class="cls-4" d="M45.24,314.6c.23-.76.51-1.59.86-2.46a27.94,27.94,0,0,1,1.24-2.66,27.55,27.55,0,0,0,2.44,3.26c.31.36.63.7.94,1a2.83,2.83,0,0,0,2,.85H67.65a1,1,0,0,0,.92-1.25,4.47,4.47,0,0,0-.73-1.33,4.91,4.91,0,0,0-1.31-1.12,45.71,45.71,0,0,0-4.32-2.49,17.78,17.78,0,0,1,1.6,1.65c.32.37.41.51.37.61s-.85.17-2.74-.28A34.91,34.91,0,0,1,50,305.22h0a22.47,22.47,0,0,1-4.36-5.69,47.53,47.53,0,0,0-1.93,6.8,56.45,56.45,0,0,0-.91,8.27Z"/><path class="cls-5" d="M62.34,236.82l-1.83,59.6-16.61.51q-1.57-30.78-3.16-61.56c-.71-2.33-1.42-4.72-2.11-7.16q-.81,8.73-1.89,17.76c-2.16,18-4.91,34.86-8,50.58l-18.21.21q3.08-27.74,6.16-55.48a112.72,112.72,0,0,0,.92-31.4c-.54-4.61-1.39-8.86-1-15.22a60.76,60.76,0,0,1,4.74-20.07l2,.49,16.52,4.13,3.91-.39L52,178c.21,1.16.41,2.33.62,3.5q3.72,21.21,7.45,42.41Q61.21,230.38,62.34,236.82Z"/><path class="cls-6" d="M10.51,296.93a.17.17,0,0,1-.18-.17.18.18,0,0,1,.17-.17l18.07-.21,7.07-43,2.82-25.15,2-13.1a.14.14,0,0,1,0-.06l3.62-6.58a.18.18,0,0,1,.23-.07.19.19,0,0,1,.07.24l-3.6,6.55-2,13.07L36,253.39l-7.09,43.19a.17.17,0,0,1-.17.14l-18.21.21Z"/><path class="cls-6" d="M27,286.88H14.19a.17.17,0,0,1-.17-.17.18.18,0,0,1,.17-.17H27a.18.18,0,0,1,.17.17A.17.17,0,0,1,27,286.88Z"/><path class="cls-6" d="M43.47,196a.18.18,0,0,1-.15-.08l-1.75-2.85a.17.17,0,0,1,0-.1v-8.44a.18.18,0,0,1,.17-.17.18.18,0,0,1,.18.17v8.4l1.73,2.8a.18.18,0,0,1-.06.24Z"/><path class="cls-6" d="M43.47,198.73h0a.18.18,0,0,1-.15-.19l.76-7.24a.18.18,0,0,1,.19-.15.17.17,0,0,1,.16.19l-.77,7.23A.17.17,0,0,1,43.47,198.73Z"/><path class="cls-6" d="M21.7,202.18a.16.16,0,0,1-.15-.1.17.17,0,0,1,.09-.23,16.16,16.16,0,0,0,7.56-6.67,15.17,15.17,0,0,0,1.87-5.53.18.18,0,0,1,.35,0,15.84,15.84,0,0,1-1.92,5.65,16.48,16.48,0,0,1-7.73,6.82Z"/><path class="cls-6" d="M54.6,200.29h0a7.43,7.43,0,0,1-3.28-1.18c-3.86-2.56-3.65-7.82-3.62-8.41a.18.18,0,0,1,.19-.16.18.18,0,0,1,.16.18c0,.23-.3,5.61,3.46,8.1A7.06,7.06,0,0,0,54.62,200a.18.18,0,0,1,.15.19A.17.17,0,0,1,54.6,200.29Z"/><path class="cls-6" d="M19.9,277.51h0a.18.18,0,0,1-.15-.19l6.58-54.77v-15.7a.17.17,0,0,1,.17-.17.17.17,0,0,1,.18.17v15.72l-6.58,54.79A.17.17,0,0,1,19.9,277.51Z"/><path class="cls-6" d="M55,275.37h0a.17.17,0,0,1-.17-.18l1.59-41.25-5.38-20.72a.17.17,0,0,1,.13-.21.17.17,0,0,1,.21.12l5.38,20.74s0,0,0,0l-1.59,41.29A.17.17,0,0,1,55,275.37Z"/><path class="cls-6" d="M59,287.87H47.84a.18.18,0,0,1-.17-.17.17.17,0,0,1,.17-.17H59a.17.17,0,0,1,.17.17A.18.18,0,0,1,59,287.87Z"/><path class="cls-7" d="M59.62,107.35A11.82,11.82,0,0,0,54,101.69a42.51,42.51,0,0,0-13.49,4.2c-1.37.7-2.62,1.44-3.77,2.18a.21.21,0,0,0-.1-.08.17.17,0,0,0-.21.13l-.06.2-.3.19q-.37,1.26-.75,2.55a9.12,9.12,0,0,1-3.07,3.63c-.31.2-.61.36-.9.51a4.54,4.54,0,0,0-1.78,1.43c-1,1.39-1,3.44,0,6.08a.18.18,0,0,0,.17.11h.06a.17.17,0,0,0,.1-.22c-.92-2.53-.94-4.47-.05-5.77a4.22,4.22,0,0,1,1.67-1.31c.29-.16.59-.32.92-.53a8.68,8.68,0,0,0,2.48-2.53v0a27.83,27.83,0,0,0-2.93,5.2c-1.39,3.22-1.29,4.65-1.22,5.22a9,9,0,0,0,.72,2.47,12.09,12.09,0,0,0,2.09,3.24c1.91,2.06,6.75,3.6,7.1,3.67A19.08,19.08,0,0,0,53.94,130a4.82,4.82,0,0,0,1.88-1.61c1-1.4,2.17-5.07,3.09-8.69a7.53,7.53,0,0,1-.24,1.79,3.89,3.89,0,0,0,0,2.31,3.39,3.39,0,0,0,.89,1.34.19.19,0,0,0,.12,0,.17.17,0,0,0,.13,0,.17.17,0,0,0,0-.24,3.15,3.15,0,0,1-.81-1.21,3.55,3.55,0,0,1,0-2.14,10.42,10.42,0,0,0,.22-3.18c.32-1.33.59-2.62.78-3.74A12.22,12.22,0,0,0,59.62,107.35Z"/><path class="cls-3" d="M46.35,155c-2.75.32-5-3.76-6.35-6.13-3.89-6.76-3.73-14-3.08-18.61a3.1,3.1,0,0,0,2.52-.09,2.65,2.65,0,0,0,1-1.09,13.22,13.22,0,0,0,1.17-5.37,12.93,12.93,0,0,1,2.12-6L49.14,119l-1,11.55a.71.71,0,0,0,.37.7h0l1.84.79c.75.32,1.51.64,2.25,1a20,20,0,0,1,1.1,8.07C53.23,147.5,49.69,154.57,46.35,155Z"/><path class="cls-8" d="M49.14,119l-1,11.19A6.31,6.31,0,0,1,43,127.7a9.15,9.15,0,0,1-.52-9.28Z"/><path class="cls-3" d="M41.53,104.53l13.88,1.08L56.79,108a4,4,0,0,1,1.59,2.81,9.18,9.18,0,0,1-.11,1.09c-.13,1-.28,1.83-.43,2.66a37.72,37.72,0,0,1-1.67,6.17c-.45,1.21-.79,2.15-1.18,3A10.23,10.23,0,0,1,53.57,126a8,8,0,0,1-3.71,2.38,1.87,1.87,0,0,1-1.43-.12,16.27,16.27,0,0,1-5.68-4.91,16.6,16.6,0,0,1-3-10.38A12.66,12.66,0,0,1,41.53,104.53Z"/><path class="cls-9" d="M52.12,124.76a.15.15,0,0,0-.14-.25,4.15,4.15,0,0,1-3.61-1.41.15.15,0,0,0-.27.1,2.26,2.26,0,0,0,4,1.56Z"/><path class="cls-10" d="M49,117c-.09.41.07.8.34.86s.57-.24.66-.66-.07-.8-.35-.86S49.13,116.6,49,117Z"/><path class="cls-10" d="M54.31,118.33c-.09.42.07.81.34.86s.57-.23.66-.65-.07-.81-.35-.86S54.39,117.92,54.31,118.33Z"/><path class="cls-11" d="M51.66,122.65h0a4.25,4.25,0,0,0,1.56-.69c.33-.38-.05-1.63-.23-2.16a.18.18,0,0,0-.24-.11.19.19,0,0,0-.12.24A3.73,3.73,0,0,1,53,121.7a4,4,0,0,1-1.37.57.18.18,0,0,0-.14.23A.19.19,0,0,0,51.66,122.65Z"/><path class="cls-7" d="M48.12,114.74h0a5.84,5.84,0,0,1,1.51,0c.69.17,1,.67,1.07.59s-.12-1.09-.84-1.34A1.64,1.64,0,0,0,48.12,114.74Z"/><path class="cls-7" d="M54,116c.05.12.74-.3,1.44,0,.44.2.85.69.89.65h0a1.4,1.4,0,0,0-.86-1.34A1.34,1.34,0,0,0,54,116Z"/><path class="cls-7" d="M38.14,104.14a10.75,10.75,0,0,1,4.38-4.07c3.51-1.57,7.11-.25,8.85.38a14.23,14.23,0,0,1,3.34,1.74,11.72,11.72,0,0,1,3,2.87,8.67,8.67,0,0,1,1.92,5.32,7.91,7.91,0,0,1-1.55,4.42c-.34-1-.69-2-1-3.06a51.31,51.31,0,0,1-5.25,1.33,47.83,47.83,0,0,1-5.13.73c-.46,1-.92,2-1.37,3q-2.26,5.06-4.29,10c-.33-1.42-.67-2.83-1-4.25a6.89,6.89,0,0,0-1.37-3.26,5,5,0,0,0-2.2-1.42c-.15-.37-.3-.8-.45-1.28,0,0-.27-.86-.42-1.6a12.56,12.56,0,0,1,.07-4.48A15.24,15.24,0,0,1,38.14,104.14Z"/><path class="cls-4" d="M56.6,134.79c-.15,2.88-.31,5.75-.46,8.63q-1,18.79-2,37.59a11.84,11.84,0,0,1-1.48.51c-.36.09-.75.19-1.16.26h-.05a15.09,15.09,0,0,1-3.7,0c-2.06-.05-3.78-.21-5.09-.37l-1.54-.19c-4.37-.59-11.12-1.36-19.76-2.38a33.41,33.41,0,0,0,2-3.79,30.78,30.78,0,0,0,2-6.52c.59-3,1.17-14.82,1.38-21.75,0-1.4.06-2.59.07-3.48,0-1.61,0-2.63,0-3.16h0s0-.21,0-.36.59-3.7,1.44-8.71l8.57,1.73a11.08,11.08,0,0,0,8.31,4.44,10.5,10.5,0,0,0,5.65-1.55,8.92,8.92,0,0,0,.75-.49,9.8,9.8,0,0,0,.8-.64Z"/><path class="cls-12" d="M45.24,137.41l-.56,0A10,10,0,0,1,40,135.91a.17.17,0,1,1,.18-.29,9.53,9.53,0,0,0,8.88.64.19.19,0,0,1,.23.09.17.17,0,0,1-.09.23A9.88,9.88,0,0,1,45.24,137.41Z"/><path class="cls-12" d="M44.38,139.27H44a10.34,10.34,0,0,1-4.85-1.42.16.16,0,0,1-.06-.23.18.18,0,0,1,.24-.07,9.94,9.94,0,0,0,8.72.69.19.19,0,0,1,.23.1.17.17,0,0,1-.1.22A10.28,10.28,0,0,1,44.38,139.27Z"/><path class="cls-5" d="M39.43,130.13c-3,14.35-5.16,25.75-6.64,33.74-.73,3.94-1.11,6.09-1.25,6.89-2.12,12.05-3.52,22-4.43,29A21.77,21.77,0,0,1,19,196.52c-.5-.33-1-.68-1.4-1a21.31,21.31,0,0,1-2.49-2.3c.81-4,1.48-7.37,2-10.27,1.18-6.14,1.86-10.06,2.24-12.59.07-.5.13-.93.18-1.33l0-.28c0-.2.05-.41.08-.64A166,166,0,0,1,25.43,140c1.21-4,2.35-7.3,3.13-9.44l7-.24Z"/><path class="cls-13" d="M30.7,167.56a21.45,21.45,0,0,1-5.12,9.85,21.14,21.14,0,0,1-8.45,5.52c1.18-6.14,1.86-10.06,2.24-12.59Z"/><path class="cls-5" d="M87.9,166l-5.47,7.65-11.9-6.13-2.71-1.4-11.09-8.35L55,156.51,56.93,150l1.55-5.24,3.1-10.5,2.69,2L78,157.25Z"/><path class="cls-14" d="M70.53,167.56l-2.71-1.4-11.09-8.35.2-7.77.21-8.49,1.34,3.25,5.79,14.08Z"/><path class="cls-15" d="M60.07,223.93c-.39-.24-.8-.51-1.22-.8-4.63-3.24-5.61-6.73-10.34-11.82-1.3-1.4-7.55-8.16-8.24-10.35-2.14-6.9-.25-13.13,2.35-19.52.35-.87.72-1.74,1.09-2.62a78.07,78.07,0,0,0,4.72-13.27c2.56-11.47,2.49-24.92,2.36-29.84,0-1.23-.06-1.93-.06-1.93l.81,1.44,4.6,8.2q-1,18.79-2,37.59a11.84,11.84,0,0,1-1.48.51Q56.34,202.73,60.07,223.93Z"/><path class="cls-5" d="M51.18,153.91c-.37,6.23-1.32,9.4-2,15.06a92.67,92.67,0,0,0,.93,28.64l6.68-2.91a155.55,155.55,0,0,1,1-20.66c.15-1.33,1.65-13.79,2.08-18,.22-2.15.42-4.31.42-4.31.08-.92.16-1.88.25-2.85.55-6.15.89-11.22,1.1-14.55h0L50,131.68l-1.19-.27A71.12,71.12,0,0,1,51.18,153.91Z"/><path class="cls-3" d="M37.82,154l5.82-2.81,6.77-.79a1.21,1.21,0,0,1-.8,1.49,10.82,10.82,0,0,1-2.86.66l-1.19,2,5.67-1.71A38.77,38.77,0,0,1,55,149.32a1.93,1.93,0,0,1,1.59,0L53,154.23s-5.37,4.62-8,5-9.41,1.88-9.41,1.88Z"/><path class="cls-5" d="M28.56,130.51,31.8,153l8.3-1.65-1.85,16.49a76.4,76.4,0,0,1-12.33,4.45c-5.62,1.51-8.42,2.26-9.93,1.2-1.9-1.32-1.47-3.86,1.59-25.23a50.4,50.4,0,0,1,2.69-9.57c1.61-4.32,2.85-6.13,4.78-7.19A8,8,0,0,1,28.56,130.51Z"/><path class="cls-16" d="M31.8,153.15a.17.17,0,0,1-.1,0,.15.15,0,0,1-.07-.12l-1.92-13.3a.18.18,0,0,1,.15-.2.18.18,0,0,1,.19.15l1.89,13.12,8.13-1.62a.17.17,0,0,1,.2.13.18.18,0,0,1-.13.21l-8.31,1.65Z"/><path class="cls-16" d="M18.17,166.73h0a.16.16,0,0,1-.17-.17,14,14,0,0,1,3.74-9.41,14.24,14.24,0,0,1,9.67-4.35.18.18,0,0,1,.18.17.18.18,0,0,1-.17.18A13.9,13.9,0,0,0,22,157.38a13.69,13.69,0,0,0-3.66,9.18A.18.18,0,0,1,18.17,166.73Z"/><path class="cls-16" d="M29.88,169.28a.17.17,0,0,1-.17-.17A47,47,0,0,1,30.53,159a48.14,48.14,0,0,1,1.37-5.41.17.17,0,1,1,.33.11,44.91,44.91,0,0,0-1.36,5.37,46.94,46.94,0,0,0-.82,10,.16.16,0,0,1-.16.18Z"/><path class="cls-16" d="M17.26,174.09a.17.17,0,0,1-.17-.16.17.17,0,0,1,.15-.19,67.55,67.55,0,0,0,8.24-1.54,68.2,68.2,0,0,0,10-3.37.17.17,0,0,1,.13.31,68.81,68.81,0,0,1-10.06,3.4,70.75,70.75,0,0,1-8.29,1.55Z"/><path class="cls-16" d="M57.31,178.33h0a.17.17,0,0,1-.15-.19q1-9.19,2-18.39l1-9.74a.17.17,0,0,1,.19-.16.18.18,0,0,1,.15.19l-1.05,9.75q-1,9.19-2,18.39A.16.16,0,0,1,57.31,178.33Z"/><path class="cls-16" d="M66.84,165.59a.17.17,0,0,1-.1,0l-5.68-4.28a.17.17,0,0,1,0-.24.17.17,0,0,1,.24,0L67,165.28a.17.17,0,0,1,0,.24A.16.16,0,0,1,66.84,165.59Z"/><path class="cls-16" d="M72.73,149.43a.21.21,0,0,1-.14-.07c-4.3-5.86-6.82-9.53-8.19-11.91l0,0a7,7,0,0,0-2.86-2.95,6.59,6.59,0,0,0-3.13-.71.17.17,0,0,1,0-.34,6.73,6.73,0,0,1,3.29.74,7.43,7.43,0,0,1,3,3.09l0,0c1.36,2.36,3.88,6,8.17,11.87a.17.17,0,0,1,0,.24A.15.15,0,0,1,72.73,149.43Z"/><path class="cls-16" d="M20.34,182.09a.18.18,0,0,1-.21-.17.17.17,0,0,1,.18-.17h0a6.3,6.3,0,0,0,3.89-1.35,6.44,6.44,0,0,0,2.25-3.6.17.17,0,0,1,.34.07,6.63,6.63,0,0,1-6.48,5.22Z"/><path class="cls-16" d="M54.77,182.09h0a4.49,4.49,0,0,1-2.32-.67,5,5,0,0,1-2.14-3.58.18.18,0,0,1,.35,0,4.62,4.62,0,0,0,2,3.32,4.14,4.14,0,0,0,2.14.62.17.17,0,1,1,0,.34Z"/><path class="cls-16" d="M25.4,196l-.08,0-9-5.13a.16.16,0,0,1-.06-.23.18.18,0,0,1,.23-.07l9,5.13a.19.19,0,0,1,.07.24A.2.2,0,0,1,25.4,196Z"/><path class="cls-16" d="M50.9,194.28a.18.18,0,0,1-.16-.1.17.17,0,0,1,.08-.23l4.77-2.38a.16.16,0,0,1,.23.07.18.18,0,0,1-.08.24L51,194.26Z"/><path class="cls-17" d="M109.88,307.07c8,.8,13.62,2.57,14.3,3.95a5.87,5.87,0,0,1,.54,1.66,7.43,7.43,0,0,1,0,1.4.86.86,0,0,1-.84.83H99.05a1.45,1.45,0,0,1-1.43-1.65l.82-6.19Z"/><path class="cls-17" d="M78.58,307.07c7.65.8,13.1,2.57,13.75,3.95a6.2,6.2,0,0,1,.52,1.66,8.33,8.33,0,0,1,0,1.4.83.83,0,0,1-.8.83H68.18a1.43,1.43,0,0,1-1.37-1.65l.79-6.19Z"/><path class="cls-4" d="M111.52,307.26a22.47,22.47,0,0,1-5.73.92,23,23,0,0,1-7.23-.92l-4.71-44.58q-3.69-10.38-7.37-20.76c-.34.77-.66,1.54-1,2.31q-.74,9.56-1.48,19.11Q82.37,278.1,81.41,294q-.39,6.64-.61,13.11a21,21,0,0,1-8.17,1,19.92,19.92,0,0,1-4.94-1c-.23-7.54-.69-19-1.73-33-.18-2.42-.36-4.6-.52-6.55-.5-6.06-.93-10.44-1-10.85-.34-3.48-.33-11.9.57-30.55.21-4.47.47-9.53.8-15.25q.2-3.33.4-7l7.34,2.73,5.18,1L106,212.71l.4.08.07.64.36,3.25q2.27,20.65,4.52,41.32Q111.46,282.63,111.52,307.26Z"/><path class="cls-16" d="M81.21,297.84h0a.17.17,0,0,1-.16-.19l1.76-24.18,2.51-29.26,0-.05,1-2.31,5.36-11.06a.17.17,0,0,1,.23-.08.18.18,0,0,1,.08.23L86.63,242l-1,2.27-2.52,29.22-1.76,24.19A.17.17,0,0,1,81.21,297.84Z"/><path class="cls-16" d="M78.78,300.61H68.61a.17.17,0,0,1-.17-.17.17.17,0,0,1,.17-.18H78.78a.18.18,0,0,1,.17.18A.18.18,0,0,1,78.78,300.61Z"/><path class="cls-16" d="M108.88,301.27h-8.76a.17.17,0,0,1-.17-.18.17.17,0,0,1,.17-.17h8.76a.18.18,0,0,1,.18.17A.18.18,0,0,1,108.88,301.27Z"/><path class="cls-16" d="M68.61,224.3a.18.18,0,0,1-.17-.14.17.17,0,0,1,.14-.21,10.76,10.76,0,0,0,7.85-6.46.18.18,0,0,1,.23-.09.17.17,0,0,1,.09.23,11.16,11.16,0,0,1-8.11,6.66Z"/><path class="cls-16" d="M105.64,226.78a5.6,5.6,0,0,1-5.69-5.95.17.17,0,1,1,.34,0,5.28,5.28,0,0,0,5.74,5.57.17.17,0,1,1,0,.34Z"/><path class="cls-18" d="M107.07,216.65l-.21,0a70.75,70.75,0,0,1-41-5.75l-1.11-.53q.77-3.22,1.51-6.45L79,206.75l27.06,6,.36.08.11.64Z"/><path class="cls-3" d="M118.25,157.14a14,14,0,0,1-15.49,6.64c-6.92-1.69-11.54-8.73-9.4-15.62,1.35-.06,2.8-.08,4.36,0,.72,0,1.41.06,2.07.11a5.53,5.53,0,0,0,1.78-.17,4.51,4.51,0,0,0,2.93-2.34q.27-.56.48-1a22.43,22.43,0,0,0,1.64-4.87,16.33,16.33,0,0,0,.25-1.64q2.88,1.26,6,2.51,1.95.78,3.87,1.5c-.17.44-.35.87-.52,1.3l-3.06,7.73a2.43,2.43,0,0,0,.3,2.36v0A11.29,11.29,0,0,0,118.25,157.14Z"/><path class="cls-8" d="M116.71,142.22c-.17.44-.35.87-.52,1.3a11.67,11.67,0,0,1-7.87,5.58,11.24,11.24,0,0,1-6.75-1,4.51,4.51,0,0,0,2.93-2.34q.27-.56.48-1a22.43,22.43,0,0,0,1.64-4.87,16.33,16.33,0,0,0,.25-1.64q2.88,1.26,6,2.51Q114.79,141.5,116.71,142.22Z"/><path class="cls-18" d="M100.5,148.3c1.34,5.4,5.49,8.53,8.83,8.08a6.51,6.51,0,0,0,4.11-2.75l2.85,1.84c-.79,2.47-1.57,4.94-2.36,7.41-1.6,3.82-3.69,5.45-5.39,6.21-3.05,1.38-8,1.4-8,1.4h0s-2.17-3.39-3.4-5.46c-1.09-1.83-1.15-3.55-1.31-5.5a30.82,30.82,0,0,1,1.72-12Z"/><path class="cls-3" d="M120.2,140h0l0,0a.68.68,0,0,1,.12-.11s6.19-4.75,6.27-9.26c.07-4-4.55-8.36-9.53-8.62a9.89,9.89,0,0,0-7.48,2.92,20.24,20.24,0,0,0-2.75,4.48l-.44,1c-.33.73-.48,1-.94,2.17-.19.45-.38.92-.59,1.46a19.62,19.62,0,0,0-1.68,6.31,2.44,2.44,0,0,0,0,.28,38.19,38.19,0,0,0,.15,3.93,2.53,2.53,0,0,0,1.94,2.2l5.66,1.3a1.27,1.27,0,0,0,.9-.12q2.18-1.19,4.48-2.33l1.35-.67.08-.06C118.91,143.76,118.48,142.28,120.2,140Z"/><path class="cls-19" d="M109.24,128.59l0,0c1,.48,2,.93,3,1.33s2.16.79,3.25,1.12a.14.14,0,0,0,.08-.26c-1.09-.32-2.17-.7-3.23-1.11s-2-.85-3-1.33a.14.14,0,0,0-.18.07A.12.12,0,0,0,109.24,128.59Z"/><path class="cls-19" d="M109.52,127.15h0c.89.5,1.81,1,2.75,1.39a33.05,33.05,0,0,0,4,1.49.14.14,0,0,0,.17-.1.13.13,0,0,0-.1-.16,33,33,0,0,1-4-1.48c-.93-.41-1.85-.88-2.73-1.37a.13.13,0,0,0-.19,0A.14.14,0,0,0,109.52,127.15Z"/><path class="cls-20" d="M111.4,136.21a.18.18,0,0,0,.24,0,1.53,1.53,0,0,1,1.54-.23,1.61,1.61,0,0,1,1,1.38.22.22,0,0,0,.21.19.19.19,0,0,0,.18-.2,2,2,0,0,0-1.26-1.72,1.87,1.87,0,0,0-1.93.29.19.19,0,0,0,0,.27Z"/><path class="cls-20" d="M106.49,133.94h0a.2.2,0,0,0,.27,0,1.09,1.09,0,0,1,1.89.09,1.25,1.25,0,0,1,.1,1,.21.21,0,0,0,.14.25.19.19,0,0,0,.24-.12,1.69,1.69,0,0,0-.14-1.3,1.55,1.55,0,0,0-.88-.74,1.52,1.52,0,0,0-1.67.59A.19.19,0,0,0,106.49,133.94Z"/><path class="cls-21" d="M107.21,139.27a.25.25,0,0,0,.22,0,.18.18,0,0,0,.06-.26c-.25-.41-.33-.73-.23-.92s.37-.25.56-.29l.07,0a4,4,0,0,0,2.21-1.69.2.2,0,0,0,0-.27h0a.19.19,0,0,0-.27,0,3.68,3.68,0,0,1-2,1.55h-.06a1.13,1.13,0,0,0-.81.48,1.36,1.36,0,0,0,.25,1.29Z"/><path class="cls-22" d="M105.88,141a.09.09,0,0,1,.15-.08,7.34,7.34,0,0,0,5.83,1.41.1.1,0,0,1,.08.17c-1.53,1.53-3.31,2.15-4.37,1.58a3.48,3.48,0,0,1-1-1.09A4.15,4.15,0,0,1,105.88,141Z"/><path class="cls-19" d="M112.6,133.47a.38.38,0,0,0,.33.07,2.54,2.54,0,0,1,1.51.13,2.6,2.6,0,0,1,1.21,1,.4.4,0,0,0,.53.13.37.37,0,0,0,.11-.53,3.5,3.5,0,0,0-1.59-1.3,3.32,3.32,0,0,0-2-.16.37.37,0,0,0-.27.45A.48.48,0,0,0,112.6,133.47Z"/><path class="cls-19" d="M107,131.11a.38.38,0,0,0,.4,0,1.54,1.54,0,0,1,1.06-.06,1.72,1.72,0,0,1,1,.85.4.4,0,0,0,.52.19.37.37,0,0,0,.18-.5,2.6,2.6,0,0,0-1.48-1.27,2.36,2.36,0,0,0-1.61.09.36.36,0,0,0-.17.5A.35.35,0,0,0,107,131.11Z"/><path class="cls-19" d="M121.09,129.17c.4-.24.75-.09,1.84.05,2.85.38,3.24.46,3.66.85a3,3,0,0,1,.8,1.46,7,7,0,0,1-.23,4.39c-.42,1.3-2.16,6.58-7.48,8.83a11.92,11.92,0,0,1-3.36.86c.35-.57.66-1,.86-1.31a12.91,12.91,0,0,0,1.69-3,1.82,1.82,0,0,0,0-.46,1.34,1.34,0,0,1,0-.35c0-.32-.53-1-.71-1.52a2.18,2.18,0,0,1,.1-1.4c.09-.32.19-.61.28-.85.17-.43.33-.73.36-.8a39.87,39.87,0,0,0,1.34-5C120.56,129.77,120.71,129.39,121.09,129.17Z"/><path class="cls-3" d="M120.22,139.28a3.44,3.44,0,0,1,1.46-.78,2.7,2.7,0,0,1,2.58.57c.77,1-.17,2.7-.89,3.51a4.2,4.2,0,0,1-3.68,1.4,2.06,2.06,0,0,1-1.17-.63,1.55,1.55,0,0,1-.21-.33c-.51.55-1,1.11-1.52,1.67l.25-2.6A35.22,35.22,0,0,1,120.22,139.28Z"/><path class="cls-21" d="M119.56,142.86l-.07-.07a.2.2,0,0,1-.06-.15.16.16,0,0,1,.08-.14,3.48,3.48,0,0,0,.64-.63h-.07a.51.51,0,0,1-.5-.16.56.56,0,0,1,0-.53,3.21,3.21,0,0,1,2.15-1.65,3,3,0,0,1,1.44.12.2.2,0,1,1-.14.38,2.36,2.36,0,0,0-1.23-.1,2.68,2.68,0,0,0-1.9,1.54h.15c.16,0,.39,0,.49.18s0,.52-.62,1a1.33,1.33,0,0,0,1.27.17,1.37,1.37,0,0,0,.73-.84.2.2,0,0,1,.25-.14.2.2,0,0,1,.13.25,1.79,1.79,0,0,1-1,1.1A1.76,1.76,0,0,1,119.56,142.86Zm.36-1.35h0Z"/><path class="cls-8" d="M131.13,197.81l4.76,4.62c-.44,2.33-1.23,3.09-1.89,3.33s-1.05,0-2.67-.17c-1.12-.13-2.05-.17-2.67-.18a2.46,2.46,0,0,1-1.47-.51,3.18,3.18,0,0,1-.69-3.58l2.21-2.54Z"/><path class="cls-18" d="M131.27,197.08c-.33,1.71-.65,3.43-1,5.15a16.23,16.23,0,0,1-9.26,1.69,12.41,12.41,0,0,1-2.89-.77,12.81,12.81,0,0,1-4.07-2.59l-7-13.13-.16-.31,12.16-27.93a3.8,3.8,0,0,1,3,0c.95.5,2.59,2.16,1.53,12.19a88.55,88.55,0,0,1-3.44,16.72Z"/><path class="cls-23" d="M121,203.92a12.41,12.41,0,0,1-2.89-.77,12.81,12.81,0,0,1-4.07-2.59l-7-13.13,3.11-6.76,5-8.35,1.32,19.23Z"/><path class="cls-16" d="M121.38,201.14a.22.22,0,0,1-.16-.09.19.19,0,0,1,.07-.24l4.19-2.32,2.13-2.49a.17.17,0,0,1,.25,0,.17.17,0,0,1,0,.24l-2.15,2.52,0,0-4.22,2.33Z"/><path class="cls-16" d="M130.13,198.71l-.07,0-2-.94a.18.18,0,0,1-.08-.23.18.18,0,0,1,.23-.08l2,.94a.17.17,0,0,1,.09.23A.18.18,0,0,1,130.13,198.71Z"/><path class="cls-16" d="M129.14,200.5l-.09,0-2.46-1.54a.17.17,0,0,1-.06-.24.18.18,0,0,1,.24,0l2.47,1.53a.17.17,0,0,1-.1.32Z"/><path class="cls-16" d="M126.68,201.29a.16.16,0,0,1-.09,0l-2.11-1.21a.16.16,0,0,1-.07-.23.18.18,0,0,1,.24-.07l2.11,1.21a.18.18,0,0,1,.07.24A.18.18,0,0,1,126.68,201.29Z"/><path class="cls-24" d="M122,159.19c-.06,1.19-.15,2.33-.26,3.44-.18,1.75-.43,3.39-.71,4.93a55.8,55.8,0,0,1-1.79,7c-.45,1.4-.93,2.66-1.39,3.77-.09.21-.17.42-.26.62-1.36,3.17-2.42,4.74-3.25,7.25a23.17,23.17,0,0,0-.69,2.59c-.14.68-.25,1.32-.34,1.92a34.45,34.45,0,0,0-.23,5.54,22.52,22.52,0,0,1-.26,4.63,17.88,17.88,0,0,1-.43,1.89,20.62,20.62,0,0,1-1.82,4.42,25.87,25.87,0,0,1-3.43,4.8l-.75.8h0c-1.55.16-3,.27-4.41.32-2.17.09-4.15.08-5.89,0-.75,0-1.46-.07-2.12-.12s-1.39-.12-2-.18c-2.42-.25-4.35-.58-5.54-.8l-.26,0c-.83-.16-2.35-.46-4.06-.89-.71-.18-1.46-.39-2.2-.61L78.54,210c-1-.32-2-.72-3.23-1.22s-2.55-1.12-4-1.87-3.29-1.82-5.08-3c0-.46-.07-1-.09-1.52a37.62,37.62,0,0,1,.11-5.2c0-.5.1-1,.17-1.56a23.2,23.2,0,0,1,1.17-5c.41-1.19.94-2.54,1.64-4.36.45-1.18,1-2.56,1.59-4.23.41-1.12.81-2.2,1.19-3.25.57-1.52,1.1-3,1.61-4.33C75,171,76.15,168,77.28,165.34c.54-1.25,1.06-2.4,1.58-3.47l.36-.72c.22-.44.44-.85.65-1.25l.49-.88c.45-.77,1.71-2.17,3.87-5l.37-.48,1.94-2.53.84-1.11c1.19-1.58,2.17-2.91,2.91-3.9q1.23.19,2.49.45c1.11.21,2.24.44,3.4.72l.64.14c.72.16,1.43.34,2.13.53,0,.33,0,2.24.26,4.62l0,.39a36.58,36.58,0,0,0,.9,5.13,11.72,11.72,0,0,0,2.07,4.48c.11.13.24.29.41.46a4.8,4.8,0,0,0,2.59,1.48,4.46,4.46,0,0,0,1.31,0,6,6,0,0,0,2-.66,7.15,7.15,0,0,0,2.17-1.66,10.43,10.43,0,0,0,2-3.66c0-.15.09-.29.13-.43a16.81,16.81,0,0,0,.4-1.72,12.45,12.45,0,0,0,.18-2.73l3.7,2.4Z"/><path class="cls-25" d="M92.78,146.5a301.51,301.51,0,0,0-12.65,38.66c-1.76,6.94-3.3,14-4.56,21.09l-.26,2.57c-1.22-.51-2.55-1.12-4-1.87l.14-1.36c1.28-7.17,2.84-14.39,4.63-21.45a308.56,308.56,0,0,1,10.44-33.08c1.57-2.07,2.85-3.79,3.75-5Q91.52,146.25,92.78,146.5Z"/><path class="cls-25" d="M99.21,152.51c-3.62,15.71-7.15,31.6-10.51,47.32q-1.29,6-2.57,12.13c-.83-.16-2.35-.46-4.06-.89.85-4,1.71-8.11,2.57-12.11,3.68-17.2,7.55-34.59,11.54-51.74l.64.14c.72.16,1.43.34,2.13.53C99,148.22,99,150.13,99.21,152.51Z"/><path class="cls-25" d="M106.53,164.48c-2.07,8.46-4,17-5.82,25.46-1.64,7.66-3.18,15.43-4.62,23.17-.75,0-1.46-.07-2.12-.12s-1.39-.12-2-.18c1.46-7.93,3-15.88,4.72-23.73,1.85-8.69,3.85-17.43,6-26.11a4.8,4.8,0,0,0,2.59,1.48A4.46,4.46,0,0,0,106.53,164.48Z"/><path class="cls-25" d="M117.14,156c-.64,6.92-1.53,13.84-2.64,20.67a309.42,309.42,0,0,1-8.11,36.1c-1.55.16-3,.27-4.41.32A306.94,306.94,0,0,0,110.41,176c.93-5.79,1.71-11.65,2.32-17.52a15.73,15.73,0,0,0,.53-2.15,12.45,12.45,0,0,0,.18-2.73Z"/><path class="cls-26" d="M99.25,152.9a36.58,36.58,0,0,0,.9,5.13,107.37,107.37,0,0,0-15.92-4l.37-.48,1.94-2.53.84-1.11A110,110,0,0,1,99.25,152.9Z"/><path class="cls-26" d="M121.78,162.63c-.18,1.75-.43,3.39-.71,4.93a105.15,105.15,0,0,0-10.37-5.4,10.43,10.43,0,0,0,2-3.66c0-.15.09-.29.13-.43C115.9,159.45,118.87,161,121.78,162.63Z"/><path class="cls-26" d="M119.28,174.56c-.45,1.4-.93,2.66-1.39,3.77-.09.21-.17.42-.26.62a107.45,107.45,0,0,1-15.2-4c-1.57-.54-2.73-1-6.55-2.46l-8.52-3.27-10.08-3.84c.66-1.54,1.31-2.93,1.94-4.19L89,164.87l8.53,3.28c3.77,1.44,4.91,1.88,6.41,2.4A100.64,100.64,0,0,0,119.28,174.56Z"/><path class="cls-26" d="M114.38,186.2a23.17,23.17,0,0,0-.69,2.59c-.14.68-.25,1.32-.34,1.92-4.45-.6-8.86-1.41-13.22-2.4A150.11,150.11,0,0,1,72,178.84c.57-1.52,1.1-3,1.61-4.33a146.67,146.67,0,0,0,27.52,9.3C105.52,184.8,109.93,185.61,114.38,186.2Z"/><path class="cls-26" d="M112.86,200.88c-1.26.05-2.52.08-3.78.08a88.7,88.7,0,0,1-41.47-10.28c.41-1.19.94-2.54,1.64-4.36a84.29,84.29,0,0,0,43.87,9.93A22.52,22.52,0,0,1,112.86,200.88Z"/><path class="cls-26" d="M110.61,207.19a25.87,25.87,0,0,1-3.43,4.8c-.85,0-1.69,0-2.53,0a81.91,81.91,0,0,1-38.49-9.6,37.62,37.62,0,0,1,.11-5.2,77.39,77.39,0,0,0,44.34,10Z"/><path class="cls-27" d="M83.83,314.75h5.64a1.37,1.37,0,0,0,1.37-1.3l.27-4.9a1.37,1.37,0,0,0-1.37-1.45h-.93l1.71-25.87h76.37l.89,13.48a10.26,10.26,0,1,0,2.89-.29l-.95-14.4a2,2,0,0,0,0-.25,1.41,1.41,0,0,0-.07-.41l-3.9-59.08c-.71-10.81-7.57-19-16-19H135.08a1.86,1.86,0,0,0-1.64-1h-14a1.86,1.86,0,0,0-1.64,1H107.63c-8.39,0-15.26,8.14-16,19L85.9,307.1H84.7a1.38,1.38,0,0,0-1.36,1.13l-.87,4.91A1.37,1.37,0,0,0,83.83,314.75Zm6.89-36.43,3.83-57.86c.61-9.11,6.35-16.24,13.08-16.24h10.81a1.85,1.85,0,0,0,1,.3h14a1.85,1.85,0,0,0,1-.3h15.35c6.73,0,12.47,7.13,13.07,16.25l3.82,57.85Z"/><path class="cls-28" d="M156.4,311.54h.1a1.44,1.44,0,0,0,1.35-1.54l-5.92-89.72c-.71-10.81-7.58-19-16-19H93.78c-8.38,0-15.25,8.14-16,19L71.9,309.49a1.45,1.45,0,0,0,2.9.19l5.91-89.22c.6-9.11,6.35-16.24,13.07-16.24H136c6.72,0,12.47,7.13,13.07,16.25L155,310.19A1.44,1.44,0,0,0,156.4,311.54Z"/><path class="cls-28" d="M75.32,281.23h79.13a1.46,1.46,0,0,0,0-2.91H75.32a1.46,1.46,0,0,0,0,2.91Z"/><circle class="cls-28" cx="156.41" cy="304.66" r="10.26" transform="translate(-184.92 332.57) rotate(-67.5)"/><circle class="cls-29" cx="156.41" cy="304.66" r="5" transform="translate(-65.81 44.08) rotate(-13.28)"/><path class="cls-28" d="M70,314.75h5.65a1.37,1.37,0,0,0,1.37-1.3l.27-4.9a1.37,1.37,0,0,0-1.37-1.45H70.85a1.38,1.38,0,0,0-1.35,1.13l-.87,4.91A1.37,1.37,0,0,0,70,314.75Z"/><rect class="cls-30" x="103.74" y="200.33" width="17.74" height="4.19" rx="1.88" transform="translate(225.22 404.85) rotate(180)"/><path class="cls-3" d="M105.54,191.93l7.59,5.56,4.07,5.77v3.19l-2.32.34h-1.39a.93.93,0,0,0-.88,0c-.41.26-2.82-.43-2.82-.43l-2.72.49-1.53-1H105l-1.81-5.51L100.57,198Z"/><path class="cls-31" d="M102.59,193.39a38,38,0,0,1-11.81,6.88c-5.66,2-7.74,1.18-10,3.46a6.71,6.71,0,0,0-1.78,3,8.82,8.82,0,0,0-.2.89,16.83,16.83,0,0,0-.23,2.4,43,43,0,0,1-.29,5.32,12.89,12.89,0,0,1-1.45,4.32c-1.49,2.7-4.52,5.84-11.24,7.9l-.51-1.4c.21-4.47.47-9.53.8-15.25l-1.11-.53q.77-3.22,1.51-6.45c0-.46-.07-1-.09-1.52a37.62,37.62,0,0,1,.11-5.2c0-.5.1-1,.17-1.56a23.2,23.2,0,0,1,1.17-5c.41-1.19.94-2.54,1.64-4.36.45-1.18,1-2.56,1.59-4.23.41-1.12.81-2.2,1.19-3.25.57-1.52,1.1-3,1.61-4.33C75,171,76.15,168,77.28,165.34c.54-1.25,1.06-2.4,1.58-3.47L84.23,165Z"/><path class="cls-18" d="M90.29,146.05a58.87,58.87,0,0,1,3,12.84c.33,2.76.3,4.31.53,8.4.18,3.27.53,8.08,1.23,14l12,11-8.19,10.42A36.33,36.33,0,0,1,82.22,190c-6.75-9.64-6-19.33-5-31.32.45-5.62,1.39-9,4.15-11C84.44,145.51,88.35,145.77,90.29,146.05Z"/><path class="cls-16" d="M106.53,191.72a.19.19,0,0,1-.12,0L95,181.43a.23.23,0,0,1-.06-.12l-1.36-16.79a.16.16,0,0,1,.15-.18.17.17,0,0,1,.19.16l1.36,16.71,11.41,10.21a.17.17,0,0,1,0,.24A.18.18,0,0,1,106.53,191.72Z"/><path class="cls-16" d="M98.88,202.94l-.08,0-9.75-5,0,0a50.27,50.27,0,0,1-6-6.55,38.54,38.54,0,0,1-3.35-5,28.24,28.24,0,0,1-3.26-12.7.17.17,0,0,1,.17-.18.16.16,0,0,1,.17.17A27.88,27.88,0,0,0,80,186.24a37.79,37.79,0,0,0,3.32,4.93,50.61,50.61,0,0,0,5.92,6.49l9.72,5a.17.17,0,0,1-.07.33Z"/><path class="cls-16" d="M94.45,197.4l-.09,0a.18.18,0,0,1,0-.24l6.12-8.82a.18.18,0,0,1,.24-.05.17.17,0,0,1,0,.24l-6.11,8.83A.18.18,0,0,1,94.45,197.4Z"/><path class="cls-16" d="M129.2,195.59a.14.14,0,0,1-.1,0L120,188.23a.16.16,0,0,1-.06-.17l3.17-14.41a.17.17,0,0,1,.2-.13.17.17,0,0,1,.14.21L120.32,188l9,7.25a.17.17,0,0,1,0,.24A.17.17,0,0,1,129.2,195.59Z"/><path class="cls-16" d="M108.61,156.6a6.68,6.68,0,0,1-3.34-1,9.28,9.28,0,0,1-3.86-4.29.18.18,0,0,1,.08-.23.17.17,0,0,1,.23.09,9,9,0,0,0,3.72,4.13,5.86,5.86,0,0,0,3.86.95,5.21,5.21,0,0,0,2.76-1.33.18.18,0,0,1,.25,0,.17.17,0,0,1,0,.24,5.7,5.7,0,0,1-3,1.42A6.27,6.27,0,0,1,108.61,156.6Z"/><path class="cls-16" d="M100.42,201a.15.15,0,0,1-.11,0,.17.17,0,0,1,0-.24l5-6.42a.18.18,0,0,1,.25,0,.17.17,0,0,1,0,.24l-5,6.41A.21.21,0,0,1,100.42,201Z"/><path class="cls-16" d="M98.56,200.5a.17.17,0,0,1-.1,0l-3-2.07a.17.17,0,0,1,.2-.28l3,2.07a.16.16,0,0,1,0,.24A.16.16,0,0,1,98.56,200.5Z"/><path class="cls-16" d="M100.57,197.77a.11.11,0,0,1-.08,0L97.24,196a.17.17,0,0,1-.07-.24.17.17,0,0,1,.23-.07l3.25,1.73a.16.16,0,0,1,.07.23A.16.16,0,0,1,100.57,197.77Z"/><path class="cls-16" d="M102.42,194.56a.13.13,0,0,1-.09,0l-3.21-2a.18.18,0,0,1,.18-.3l3.21,2a.16.16,0,0,1,0,.23A.14.14,0,0,1,102.42,194.56Z"/><path class="cls-3" d="M281.78,177.84l4.5-20.15a14,14,0,0,1,5.83,1.25,10,10,0,0,1,5.07,4.06,11.2,11.2,0,0,1,1.36,4.4c.71,6.34,1.83,20.72,2.46,25a10.59,10.59,0,0,0,.9,3,9.23,9.23,0,0,0,2.35,3c1.75,1.57,4.59,4.13,7.68,5.18l.17.06a4.11,4.11,0,0,1,2.06,1.56c.41.64.84,1.85.51,2.31s-1,0-2.57-.49-1.32-.14-3.19-.78c-3.41-1.17-5.09-1.87-5.55-2-3.48-.81-5,.16-6.31-1.51a6.67,6.67,0,0,1-1.05-2.44,11.22,11.22,0,0,1-.28-4.29,4,4,0,0,0-.1-1.46l-3.81-14.74Z"/><path class="cls-5" d="M310.93,203.2a5.11,5.11,0,0,0-3.65,0,6.13,6.13,0,0,0-2.57,2L304,205a6.44,6.44,0,0,1,2.94-2.29,5.23,5.23,0,0,1,3.2-.14.86.86,0,0,1,.47.21A1.24,1.24,0,0,1,310.93,203.2Z"/><path class="cls-5" d="M315.26,207.81c-.13,0-18.15-5.4-18.15-5.4l-.27,1.86L315.05,209Z"/><path class="cls-8" d="M238,167.26a16,16,0,0,0,8.1,2.73,15.8,15.8,0,0,0,7.39-1.43l-10.55-5.89Z"/><path class="cls-17" d="M271.07,92.56a41.31,41.31,0,0,0-10.95-13.15s-1.93-2.17-5.89-.57a8.36,8.36,0,0,0-1.3.67,8,8,0,0,0-3.53,1.61,18.26,18.26,0,0,0-2.11,2.15.11.11,0,0,0,0,.16l.06,0a.16.16,0,0,0,.1,0,17.29,17.29,0,0,1,2.09-2.12,7,7,0,0,1,2.83-1.41A12.67,12.67,0,0,0,249,84.05l-1.1.83c-2.45,1.82-6.44,5.31-5.67,8.21A17,17,0,0,0,244.51,98a25.77,25.77,0,0,0,5.71,7.25,2.23,2.23,0,0,1,.19-.32,2.19,2.19,0,0,1,.32-.38,9.54,9.54,0,0,0,3.75,1.6c3.45.63,7.14-.87,7.6.15.11.24,0,.54.24,1.11a2.64,2.64,0,0,0,.71.93,19.58,19.58,0,0,0,3.88-3.8A20.84,20.84,0,0,0,271.07,92.56Zm-27,4.17a15.54,15.54,0,0,1-1.57-3.7c-.72-2.77,3.19-6.18,5.6-8l.68-.52c-.56,1-1.09,2.07-1.68,3.06C245.22,90.63,242.83,93,244,96.73Z"/><path class="cls-3" d="M264.4,112.61c.68,3.77-.42,7.5-3,9.42-4.13,3-10.7.9-13.32-3.41-2.26-3.69-.91-7.85-.67-8.57a19,19,0,0,0,2.25-.85c.6-.27,1.15-.55,1.65-.83a1.59,1.59,0,0,0,.79-1.41c0-.77,0-1.57-.09-2.37-.13-2.57-.39-5-.71-7.24l9.82.64c-.11,1-.23,2.08-.34,3.11q-.35,3.23-.71,6.43v.09a.83.83,0,0,0,.43.8l3.81,2Z"/><path class="cls-8" d="M260.75,101.1q-.35,3.23-.71,6.43a12.38,12.38,0,0,1-4.36-1.29c-1.86-2.22-3.06-3.7-3.13-5.87h0S257.8,100.82,260.75,101.1Z"/><path class="cls-3" d="M267.83,88.39a9.09,9.09,0,0,0-2.61-4.76,9.8,9.8,0,0,0-11-1.22,9.92,9.92,0,0,0-4,4.19l0,0c-2.8,4.94.59,11.54,1,12.3a14.08,14.08,0,0,0,5.8,6,5.16,5.16,0,0,0,2.59.68c2.46-.08,4.28-2.28,4.51-2.57l.14-.17A8.42,8.42,0,0,0,265.94,98a4.46,4.46,0,0,1,.59-2.08A10.69,10.69,0,0,0,267.83,88.39Z"/><path class="cls-32" d="M259.65,94.77h.08a.22.22,0,0,0,.13-.28,1.56,1.56,0,0,0-2.87-.2.22.22,0,0,0,.1.29.21.21,0,0,0,.29-.09,1.13,1.13,0,0,1,1-.62h0a1.16,1.16,0,0,1,1.06.77A.2.2,0,0,0,259.65,94.77Z"/><path class="cls-32" d="M264.84,95.56h0a.19.19,0,0,0,.15-.24,1.49,1.49,0,0,0-1.19-1.19,1.52,1.52,0,0,0-1.54.62.2.2,0,0,0,.33.23,1.1,1.1,0,0,1,1.13-.46,1.11,1.11,0,0,1,.88.88A.19.19,0,0,0,264.84,95.56Z"/><path class="cls-17" d="M271.67,97.56c-.05-.38-.1-.8-.12-1.34a10.76,10.76,0,0,1,.35-3,8.27,8.27,0,0,0,.21-1.06c.24-1.9-.68-4-2.71-6.35a13.61,13.61,0,0,0-8-6.4c-2.2-.65-10.48,4.2-11.6,5.51-.42.49-6.31,7.88-2.94,14a10,10,0,0,0,5,4.22c.05-.73.15-1.77.32-3,.63-4.7.93-7.07,2.1-8.36,1.81-2,4.54-2.13,6.59-3.74a20.78,20.78,0,0,0,2.59-2.44,12.66,12.66,0,0,1,3.89,11.58,15.27,15.27,0,0,1-3.39,7.33c5.17-3.32,7.89-9.13,6.89-14.64a12.73,12.73,0,0,0-1-3.06c1.53,2,2.21,3.76,2,5.38a8.33,8.33,0,0,1-.21,1,10.47,10.47,0,0,0-.35,3.1c0,.55.07,1,.12,1.36a6.7,6.7,0,0,1,0,1.75,6.93,6.93,0,0,1-1.27,3.18.1.1,0,0,0,0,.15s0,0,.06,0a.12.12,0,0,0,.1,0,6.58,6.58,0,0,0,1.27-5.09Z"/><path class="cls-33" d="M261,99.87h.06a1.59,1.59,0,0,0,1.17-.63,1.84,1.84,0,0,0-.58-2.36.2.2,0,0,0-.28,0,.19.19,0,0,0,0,.28,1.46,1.46,0,0,1,.49,1.83,1.22,1.22,0,0,1-.87.45.2.2,0,0,0-.18.22A.21.21,0,0,0,261,99.87Z"/><path class="cls-9" d="M261.81,101.62a.17.17,0,0,0-.2-.24,4.57,4.57,0,0,1-1.86.2,4.51,4.51,0,0,1-2.11-.82.17.17,0,0,0-.26.17,2.36,2.36,0,0,0,4.43.69Z"/><path class="cls-17" d="M263.15,91.81c.09.18.55-.07,1.28.12s1.21.82,1.31.74-.44-1.9-1.44-1.89C263.64,90.79,263,91.57,263.15,91.81Z"/><path class="cls-17" d="M256.52,92.12c.1.11.69-.66,1.74-.71.79,0,1.26.35,1.37.2s-.46-1.19-1.26-1.27C257.23,90.22,256.37,92,256.52,92.12Z"/><path class="cls-3" d="M253.43,94.82a2.5,2.5,0,0,0-1.82-2.16c-1.19-.13-2.13,1.53-2.28,2.76a4,4,0,0,0,2.22,3.71,1,1,0,0,0,.83.06.87.87,0,0,0,.35-.29C253,97.54,253.19,96.18,253.43,94.82Z"/><path class="cls-34" d="M251.12,98h.06c.19,0,.24-.27.3-.51s.09-.41.17-.43a.38.38,0,0,1,.16.08.53.53,0,0,0,.4.16c.44,0,.68-.83.73-1.33.09-.92-.3-2.34-1.25-2.5a1.36,1.36,0,0,0-1,.32.14.14,0,0,0,0,.2.15.15,0,0,0,.21,0,1.07,1.07,0,0,1,.8-.26c.67.11,1.09,1.26,1,2.18-.05.53-.28,1-.48,1.07,0,0-.1,0-.19-.1a.48.48,0,0,0-.4-.13c-.26.06-.33.37-.39.65a1.25,1.25,0,0,1-.08.27c-.07,0-.29-.27-.76-1.36a.15.15,0,0,0-.2-.07.14.14,0,0,0-.07.19C250.62,97.7,250.9,98,251.12,98Z"/><path class="cls-35" d="M252.92,175.6a14,14,0,0,0,6.6-3c6.75-5.61,4.89-15.74,4.79-16.23a10.59,10.59,0,0,0-7.61-.06,10.47,10.47,0,0,0-5.19,4.43c-2.87,4.25-3.86,7.69-2.39,8.79C249.54,169.88,252.92,175.6,252.92,175.6Z"/><path class="cls-36" d="M267.51,110.16l16.87,12.35-5.7,5.27-14.21-4,.27-8.05Q266.14,112.94,267.51,110.16Z"/><path class="cls-5" d="M271.73,152.58a2.3,2.3,0,0,1-.12,1.74c-1.61,5.32-13.68,3.08-17.82,9.67a8.9,8.9,0,0,0-1.32,4.51,33,33,0,0,0,.19,5.25c.07.64.16,1.26.26,1.85-.58-.63-1.16-1.29-1.74-2-1.79-2.12-3.39-4.21-4.82-6.24a19.28,19.28,0,0,1-8.53-6.46,20.1,20.1,0,0,1-3.53-9.78c-1.2-11.21,6.55-12.79,7.69-26.42.46-5.41.1-9.72,3.5-13.19a12.11,12.11,0,0,1,5.79-3.17c0,.19.18,4.14,3.32,5.76.38.2,2.74,1.43,4.83.14s2.07-4.78,2.06-5.32l6,1.21c0,.75,0,1.77,0,3,0,1.46.06,2.63.07,3.19.06,1.74.13,2.9.18,5.26.11,5.22,0,10.17-.23,14.82h0A126.73,126.73,0,0,1,271.73,152.58Z"/><path class="cls-3" d="M261.84,124.24c.56,7.35,7,12.61,13.49,12,5.58-.55,10.33-5.34,10.93-11.52a9.64,9.64,0,0,1-6.42-2.7c-.07-2.29-.14-4.57-.2-6.86,0-.48,0-1-.05-1.44l0-1.18a12.76,12.76,0,0,0-9.62-2.32c0,.41,0,1.12.08,2a21.46,21.46,0,0,1,0,2.54c-.18,5.37-.59,6.15-.93,6.49A5,5,0,0,1,268,122a7,7,0,0,1-2.44.75A10.44,10.44,0,0,0,261.84,124.24Z"/><path class="cls-8" d="M269.13,121.21a8.2,8.2,0,0,0,6.32-.28,8,8,0,0,0,4.19-5.81c0-.48,0-1-.05-1.44l-9.53,1C269.88,120.09,269.47,120.87,269.13,121.21Z"/><path class="cls-17" d="M295,315.1h24.19a3.59,3.59,0,0,0,.4-1.68c-.08-2.5-3.16-4-3.65-4.22a8.7,8.7,0,0,0-6.73-.07l-3.1-.26-1.77-2.25-9.42.94c-.09.34-.19.69-.28,1s-.24.87-.34,1.28a8.88,8.88,0,0,0-.47,3.26,4.28,4.28,0,0,0,.54,1.59A.72.72,0,0,0,295,315.1Z"/><path class="cls-17" d="M249.14,315.1h24.18a3.84,3.84,0,0,0,.4-1.68c0-2.82-3.38-4.54-3.69-4.69a8,8,0,0,0-6.5,0l-3.49.12-1.57-2.23-9.41.94c-.1.34-.2.69-.29,1s-.23.87-.34,1.28a9.11,9.11,0,0,0-.47,3.26,4.33,4.33,0,0,0,.55,1.59A.71.71,0,0,0,249.14,315.1Z"/><path class="cls-4" d="M307.27,308.87h-14c-.59-14.69-1.82-30.23-3.91-46.51q-1.17-9.15-2.6-17.89-3.61-13.9-7.22-27.83l-.83,1.45q-1.76,13.56-3.48,27.13c-4.65,19.49-9.3,44.2-13.94,63.69l-12.44-.59c2.72-20,5.45-45.21,8.17-65.21l0-2.21q.08-8.61.16-17.22.18-18.78.35-37.58l.06-5.88,14.51,1.64,2.12.24.74-.28,17.93-6.64c.7,3.68,1.4,7.34,2.09,11q4.89,25.65,9.75,51.28c1,10.56,1.78,21.67,2.25,33.29C307.49,284.13,307.55,296.85,307.27,308.87Z"/><path class="cls-6" d="M277.2,229.57a.16.16,0,0,0,.17-.14l1.45-11.29.48-.83,1.49-3.31a.17.17,0,0,0-.09-.23.16.16,0,0,0-.22.09l-1.49,3.3-.48.84a.14.14,0,0,0,0,.07L277,229.38a.16.16,0,0,0,.14.19Z"/><path class="cls-6" d="M279.67,198.48a.16.16,0,0,0,.14-.07l1.63-2.5a.17.17,0,0,0,0-.1v-4.09a.17.17,0,0,0-.34,0v4l-1.61,2.46a.19.19,0,0,0,.05.24A.18.18,0,0,0,279.67,198.48Z"/><path class="cls-6" d="M279.67,201.87h0a.17.17,0,0,0,.16-.18l-.43-7.5a.16.16,0,0,0-.18-.16.18.18,0,0,0-.16.18l.43,7.5A.17.17,0,0,0,279.67,201.87Z"/><path class="cls-6" d="M295,198.1a.18.18,0,0,0,.12,0,.16.16,0,0,0,0-.24l-3.6-3.34-1.5-3.48a.16.16,0,0,0-.22-.09.16.16,0,0,0-.09.22l1.51,3.52a.1.1,0,0,0,0,.05l3.63,3.37A.19.19,0,0,0,295,198.1Z"/><path class="cls-6" d="M259.76,199.06l.08,0a10.48,10.48,0,0,0,3.14-2.86,10.36,10.36,0,0,0,1.6-3.33.17.17,0,0,0-.12-.21.18.18,0,0,0-.21.12,10.18,10.18,0,0,1-1.54,3.22,10.32,10.32,0,0,1-3,2.77.16.16,0,0,0-.06.23A.18.18,0,0,0,259.76,199.06Z"/><path class="cls-6" d="M303.27,298.45h0a.17.17,0,0,0,.16-.18l-3.88-55.51-5.62-42.16a.18.18,0,0,0-.19-.15.17.17,0,0,0-.14.2l5.62,42.15,3.87,55.5A.16.16,0,0,0,303.27,298.45Z"/><path class="cls-6" d="M254,296.52a.18.18,0,0,0,.17-.15l8.09-53.73-.62-38a.16.16,0,0,0-.17-.17.18.18,0,0,0-.17.17l.62,38-8.09,53.71a.18.18,0,0,0,.14.2Z"/><path class="cls-6" d="M293.77,305.62h11.92a.18.18,0,0,0,.17-.17.17.17,0,0,0-.17-.17H293.77a.17.17,0,0,0-.17.17A.18.18,0,0,0,293.77,305.62Z"/><path class="cls-6" d="M250.26,305.62h10.57a.18.18,0,0,0,.17-.17.17.17,0,0,0-.17-.17H250.26a.16.16,0,0,0-.17.17A.17.17,0,0,0,250.26,305.62Z"/><path class="cls-3" d="M323.32,83.6l1.49-7.84,7.91-8.6a2.52,2.52,0,0,1,0,1.87c-.42.9-1,1.53-1,1.81s-1.18,3.53-1.25,3.74,1,1.6,1.67,3.13,1.8,4.67,1.42,5.07-1.42.21-1.49.93-.28.86-.84,1.28-3.29,2.87-3.29,2.87a6,6,0,0,1-3.85-2.46A5.23,5.23,0,0,1,323.32,83.6Z"/><path class="cls-3" d="M311.74,97.91l12.55-15.63,4.58,4.26L317.53,106l-11.76,14.77-7.66-10.4Z"/><path class="cls-18" d="M284.93,120.29l13-10.75,10.67,14.37-15.38,16.42a134.79,134.79,0,0,0-4.79-12.62C287.31,125.09,286.13,122.61,284.93,120.29Z"/><path class="cls-18" d="M295.9,186l-.94.23a78.75,78.75,0,0,1-16.71,2.19c-1.39,0-2.74,0-4.05,0q-.48,0-1,0a79.07,79.07,0,0,1-15.73-2.24L257,186c0-1.23,0-3.08-.11-5.32-.3-5.8,1.82-9,2.9-13.12a17.41,17.41,0,0,0,.6-4.41,23.77,23.77,0,0,0-.94-6.71c-3.92-4.14-4.94-7.62-5.18-9.91-.06-.53-.11-2.73-.19-7.14,0-2.07,0-3.88,0-4.71,0-1.24,0-2.43,0-2.43a15,15,0,0,1,0-3.06,15.69,15.69,0,0,1,.47-2.48c.19-.14.49-.36.87-.61,1.33-.87,3.21-1.77,8.11-3.07,1.1-.29,2.62-.66,4.46-1a16.32,16.32,0,0,0,3.19,6.36c1.44,1.73,3.36,4.06,5.39,3.72,2.6-.42,4.1-4.94,4.32-7.89a12.77,12.77,0,0,0,0-1.33,20.34,20.34,0,0,1,4-2.59A60.55,60.55,0,0,1,293,138.13c2.35,8.91,1.3,14.45,2.46,38.35C295.66,180.39,295.81,183.67,295.9,186Z"/><path class="cls-37" d="M282.08,213l-13.71,3.56a31.9,31.9,0,0,1-5.78,18.4,31.06,31.06,0,0,1-5.59,6q.08-8.61.16-17.22.18-18.78.35-37.58L257,186c0-1.23,0-3.08-.11-5.32-.3-5.8,1.82-9,2.9-13.12l11.53,10.14.74,4.19,1.16,6.48,2.05,11.46-.87,6.26Z"/><path class="cls-3" d="M284.4,106.7c-.71,2.48-2.34,4.53-5,7.92a10.36,10.36,0,0,1-2.46,2.33,12.43,12.43,0,0,1-3.53,1.52,20.72,20.72,0,0,1-4.1.71,11.16,11.16,0,0,1-1.14-1.36,11,11,0,0,1-1.47-2.87c-.91-3.5-1.13-5.23-.94-5.88h0s.24-.84.36-1.39a8.71,8.71,0,0,0,.21-1.93,37.88,37.88,0,0,1,.27-4.81,9.44,9.44,0,0,1,1.49-3.47c1.87-3,6.63-6.69,10.81-5.5C284.05,93.43,285.85,101.68,284.4,106.7Z"/><path class="cls-38" d="M269.57,113.51a6,6,0,0,0,4,.13,3.62,3.62,0,0,1-1.05,1.67c-.3.26-1,.88-1.68.66-.38-.13-.58-.5-.84-1A4.4,4.4,0,0,1,269.57,113.51Z"/><path class="cls-38" d="M269,111.27a1.41,1.41,0,0,1-.65-.9c-.08-.49.22-.9.71-1.58a9,9,0,0,1,1.12-1.27.21.21,0,1,1,.29.31,8.82,8.82,0,0,0-1.07,1.21c-.47.65-.68,1-.63,1.26.09.59,1,.9,1.1.94a.21.21,0,0,1,.14.26.23.23,0,0,1-.27.14A3.3,3.3,0,0,1,269,111.27Z"/><path class="cls-4" d="M288.78,101a8.78,8.78,0,0,0-.14-1.54c-.53-2.79-3.14-5.62-3.62-6.14.29.14.58.29.86.45a13.86,13.86,0,0,1,1.49,1,.14.14,0,0,0,.19,0,.14.14,0,0,0,0-.19,16.11,16.11,0,0,0-1.51-1,14.77,14.77,0,0,0-2-.93c-.26-.16-.54-.31-.84-.46a13.27,13.27,0,0,0-5.36-1.32,1.24,1.24,0,0,0,.07-1.06c-.6-1.26-4.45-1-7.28.29A11.38,11.38,0,0,0,268,91.72a5.37,5.37,0,0,1,3.38-2.81.13.13,0,0,0,.1-.16.14.14,0,0,0-.17-.1,5.66,5.66,0,0,0-2,1,5.75,5.75,0,0,0-1.85,2.64,5.09,5.09,0,0,0-.69,1.11,6.83,6.83,0,0,0,0,5.32,7.42,7.42,0,0,0,3.58,1.23c1.82.11,2.48-.71,4.51-.57a4.73,4.73,0,0,1,3.22,1c1,1,.51,2.09,1.51,6,.23.91.66,1.13.78,1.92.17,1.16-.25,1.8-.36,3.35a9.63,9.63,0,0,0,.09,2.15,26.4,26.4,0,0,0,6.8-8.09c.31-.57.58-1.14.83-1.7l.33.31A7.91,7.91,0,0,0,288.78,101Z"/><path class="cls-4" d="M276.36,105.36a1.69,1.69,0,0,0-1.2-1.56,1.65,1.65,0,0,0-1.53.49c-.07.07-.22.24-.17.39s.05.13.28.19c.53.16.78-.21,1.13-.1s.37.93.89,1.07a.51.51,0,0,0,.44-.07A.58.58,0,0,0,276.36,105.36Z"/><path class="cls-4" d="M269.72,104.16c-.36.06-.54-.72-.92-.72s-.59.69-.94.67a.28.28,0,0,1-.21-.09.22.22,0,0,1,0-.16c0-.11.2-1.23,1.06-1.3.69-.06,1,.62,1.26,1a.43.43,0,0,1,.06.33A.35.35,0,0,1,269.72,104.16Z"/><path class="cls-32" d="M274.26,106.46c-.06.44-.35.75-.64.71s-.47-.43-.41-.86.35-.75.64-.71S274.32,106,274.26,106.46Z"/><path class="cls-32" d="M268.89,105.68c-.06.43-.35.75-.64.7s-.47-.43-.41-.86.35-.75.64-.71S269,105.24,268.89,105.68Z"/><path class="cls-3" d="M280.17,105.2a3.11,3.11,0,0,1,1-.91,2.13,2.13,0,0,1,2.13,0c.75.65.27,2.22-.17,3a3.52,3.52,0,0,1-2.69,1.82,1.45,1.45,0,0,1-1-.28.91.91,0,0,1-.22-.23c-.31.55-.63,1.09-1,1.64l-.19-2.15A32.67,32.67,0,0,1,280.17,105.2Z"/><path class="cls-34" d="M280.17,108.39a.89.89,0,0,0,.64,0,.12.12,0,1,0,0-.24,1.27,1.27,0,0,1-.42,0,1.83,1.83,0,0,1,.13-.16c.15-.16.34-.35.31-.59s-.24-.31-.42-.39-.3-.13-.33-.25.18-.47.36-.67a2.79,2.79,0,0,1,1.86-.79h0a.79.79,0,0,1,.55.23.68.68,0,0,1-.11.79.12.12,0,0,0,0,.17.11.11,0,0,0,.17,0,.89.89,0,0,0,.12-1.09,1,1,0,0,0-.74-.33h0a2.88,2.88,0,0,0-2,.88h0c-.24.25-.53.57-.43.9s.3.33.47.41.26.12.28.2-.13.26-.24.38-.27.28-.2.43A.22.22,0,0,0,280.17,108.39Z"/><path class="cls-3" d="M243,147.69l-7.48,15.75a4.54,4.54,0,0,0,1.28,3,4.78,4.78,0,0,0,4.29,1.11l11.17-6.52Z"/><path class="cls-18" d="M254.56,126.68,242,147.55l9.3,15.12,8.32-9.71c.56-1.34,5.68-14-1-22.61A15.61,15.61,0,0,0,254.56,126.68Z"/><path class="cls-16" d="M251.29,162.84h0a.16.16,0,0,1-.13-.08l-8.06-13.11a.17.17,0,0,1,.3-.18l7.93,12.91,2.56-3,8-10.75a.18.18,0,0,1,.25,0,.17.17,0,0,1,0,.24l-8.05,10.77-2.72,3.17A.16.16,0,0,1,251.29,162.84Z"/><path class="cls-16" d="M250.64,156.58a.18.18,0,0,1-.16-.1l-3.88-8.72a.18.18,0,0,1,.09-.23.17.17,0,0,1,.23.09l3.87,8.72a.18.18,0,0,1-.08.23Z"/><path class="cls-16" d="M295.9,186.14a.17.17,0,0,1-.17-.16l-2.05-44-1.25-5.29a.17.17,0,1,1,.34-.08L294,142l2.05,44a.17.17,0,0,1-.17.18Z"/><path class="cls-16" d="M266.16,181.29a.16.16,0,0,1-.17-.15.18.18,0,0,1,.14-.2,24,24,0,0,0,15.52-8.84,23,23,0,0,0,4.44-10.74.17.17,0,0,1,.2-.14.18.18,0,0,1,.15.19,23.33,23.33,0,0,1-4.52,10.9,24.41,24.41,0,0,1-15.74,9Z"/><path class="cls-16" d="M305.13,123.9a.16.16,0,0,1-.14-.07l-7.78-10.52a.16.16,0,0,1,0-.24.17.17,0,0,1,.24,0l7.79,10.53a.17.17,0,0,1,0,.24A.17.17,0,0,1,305.13,123.9Z"/><path class="cls-3" d="M323.29,85.15a19.87,19.87,0,0,0,3.4-1.73,18.36,18.36,0,0,0,1.66-1.21c.92-.83,1.61-1.55,2.08-2,.92-1,1.42-1.68,2.19-1.67a1.71,1.71,0,0,1,.9.31L330,84.36l-3.84,4.35Z"/><path class="cls-3" d="M252.47,168.5a73.57,73.57,0,0,0,11.83,6c2.5,1,4.32,1.54,6.55,1.23,2.6-.37,6.07-1.95,6.36-4.41.2-1.71-1-3.32-2.6-4.89a49.42,49.42,0,0,0-15.13-10.05,14.28,14.28,0,0,0-6.47,7.9A12.66,12.66,0,0,0,252.47,168.5Z"/><path class="cls-35" d="M275.09,132.56c-.34.8-2.33,5.27-5.77,6.59a4.63,4.63,0,0,1-2.63.35,4.83,4.83,0,0,1-2.85-1.8c-1.77-2.28-2.31-4.93-1.25-6.59A6.24,6.24,0,0,1,266,129a8,8,0,0,1,3.47-.48C272.6,128.88,274.55,131.72,275.09,132.56Z"/><path class="cls-3" d="M264.48,131.45a7.63,7.63,0,0,1,3.72,3.88c.57,1.47.26,2.47.88,4.54a12.63,12.63,0,0,0,1.76,3.6,2.9,2.9,0,0,1,1.8-.54c.8.07,1.34.53,1.82.24.24-.15.12-.46.5-.62l1.2-.5a.37.37,0,0,0,.31,0c.15-.08.17-.3.18-.38.06-.62-.24-4.09-.26-4.32a21.81,21.81,0,0,0-3.5-6,21.19,21.19,0,0,0-2.6-2.65,14.63,14.63,0,0,0-4,1.53A14.32,14.32,0,0,0,264.48,131.45Z"/><path class="cls-5" d="M244.86,112.54a6.9,6.9,0,0,1,1.9-2.31,6.61,6.61,0,0,1,2.93-1.37s.3,0,.6-.07c5.13-.35,14.49,9.9,14.49,9.9a78.23,78.23,0,0,1,10.31,13.87,6.46,6.46,0,0,0-7-3,6.58,6.58,0,0,0-4.23,8.12l-7.49-9.57a26,26,0,0,1-3.31-1.66,21,21,0,0,1-4.52-3.42C246.23,120.67,243.26,115.86,244.86,112.54Z"/><path class="cls-6" d="M261.06,134.31a.15.15,0,0,1-.14-.07l-4.68-6a25.37,25.37,0,0,1-3.67-1.88,18.34,18.34,0,0,1-5.89-5.31,14.64,14.64,0,0,1-.88-1.47.17.17,0,0,1,.3-.16,14,14,0,0,0,.87,1.43,18,18,0,0,0,5.79,5.22,25.7,25.7,0,0,0,3.66,1.87.18.18,0,0,1,.07.05l4.7,6a.16.16,0,0,1,0,.24A.14.14,0,0,1,261.06,134.31Z"/><path class="cls-6" d="M272.07,128a.17.17,0,0,1-.14-.07L267.47,122l-9.33-9.28a.2.2,0,0,1,0-.25.18.18,0,0,1,.25,0l9.34,9.3,4.48,5.86a.18.18,0,0,1,0,.25A.17.17,0,0,1,272.07,128Z"/><path class="cls-6" d="M262.49,114.94a.19.19,0,0,1-.13,0,.18.18,0,0,1,0-.25,2.68,2.68,0,0,0,.61-.88,2.82,2.82,0,0,0,0-2.05.2.2,0,0,1,.1-.23.19.19,0,0,1,.23.1,3.21,3.21,0,0,1,0,2.31,2.88,2.88,0,0,1-.7,1A.16.16,0,0,1,262.49,114.94Z"/><path class="cls-35" d="M287.67,137.66a6.4,6.4,0,0,1-3.16-.41,7.07,7.07,0,0,1-2.42-1.56l1.21-5.34,5.36-1.77,3.38,1.66C291.82,134.23,289.88,137.26,287.67,137.66Z"/><path class="cls-3" d="M283.17,131.32l-1.08,8.25,1.08,3.47,1-.38.63,1.35s1,.28,1.24,0,.44-.66.78-.76.92-.21,1.1-.45.24-.77.45-.91,1.18-.62,1.25-.72l.52-.84.62-.72a58.12,58.12,0,0,1-1.91-6.46c0-.9.11-3.22-.55-3.85S283.17,131.32,283.17,131.32Z"/><path class="cls-5" d="M280.53,113.4c.28.14.68.36,1.16.66a21.85,21.85,0,0,1,7.9,9,26.41,26.41,0,0,1,2.45,7.13,7.22,7.22,0,0,0-5.79-.17,7.48,7.48,0,0,0-4.16,5.62L279.84,122c-.1-.62-.18-3.33-.22-6.78,0-.37,0-.67,0-.86Z"/><path class="cls-3" d="M266.68,164a13.79,13.79,0,0,1,5.83,1.25,9.92,9.92,0,0,1,5.07,4.05,11.29,11.29,0,0,1,1.36,4.41c.71,6.33,1.82,20.71,2.46,25a10.83,10.83,0,0,0,.89,3,9.39,9.39,0,0,0,2.36,3c1.75,1.58,4.59,4.13,7.68,5.19l.17.06a4.13,4.13,0,0,1,2.06,1.55c.41.64.84,1.85.51,2.31s-1,0-2.57-.49-1.33-.14-3.19-.78c-3.41-1.17-5.09-1.87-5.55-2-3.48-.81-5,.16-6.31-1.5a6.62,6.62,0,0,1-1.05-2.45,11.22,11.22,0,0,1-.28-4.29,4.21,4.21,0,0,0-.1-1.46l-3.81-14.73S265.18,170.71,266.68,164Z"/><path class="cls-5" d="M291.33,209.5a5.11,5.11,0,0,0-3.65,0,6.25,6.25,0,0,0-2.58,2l-.75-.28a6.51,6.51,0,0,1,2.94-2.29,5.31,5.31,0,0,1,3.2-.14,1.1,1.1,0,0,1,.47.21A1.32,1.32,0,0,1,291.33,209.5Z"/><path class="cls-5" d="M295.66,214.11c-.13,0-18.15-5.39-18.15-5.39l-.27,1.85,18.21,4.74Z"/><path class="cls-4" d="M199.16,131.12c-1-1.5-2.43-.88-3.45-2.37-1.14-1.66,0-3.29.36-10a14.14,14.14,0,0,0,0-2.49,5.49,5.49,0,0,0-.09-.65,2,2,0,0,1,.33.87,2.61,2.61,0,0,1-.05.84,3,3,0,0,0,.06,1.51,3.21,3.21,0,0,0,.81,1.32,1.93,1.93,0,0,1,.56.94,3.09,3.09,0,0,1-1.07,2.45.17.17,0,0,0,0,.25.18.18,0,0,0,.12,0,.16.16,0,0,0,.13-.06A3.34,3.34,0,0,0,198,121a2.27,2.27,0,0,0-.64-1.11,2.79,2.79,0,0,1-.73-1.19,2.52,2.52,0,0,1,0-1.35,2.85,2.85,0,0,0,0-.94,2.78,2.78,0,0,0-.84-1.57,13,13,0,0,0-1.73-4.15c-.76-1.15-3.76-5.29-9.05-5.53a10.51,10.51,0,0,0-5.95,1.56,3.13,3.13,0,0,0-4,1.19.18.18,0,0,0,.05.25.19.19,0,0,0,.1,0,.16.16,0,0,0,.15-.09,2.87,2.87,0,0,1,1.72-1.23,2.73,2.73,0,0,1,1.56.09,13.31,13.31,0,0,0-3.24,3,13.64,13.64,0,0,0-2.54,7.7c0,1.44,0,2.82.08,3.73a2.61,2.61,0,0,1-.33.58c-.78,1-.56,3.17-.47,4.07l0,.18a1.71,1.71,0,0,1-.3.85,1.93,1.93,0,0,0-.24,1.92.2.2,0,0,0,.16.1l.09,0a.18.18,0,0,0,.07-.25,1.59,1.59,0,0,1,.24-1.58,2,2,0,0,0,.34-1l0-.19c-.09-.86-.3-2.88.4-3.81l.08-.12c0,.26,0,.41,0,.41,0,.58.09,1.19.11,2-.17.82-1.68,8.53,3.2,13.65s14.87,5.75,22.35-.29C199.65,135.72,200.43,133,199.16,131.12Z"/><path class="cls-39" d="M190.63,122.21a2.07,2.07,0,0,1,2.17-1.44,2.13,2.13,0,0,1,1.06,3,4.11,4.11,0,0,1-4.5,3Z"/><path class="cls-11" d="M191.53,125.41h0a.17.17,0,0,1-.15-.15,6.06,6.06,0,0,1,.25-2.43c.15-.43.34-1,.75-1s.61.42.73.68a.16.16,0,0,1-.08.22.16.16,0,0,1-.21-.08c-.14-.29-.33-.5-.42-.5s-.38.57-.46.81a5.59,5.59,0,0,0-.27,1.65,1,1,0,0,1,.54-.39,1,1,0,0,1,.35,0,.17.17,0,0,1,0,.33.58.58,0,0,0-.23,0c-.45.13-.59.76-.6.78A.16.16,0,0,1,191.53,125.41Z"/><path class="cls-39" d="M196.18,144.9v-7.54c-1.61-.54-3.55-.58-6-1.19a2.71,2.71,0,0,1-1.08-.54,3.29,3.29,0,0,1-.89-2.21,38.34,38.34,0,0,1-.27-4.74l-8.52-.83a21.3,21.3,0,0,1,.39,6.67.22.22,0,0,1,0,.08,2.75,2.75,0,0,1-.68,1.57,3.93,3.93,0,0,1-2.62.81,14.87,14.87,0,0,0-4.12,1.1v6.82a12.75,12.75,0,0,0,23.77,0Z"/><path class="cls-40" d="M188,128.68v1.83a7.82,7.82,0,0,1-8.14,4.09.22.22,0,0,0,0-.08,21.3,21.3,0,0,0-.39-6.67Z"/><path class="cls-39" d="M176.39,123.12a19.66,19.66,0,0,0,.89,3,10.47,10.47,0,0,0,2,3.21,9.34,9.34,0,0,0,4.57,2.63,11.32,11.32,0,0,0,4.68-2.89,15,15,0,0,0,3.45-9.15v-.14a11.4,11.4,0,0,0-.25-4.42,10.2,10.2,0,0,0-2.48-3.91,8.3,8.3,0,0,0-4.1-2.22,6.7,6.7,0,0,0-1.29-.15,7.5,7.5,0,0,0-1.57.11,8.15,8.15,0,0,0-5.73,3.91c-.7,1.29-.76,2.52-.85,4.83,0,.1,0,.22,0,.39A16.49,16.49,0,0,0,176.39,123.12Z"/><path class="cls-41" d="M179.59,121.91h-.07a.17.17,0,0,1-.11-.21,1.77,1.77,0,0,1,1.13-1.09,1.72,1.72,0,0,1,1.43.23.17.17,0,1,1-.19.27,1.36,1.36,0,0,0-2.05.69A.17.17,0,0,1,179.59,121.91Z"/><path class="cls-41" d="M188,122.11h.08a.16.16,0,0,0,.1-.21,1.68,1.68,0,0,0-2.56-.86.15.15,0,0,0,0,.23.16.16,0,0,0,.23,0,1.38,1.38,0,0,1,1.15-.19,1.45,1.45,0,0,1,.91.88A.16.16,0,0,0,188,122.11Z"/><path class="cls-42" d="M178.35,119.53c.09.09.7-.8,1.84-.93.79-.09,1.32.25,1.4.1s-.55-1-1.31-1C179.08,117.63,178.23,119.41,178.35,119.53Z"/><path class="cls-42" d="M189.54,119.28c-.12.12-.54-.45-1.48-.68s-1.67.12-1.74,0,.89-1.22,1.89-1S189.71,119.12,189.54,119.28Z"/><path class="cls-4" d="M193,114.23c0-2.67-2.18-5.72-4.77-7-4.89-2.38-11.78,1.31-13.5,6-.85,2.35-.35,4.82.08,6.92a19.78,19.78,0,0,0,2.32,6.06,16.41,16.41,0,0,1,.1-6.48,16.23,16.23,0,0,1,2.77-6.1,34.65,34.65,0,0,0,7.38,3.63,6.18,6.18,0,0,1,2.72,1.43,6,6,0,0,1,1.62,3.25c.29-1.18.67-2.92,1-5.07A19.52,19.52,0,0,0,193,114.23Z"/><path class="cls-11" d="M184.09,125.27a.17.17,0,0,1-.1,0,2.62,2.62,0,0,1-.77-1c-.25-.63.43-2.88.51-3.14a.17.17,0,0,1,.21-.11.18.18,0,0,1,.11.21,8.69,8.69,0,0,0-.52,2.91,2.51,2.51,0,0,0,.65.88.16.16,0,0,1-.09.29Z"/><path class="cls-9" d="M181.57,127.43a.37.37,0,0,1,.42-.52,6.46,6.46,0,0,0,2.25.16,6.33,6.33,0,0,0,2.19-.65.37.37,0,0,1,.54.35v.07a.35.35,0,0,1-.08.22,3.72,3.72,0,0,1-5.2.51.26.26,0,0,1-.11-.14Z"/><path class="cls-39" d="M189,281.24q.27,14.25.53,28.48l-6.7.11c-2.25-11.48-4.1-21.17-5.53-28.59Z"/><path class="cls-39" d="M233.8,265.53q7.75,12,15.5,23.9l5.61-3.66C250.35,275,246.46,265.93,243.5,259Z"/><path class="cls-4" d="M263.73,283.23a7.68,7.68,0,0,1,.37.78,1.68,1.68,0,0,1-.6,2L252,293.8a1.45,1.45,0,0,1-1.91-.24l-.14-.16a17.64,17.64,0,0,1-1.93-2.77,19.73,19.73,0,0,1-1-2.19,29.33,29.33,0,0,0-4-6.64,35.71,35.71,0,0,0,4.68-2.34,37.36,37.36,0,0,0,4.17-2.89l2.19,3.36,0,0a5.89,5.89,0,0,1,.56-.23h0a7.38,7.38,0,0,1,5.59.09A7.75,7.75,0,0,1,263.73,283.23Z"/><path class="cls-43" d="M263.73,283.23a7.68,7.68,0,0,1,.37.78,1.68,1.68,0,0,1-.6,2L252,293.8a1.45,1.45,0,0,1-1.91-.24l-.14-.16,2.5-1.69a7.31,7.31,0,0,1-2.15-4.57,7.58,7.58,0,0,1,1.53-5,8.71,8.71,0,0,1,2.24-2.18l0,0,.56-.23h0a7.38,7.38,0,0,1,5.59.09A7.75,7.75,0,0,1,263.73,283.23Z"/><path class="cls-43" d="M249.83,283.7a.17.17,0,0,1-.1,0,.16.16,0,0,1-.14-.18,4.55,4.55,0,0,1,1.91-3.19,4,4,0,0,1,1.48-.59.15.15,0,0,1,.18.13.16.16,0,0,1-.12.18,3.82,3.82,0,0,0-1.37.54l0,0a4.38,4.38,0,0,0-1.73,3A.12.12,0,0,1,249.83,283.7Z"/><path class="cls-43" d="M248.39,281.62a1.12,1.12,0,0,1-.87.23,1.13,1.13,0,0,1-.68-.54,1.72,1.72,0,0,1-.24-1.21c.22-.93,1.63-1.65,3.38-1.25v0a.16.16,0,0,1,.13-.09.16.16,0,0,1,.14.07l.25.37a.15.15,0,0,1,0,.21.16.16,0,0,1-.22,0l-.09-.14A6.17,6.17,0,0,1,248.39,281.62Zm-.94-2.16a1.18,1.18,0,0,0-.54.71,1.38,1.38,0,0,0,.19,1,.85.85,0,0,0,.49.41c.59.13,1.49-.84,2.25-2.41A3.17,3.17,0,0,0,247.45,279.46Z"/><path class="cls-43" d="M252.78,278.77l-.08,0a3.26,3.26,0,0,1-2.55.32.16.16,0,0,1-.1-.08.15.15,0,0,1,0-.13c.41-1,1.47-3.42,2.54-3.27a1.07,1.07,0,0,1,.68.48,2,2,0,0,1,.34,1.48A1.92,1.92,0,0,1,252.78,278.77Zm-2.38.1a2.93,2.93,0,0,0,2.14-.32,1.59,1.59,0,0,0,.76-1,1.69,1.69,0,0,0-.28-1.24.79.79,0,0,0-.47-.35C251.88,275.87,251,277.43,250.4,278.87Z"/><path class="cls-43" d="M254.27,280.47a.17.17,0,0,1-.14,0l-3.81-1.29c-.57,4-.6,4-.67,4a.16.16,0,0,1-.22,0,.18.18,0,0,1,0-.16c.06-.21.4-2.54.62-4.06a.12.12,0,0,1,.07-.11.15.15,0,0,1,.13,0l4,1.36a.17.17,0,0,1,.1.2A.24.24,0,0,1,254.27,280.47Z"/><path class="cls-17" d="M248.76,268.93l-15.38,12.32c-4.52-6.47-10.42-15.23-16.95-25.9-5.91-9.67-8.14-14-13.65-22.91-2.17-3.49-4.73-7.48-7.69-11.87-1.33,13.53-2.31,35.45-1.65,45.77.46,7.28,1,16.59,1.41,27.54l-22.37-1.52c.67-11.12.85-20.82.84-28.73,0-7.7-.07-14.34-.68-23.41-.66-9.76-1.34-12.21-1.7-19.73a153.11,153.11,0,0,1,.46-21.11h0l5.43,1.93,2.17.77,1,.34-4-3,4.73-12.15,2.39-6.11,7.63,1.38,12.77,2.31,21.58,39.32,2.32,4.22Z"/><path class="cls-16" d="M194.38,229.27h0a.16.16,0,0,1-.16-.18l.35-9.06a.14.14,0,0,1,0-.06,34.31,34.31,0,0,0,3.1-14.68.17.17,0,0,1,.17-.17h0a.18.18,0,0,1,.18.17,35,35,0,0,1-.83,8,35.84,35.84,0,0,1-2.29,6.83l-.36,9A.17.17,0,0,1,194.38,229.27Z"/><path class="cls-16" d="M193,289.61h0l-19-2.14a.18.18,0,0,1,0-.35l19,2.14a.18.18,0,0,1,.16.19A.18.18,0,0,1,193,289.61Z"/><path class="cls-16" d="M194.85,294.05h0l-8.12-.55a.17.17,0,0,1-.16-.18.17.17,0,0,1,.19-.16l7.92.53-.46-8.37a.17.17,0,0,1,.16-.18.16.16,0,0,1,.18.16l.47,8.57a.13.13,0,0,1-.05.13A.13.13,0,0,1,194.85,294.05Z"/><path class="cls-16" d="M233.38,281.42h0a.19.19,0,0,1-.12-.07l-5.12-7.46a.18.18,0,0,1,0-.24.18.18,0,0,1,.25,0l5,7.3,9.48-7.59a.18.18,0,0,1,.25,0,.18.18,0,0,1,0,.24l-9.63,7.71A.15.15,0,0,1,233.38,281.42Z"/><path class="cls-16" d="M233.8,273.71a.19.19,0,0,1-.15-.08.18.18,0,0,1,0-.24l11.35-7.53a.17.17,0,0,1,.2.28l-11.36,7.54A.14.14,0,0,1,233.8,273.71Z"/><path class="cls-16" d="M180.92,283.42h0a.18.18,0,0,1-.17-.18l1.73-62.44a.19.19,0,0,1,.18-.17.18.18,0,0,1,.17.18l-1.73,62.44A.18.18,0,0,1,180.92,283.42Z"/><path class="cls-16" d="M238.63,264.23a.18.18,0,0,1-.15-.08l-27.73-46.87a.18.18,0,0,1,.06-.24.18.18,0,0,1,.24.06L238.78,264a.18.18,0,0,1-.06.24A.15.15,0,0,1,238.63,264.23Z"/><path class="cls-16" d="M194,203.46a.17.17,0,0,1-.14-.08,22.9,22.9,0,0,1-1.89-4l-1.17-7.86.34-.05s1,7.06,1.18,7.86a23.45,23.45,0,0,0,1.83,3.83.18.18,0,0,1,0,.24A.17.17,0,0,1,194,203.46Z"/><path class="cls-16" d="M194.82,206.06a.17.17,0,0,1-.17-.16l-.44-6.19a.17.17,0,0,1,.16-.19.17.17,0,0,1,.18.16l.44,6.2a.17.17,0,0,1-.16.18Z"/><path class="cls-18" d="M203.52,184.81a83.76,83.76,0,0,0-11.41.42l-1.44.17a82.06,82.06,0,0,0-9.94,1.83c-1.42.35-2.76.73-4,1.1l-5.55-46.26,20-2.39,5.3-.63Z"/><path class="cls-44" d="M225.1,224.13a42.43,42.43,0,0,1-4.4,4.39c-4.15,3.26-13.93-4.25-14.92-14.12-.89-8.8-7.08-16.29-13.67-29.17-.45-.88-.91-1.79-1.36-2.73-.36-.73-.71-1.47-1.06-2.24-5.64-12.16-1.1-31.81,1.42-40.58l5.3-.63,7.11,45.76Z"/><path class="cls-45" d="M198.07,186.71c2.3,3.83,7.06,8.58,10.51,17.32,4,10.15.86,19.73,4.08,20.72,1.5.45,3.26-1.16,6.28-3.93,1.38-1.26,3.43-3.38,6.59-8.47A87.4,87.4,0,0,0,231,202a37.57,37.57,0,0,0-3.61-13.18c-4.34-8.86-8.74-8.46-15.23-17.42-2.07-2.87-10.11-14.65-8.89-29.38a37.13,37.13,0,0,1,.81-5.23l-7.39-1.08-7.59-.07C189.84,137.87,191.16,175.2,198.07,186.71Z"/><path class="cls-46" d="M226.28,119.47a7.42,7.42,0,0,1,3.83,2.8,8.06,8.06,0,0,1,0,8.47l-4.89-2-.56-4.49-.55-3.46Z"/><path class="cls-39" d="M244.18,121.43c0-.16-.24-.3-.68-.42l-4.13-.31a.15.15,0,0,1,0-.29c.34-.12.7-.26,1.06-.41.62-.26,1.19-.53,1.71-.8a9.21,9.21,0,0,0,2.47-1.77c.78-.81.69-1,.66-1.1-.14-.28-.86-.18-1.26-.13a6.51,6.51,0,0,0-2.54.94l-2.45.59a.1.1,0,0,1-.1-.16l2.8-2.75,2.46-3.5a.65.65,0,0,0,.1-.19,5.09,5.09,0,0,0,.18-.49.3.3,0,0,0-.34-.4,6.22,6.22,0,0,0-1.06.3,7.79,7.79,0,0,0-2.43,1.82c-3,2.75-3.65,2.72-3.89,2.6,0,0-.23-.07-.17-.15.27-.44.63-1,1.07-1.55.65-.89,1.05-1.31,1.61-2,1.12-1.4,1.56-1.71,1.74-2.51,0-.19.24-1.07-.13-1.28s-.68,0-1.09.42l-4.5,4.35-2.84,3a2.07,2.07,0,0,1-.11-.5,4.34,4.34,0,0,1,0-.51c0-.25,0-.44,0-.5,0-.6,1.29-1.84,1.23-2.93,0-.44-.26-1-.64-1.11s-1.35.86-2.88,3a13.92,13.92,0,0,0-.79,1.24,2.17,2.17,0,0,0-.22.46,6.69,6.69,0,0,0-.24,2.55c0,.33,0,.59,0,.8.05.51.09.87.09.9.06.45-.85,1.67-4.56,4.84l-6.68,4.8L215,133l2.2,4.09,5.37-.88L230.81,126a11.29,11.29,0,0,1,3-2l.08,0h0a10,10,0,0,1,1.07-.38,15.74,15.74,0,0,1,2-.31c1.66-.23,3-.35,4-.43C243.15,122.3,244.22,121.8,244.18,121.43Z"/><path class="cls-11" d="M233.52,118.25h0a.18.18,0,0,1-.17-.18s0-.77,0-1.16a5.11,5.11,0,0,0-.87-1.34,3.5,3.5,0,0,1-.23-.3,6.81,6.81,0,0,1-.13-1.59v-.05a5.12,5.12,0,0,1,.32-.78,19.39,19.39,0,0,0,.91-2.11,3.61,3.61,0,0,0-.24-.72.17.17,0,0,1,.1-.22.16.16,0,0,1,.22.09,3.45,3.45,0,0,1,.27.86,16.24,16.24,0,0,1-1,2.26,4.76,4.76,0,0,0-.28.69,8.56,8.56,0,0,0,.1,1.41l.19.25a4.24,4.24,0,0,1,.95,1.52c0,.41,0,1.17,0,1.2A.18.18,0,0,1,233.52,118.25Z"/><path class="cls-45" d="M195.56,135.92l13.65-6.44,16.64-9.67c-.23.41-2.43,4.37-.51,8.34a8.51,8.51,0,0,0,3.29,3.53,56.71,56.71,0,0,1-27.07,20.83Z"/><path class="cls-46" d="M146.94,121.84a12.51,12.51,0,0,1,4.36-4.13,13,13,0,0,1,8.5-1.4l-3.88,5.2-4.87.86-2.74,1.06Z"/><path class="cls-39" d="M143.86,109.11c.11-.12.38-.1.8.07l3.49,2.22a.14.14,0,0,0,.2-.2c-.2-.31-.4-.63-.6-1-.34-.58-.64-1.14-.89-1.67a8.8,8.8,0,0,1-.91-2.89c-.15-1.11.06-1.25.12-1.28.28-.14.8.37,1.09.66a6.59,6.59,0,0,1,1.47,2.27l1.61,1.94a.09.09,0,0,0,.17-.07l-.59-3.88c0-1.21.1-3.36.12-4.28a.64.64,0,0,1,0-.21c.05-.18.09-.35.14-.5a.31.31,0,0,1,.52-.12,5.74,5.74,0,0,1,.67.88,7.5,7.5,0,0,1,.85,2.91c.75,4,1.3,4.37,1.57,4.42,0,0,.21.07.22,0,0-.51.07-1.14.07-1.87,0-1.11-.06-1.69-.09-2.58-.05-1.79-.22-2.31.11-3.05.08-.18.45-1,.88-.95s.52.44.61,1c.34,2.06.67,4.11,1,6.17.16,1.36.33,2.72.5,4.07a1.82,1.82,0,0,0,.38-.33,3.15,3.15,0,0,0,.31-.41c.14-.2.26-.34.3-.4.37-.46.07-2.24.77-3.08a1.23,1.23,0,0,1,1.18-.51c.45.18.57,1.5.51,4.14a12.89,12.89,0,0,1-.11,1.46,2.66,2.66,0,0,1-.1.49,6.68,6.68,0,0,1-1.34,2.2c-.2.25-.37.45-.52.61-.34.38-.59.64-.61.66-.31.33-.32,1.85.76,6.61l2.48,7.84-.74,5.46-4.21,2-3.77-3.92-.51-13.15a11,11,0,0,0-1.25-3.37l0-.08h0a9.07,9.07,0,0,0-.63-.94,15.43,15.43,0,0,0-1.41-1.45c-1.2-1.17-2.22-2.1-2.94-2.73C144.16,110.42,143.6,109.38,143.86,109.11Z"/><path class="cls-11" d="M153.77,114.29a.19.19,0,0,1-.1,0,.18.18,0,0,1,0-.25,24.93,24.93,0,0,1,3.28-3L158,109.6l.09-.75a.17.17,0,1,1,.34,0l-.09.8a.2.2,0,0,1,0,.08l-1.14,1.5a.16.16,0,0,1-.11.07,26.24,26.24,0,0,0-3.15,2.89A.18.18,0,0,1,153.77,114.29Z"/><path class="cls-45" d="M174.13,143.32a40.48,40.48,0,0,1-14.41-21.73,26.68,26.68,0,0,1-11.18,3.08,59,59,0,0,0,17.22,35.64Z"/><path class="cls-45" d="M165.42,180.49c-.07,2.49-.22,4.45-.41,6.12-.89,4.2-3.52,19.2,5,34.39a48.68,48.68,0,0,0,16.94,17.56q-1.37-26.1-3.7-53.66-2.11-24.77-4.86-48.23c-1.53.18-2.82.39-3.81.57-1.16.21-2,.39-2.4.48l-1.59.39-.64.17c-.83.23-1.62.47-2.38.73s-1.29.43-1.89.66l-.17.07c-.07,1.36-.16,3.42-.25,5.93C164.62,164.2,165.74,170.4,165.42,180.49Z"/><path class="cls-12" d="M173.44,204.51h-.06l-2.35-.88a.16.16,0,0,1-.1-.22l4.7-12.49a.17.17,0,1,1,.32.12l-4.64,12.33,2,.75,4-12.66a.18.18,0,0,1,.22-.12.18.18,0,0,1,.11.22l-4.1,12.84a.2.2,0,0,1-.09.11Z"/><path class="cls-12" d="M222.61,191.67h-.05L211.09,188a.17.17,0,0,1-.12-.22.18.18,0,0,1,.22-.11l11.48,3.69a.18.18,0,0,1,.11.22A.16.16,0,0,1,222.61,191.67Z"/><path class="cls-12" d="M222.61,189h0l-10.52-3.1a.16.16,0,0,1-.12-.21.17.17,0,0,1,.21-.12l10.52,3.1a.16.16,0,0,1,.12.21A.17.17,0,0,1,222.61,189Z"/><path class="cls-12" d="M213.45,219.12a.24.24,0,0,1-.13-.05.18.18,0,0,1,0-.25c.09-.08,9.49-8.71,11.27-12.83s3.15-8.52,3.16-8.56a.18.18,0,0,1,.34.1c0,.05-1.39,4.44-3.19,8.6s-11,12.59-11.35,13A.17.17,0,0,1,213.45,219.12Z"/><path class="cls-12" d="M184.85,229.44a.15.15,0,0,1-.09,0A37.38,37.38,0,0,1,167.59,202a.19.19,0,0,1,.16-.2.18.18,0,0,1,.19.16,36.89,36.89,0,0,0,4.68,14.29,37.39,37.39,0,0,0,12.32,12.86.17.17,0,0,1,.06.24A.17.17,0,0,1,184.85,229.44Z"/><path class="cls-12" d="M168.62,161.56a.17.17,0,0,1-.17-.16l-.31-6.18-4.81-4a.17.17,0,0,1,0-.24.17.17,0,0,1,.24,0l4.87,4a.14.14,0,0,1,.06.12l.31,6.26a.16.16,0,0,1-.16.18Z"/><path class="cls-12" d="M199.6,158.41a.16.16,0,0,1-.17-.17v-8.45a.15.15,0,0,1,0-.09l3-5.41a.16.16,0,0,1,.23-.07.17.17,0,0,1,.07.24l-3,5.37v8.41A.17.17,0,0,1,199.6,158.41Z"/><path class="cls-4" d="M174.12,312.66c0,.31.08.59.13.85a1.66,1.66,0,0,0,1.63,1.33h13.89a1.46,1.46,0,0,0,1.46-1.27,1.49,1.49,0,0,1,0-.21,17.65,17.65,0,0,0,0-3.37,17.42,17.42,0,0,0-.37-2.39,29.64,29.64,0,0,1-.43-7.72,36.81,36.81,0,0,1-5.19.67,34.94,34.94,0,0,1-5.07-.06c0,1.34.05,2.68.07,4h-.06a4.36,4.36,0,0,0-.6.12h0a7.39,7.39,0,0,0-4.59,3.21A7.73,7.73,0,0,0,174.12,312.66Z"/><path class="cls-43" d="M174.12,312.66c0,.31.08.59.13.85a1.66,1.66,0,0,0,1.63,1.33h13.89a1.46,1.46,0,0,0,1.46-1.27,1.49,1.49,0,0,1,0-.21h-3a7.34,7.34,0,0,0-.77-5,7.62,7.62,0,0,0-4.09-3.31,8.51,8.51,0,0,0-3.07-.55h-.06l-.6.12h0a7.39,7.39,0,0,0-4.59,3.21A7.73,7.73,0,0,0,174.12,312.66Z"/><path class="cls-43" d="M185.9,305.27a.13.13,0,0,0,.1,0,.16.16,0,0,0,0-.22,4.57,4.57,0,0,0-3.37-1.57,3.92,3.92,0,0,0-1.56.34.15.15,0,0,0-.08.2.16.16,0,0,0,.21.08,3.62,3.62,0,0,1,1.44-.31h.05a4.34,4.34,0,0,1,3.07,1.47A.16.16,0,0,0,185.9,305.27Z"/><path class="cls-43" d="M183.12,301.72v.17a.16.16,0,1,1-.32,0v-.44a.16.16,0,0,1,.08-.14.18.18,0,0,1,.16,0l0,0c1.22-1.31,2.79-1.5,3.49-.85a1.63,1.63,0,0,1,.48,1.13,1.11,1.11,0,0,1-.26.83,1.13,1.13,0,0,1-.85.3A6.11,6.11,0,0,1,183.12,301.72Zm.22-.23c1.5.88,2.8,1.18,3.22.74a.86.86,0,0,0,.17-.61,1.33,1.33,0,0,0-.38-.91,1.22,1.22,0,0,0-.85-.29A3.18,3.18,0,0,0,183.34,301.49Z"/><path class="cls-43" d="M179.36,302.34a2,2,0,0,1-.55-1.42,1,1,0,0,1,.3-.77c.8-.73,3,.65,3.94,1.28a.15.15,0,0,1,.06.11.13.13,0,0,1,0,.12,3.31,3.31,0,0,1-2.29,1.17h-.09A1.93,1.93,0,0,1,179.36,302.34Zm0-2a.73.73,0,0,0-.19.55,1.68,1.68,0,0,0,.45,1.18,1.62,1.62,0,0,0,1.2.41,2.92,2.92,0,0,0,1.94-.93C181.43,300.72,179.82,299.92,179.32,300.38Z"/><path class="cls-43" d="M180.42,305.07a.16.16,0,0,0,.12-.06L183,301.8c2.69,3,2.72,3,2.81,3a.16.16,0,0,0,.16-.16.16.16,0,0,0-.08-.13c-.17-.15-1.75-1.88-2.78-3a.21.21,0,0,0-.13-.05.15.15,0,0,0-.11.06l-2.55,3.36a.16.16,0,0,0,0,.22A.17.17,0,0,0,180.42,305.07Z"/><path class="cls-18" d="M226.81,135.27a9.42,9.42,0,0,1-6.12-14.45l5.59-1.35c-.16.3-2.16,4.23-.06,7.92a8,8,0,0,0,3.89,3.35Z"/><path class="cls-18" d="M147.39,126.8a9.55,9.55,0,0,0,8,1,9.45,9.45,0,0,0,5.3-4.92q-.47-3.27-.91-6.52a20.86,20.86,0,0,1-7.68,4.56,20.52,20.52,0,0,1-5.18,1Z"/><path class="cls-4" d="M180,132s-1.56,4.07,4.33,7.9,4.16,14.75,3.86,14.68-10.27-3.3-11.06-5.31-.86-10.18-.86-10.18-2.54-4.06-2.31-4.74S180,132,180,132Z"/></g></g></g></svg>