<svg xmlns="http://www.w3.org/2000/svg" xmlns:xlink="http://www.w3.org/1999/xlink" viewBox="0 0 164.68 164.68"><defs><style>.cls-1{fill:url(#linear-gradient);}</style><linearGradient id="linear-gradient" y1="82.34" x2="164.68" y2="82.34" gradientUnits="userSpaceOnUse"><stop offset="0" stop-color="#ffc9b3"/><stop offset="1" stop-color="#b76c49"/></linearGradient></defs><g id="Layer_2" data-name="Layer 2"><g id="Layer_1-2" data-name="Layer 1"><path class="cls-1" d="M82.34,0A82.34,82.34,0,1,0,99.51,162.87L86.75,159.4a2.29,2.29,0,0,1-1.61-2.82l8.45-31a2.29,2.29,0,0,1,2.82-1.61l31,8.45a2.29,2.29,0,0,1,1.61,2.82l-4.92,18.08A82.34,82.34,0,0,0,82.34,0Zm38.31,103.56-30.56,10a2.31,2.31,0,0,1-2.9-1.47l-10-30.56a2.3,2.3,0,0,1,1.46-2.9l30.56-10.05a2.3,2.3,0,0,1,2.9,1.47l10,30.56A2.3,2.3,0,0,1,120.65,103.56ZM133.22,28l-12.1,29.81a2.28,2.28,0,0,1-3,1.26L88.32,47a2.3,2.3,0,0,1-1.26-3L99.15,14.16a2.31,2.31,0,0,1,3-1.27L132,25A2.3,2.3,0,0,1,133.22,28Z"/></g></g></svg>